<?xml version="1.0" encoding="UTF-8" standalone="no"?>
<svg
   xmlns:dc="http://purl.org/dc/elements/1.1/"
   xmlns:cc="http://creativecommons.org/ns#"
   xmlns:rdf="http://www.w3.org/1999/02/22-rdf-syntax-ns#"
   xmlns:svg="http://www.w3.org/2000/svg"
   xmlns="http://www.w3.org/2000/svg"
   xmlns:sodipodi="http://sodipodi.sourceforge.net/DTD/sodipodi-0.dtd"
   xmlns:inkscape="http://www.inkscape.org/namespaces/inkscape"
   inkscape:version="1.0 (4035a4fb49, 2020-05-01)"
   sodipodi:docname="onequarterheart.svg"
   id="svg14"
   version="1.1"
   viewBox="0 0 9 9">
  <metadata
     id="metadata20">
    <rdf:RDF>
      <cc:Work
         rdf:about="">
        <dc:format>image/svg+xml</dc:format>
        <dc:type
           rdf:resource="http://purl.org/dc/dcmitype/StillImage" />
        <dc:title></dc:title>
      </cc:Work>
    </rdf:RDF>
  </metadata>
  <defs
     id="defs18" />
  <sodipodi:namedview
     inkscape:current-layer="svg14"
     inkscape:cy="2.3004323"
     inkscape:cx="2.3784683"
     inkscape:zoom="64"
     showgrid="false"
     id="namedview16"
     inkscape:window-height="480"
     inkscape:window-width="640"
     inkscape:pageshadow="2"
     inkscape:pageopacity="0"
     guidetolerance="10"
     gridtolerance="10"
     objecttolerance="10"
     borderopacity="1"
     bordercolor="#666666"
     pagecolor="#ffffff" />
  <rect
     style="fill:#ff0000;fill-opacity:1;fill-rule:evenodd;stroke:none;stroke-width:5.66929;stroke-linecap:round;stroke-linejoin:round;stroke-miterlimit:7.7"
     id="rect859-5"
     width="1"
     height="1"
     x="5"
     y="5" />
  <rect
     style="fill:#ff0000;fill-opacity:1;fill-rule:evenodd;stroke:none;stroke-width:5.66929;stroke-linecap:round;stroke-linejoin:round;stroke-miterlimit:7.7"
     id="rect859-7"
     width="1"
     height="1"
     x="5"
     y="4" />
  <rect
     style="fill:#ff0000;fill-opacity:1;fill-rule:evenodd;stroke:none;stroke-width:5.66929;stroke-linecap:round;stroke-linejoin:round;stroke-miterlimit:7.7"
     id="rect859-6"
     width="1"
     height="1"
     x="6"
     y="4" />
  <path
     id="path2"
     d="M2 0h2v1h1V0h2v1h1v1h1v3H8v1H7v1H6v1H5v1H4V8H3V7H2V6H1V5H0V2h1V1h1z" />
  <path
     style="fill:#ff0000;fill-opacity:1"
     id="path4"
     d="M2 1h2v1h1v6H4V7H3V6H2V5H1V2h1V1"
     fill="red" />
  <path
     id="path6"
     d="M5 7V1h2v1h1v3H7v1H6v1H5"
     fill="#282828" />
  <path
     fill="#ffc8c8"
     d="M 2,3 V 2 h 1 v 1 z"
     id="path8" />
  <rect
     y="4"
     x="1"
     height="1"
     width="1"
     id="rect947"
     style="fill:#bb1313;fill-opacity:1;fill-rule:evenodd;stroke:none;stroke-width:5.66929;stroke-linecap:round;stroke-linejoin:round;stroke-miterlimit:7.7" />
  <path
     sodipodi:nodetypes="ccccccccccccccc"
     d="M 3,4 V 5 H 2 V 6 H 3 V 7 H 4 V 8 H 5 V 7 L 5.5,5.96875 v -1 L 5,4 H 4 Z"
     style="fill:#282828;fill-opacity:1;fill-rule:evenodd;stroke:none;stroke-width:5.66929;stroke-linecap:round;stroke-linejoin:round;stroke-miterlimit:7.7"
     id="rect947-4" />
</svg>
