<?xml version="1.0" standalone="no"?>
<!DOCTYPE svg PUBLIC "-//W3C//DTD SVG 1.1//EN" "http://www.w3.org/Graphics/SVG/1.1/DTD/svg11.dtd" >
<svg xmlns="http://www.w3.org/2000/svg" xmlns:xlink="http://www.w3.org/1999/xlink" version="1.1">
<metadata>
Created by FontForge 20170731 at Wed Jun 22 02:33:34 2022
 By Aleksey,,,
</metadata>
<defs>
<font id="Argam_60_2022-06-21" horiz-adv-x="778" >
  <font-face 
    font-family="Argam"
    font-weight="400"
    font-stretch="normal"
    units-per-em="1000"
    panose-1="2 0 5 3 0 0 0 0 0 0"
    ascent="806"
    descent="-194"
    x-height="806"
    cap-height="806"
    bbox="-0.223684 -194.62 667.348 806.333"
    underline-thickness="27"
    underline-position="-108"
    unicode-range="U+002D-007A"
  />
<missing-glyph horiz-adv-x="364" 
d="M33 0v666h265v-666h-265zM66 33h199v600h-199v-600z" />
    <glyph glyph-name=".notdef" horiz-adv-x="364" 
d="M33 0v666h265v-666h-265zM66 33h199v600h-199v-600z" />
    <glyph glyph-name=".null" horiz-adv-x="0" 
 />
    <glyph glyph-name="nonmarkingreturn" horiz-adv-x="333" 
 />
    <glyph glyph-name="hyphen" unicode="-" horiz-adv-x="555" 
d="M0 362h444v-112h-444v112z" />
    <glyph glyph-name="period" unicode="." horiz-adv-x="333" 
d="M110.5 28q45.5 0 78.5 -32.5t33 -78t-33 -78.5t-78.5 -33t-78 33t-32.5 78.5t32.5 78t78 32.5z" />
    <glyph glyph-name="zero" unicode="0" 
d="M333 806q138 0 236 -98t98 -236v-333q0 -138 -98 -236q-97 -97 -236 -97q-138 0 -235 97q-98 98 -98 236v333q0 138 98 236t235 98zM333 694q-92 0 -157 -65t-65 -157v-333q0 -92 65 -157t157 -65t157 65q66 66 66 157v333q0 91 -66 157q-65 65 -157 65z" />
    <glyph glyph-name="one" unicode="1" horiz-adv-x="389" 
d="M167 806h111v-1000h-111v722h-167v111q28 0 58.5 14.5t55 39t39 55t14.5 58.5z" />
    <glyph glyph-name="two" unicode="2" 
d="M0 473h111q0 90 49 149q60 73 174 73q90 0 150 -47q72 -56 72 -148q0 -33 -12 -62q-14 -35 -48 -71.5t-131 -112.5q-29 -23 -44 -35q-28 -22 -85 -65q-45 -34 -64.5 -49t-51.5 -42.5t-53 -51.5q-67 -75 -67 -149v-56h629q19 92 37 184l-109 21l-19 -94h-404q7 10 16 20
q36 41 152 128q59 44 88 67q13 10 47.5 37t52.5 41.5t43.5 37.5t44.5 43q47 52 69 105q20 49 20 104q0 71 -30 132.5t-85 103.5q-91 70 -218 70q-131 0 -220 -74q-55 -45 -84.5 -112t-29.5 -147z" />
    <glyph glyph-name="three" unicode="3" 
d="M38 806h629v-106l-249 -249q104 -23 176.5 -108t72.5 -204q0 -148 -92.5 -240.5t-240.5 -92.5q-149 0 -238 76q-96 82 -96 230h111q0 -97 57 -146q58 -49 166 -49q102 0 162 60t60 162q0 46 -17.5 85.5t-45 64t-62 41.5t-68.5 17.5t-64 -9.5l-60 91l266 266h-376l-19 -94
l-109 21z" />
    <glyph glyph-name="four" unicode="4" 
d="M380 806h130l-18 -29l-366 -610h374v361h111v-361h56v-111h-56v-139h56v-111h-222v111h55v139h-500v117z" />
    <glyph glyph-name="five" unicode="5" 
d="M31 806h53h583v-111h-531l-17 -302q105 80 215 80q148 0 240.5 -93t92.5 -241t-92.5 -240.5t-240.5 -92.5q-142 0 -238 82.5t-96 195.5h111q0 -62 61.5 -114.5t161.5 -52.5q102 0 162 60t60 162t-60 162.5t-162 60.5q-37 0 -74 -15t-64 -35.5t-49 -41.5t-34 -36l-11 -14
l-102 34z" />
    <glyph glyph-name="six" unicode="6" 
d="M334 806q148 0 240.5 -92.5t92.5 -240.5h-111q0 102 -60 162t-162 60t-162.5 -60t-60.5 -162v-81q94 81 223 81q148 0 240.5 -93t92.5 -241t-92.5 -240.5t-240.5 -92.5t-239 92q-90 91 -95 240v1v334q0 148 93 240.5t241 92.5zM334 362q-102 0 -162 -61q-60 -59 -60 -161
q3 -105 61.5 -164t160.5 -59t162 60t60 162t-60 162.5t-162 60.5z" />
    <glyph glyph-name="seven" unicode="7" 
d="M0 806h613h54v-98v-13q-42 -58 -87 -147.5t-89.5 -206t-73 -259t-28.5 -276.5h-111q0 133 23.5 267.5t62.5 248.5t82 205.5t91 167.5h-426v-167h-111v278z" />
    <glyph glyph-name="eight" unicode="8" 
d="M334 806q141 0 223 -68q40 -34 61 -81.5t21 -100.5t-21 -100.5t-61 -81.5q-7 -5 -15 -11q16 -10 29 -22q96 -82 96 -229.5t-96 -229.5q-88 -76 -237 -76t-238 76q-96 82 -96 229.5t96 229.5q13 12 30 22q-9 6 -15 11q-40 34 -61.5 81.5t-21.5 100.5t21.5 100.5t61.5 81.5
q82 68 223 68zM333.5 695q-100.5 0 -151.5 -43q-43 -35 -43 -96t43 -96q51 -43 151.5 -43t152.5 43q42 35 42 96t-42 96q-52 43 -152.5 43zM334 306q-108 0 -166 -49q-57 -49 -57 -145.5t57 -145.5q58 -49 166 -49t165 49t57 145.5t-57 145.5t-165 49z" />
    <glyph glyph-name="nine" unicode="9" 
d="M334 803q148 0 240.5 -92.5t92.5 -240.5q0 -13 -1 -29v-3.5t-1 -2.5v-1q-11 -131 -105 -340q-73 -165 -163 -288h-142q112 129 204 333q4 10 9 22q-62 -25 -134 -25q-148 0 -241 93t-93 241t93 240.5t241 92.5zM334 692q-102 0 -162.5 -60t-60.5 -162t60.5 -162.5
t162.5 -60.5t162 61q39 39 53 98q5 24 6 41q1 12 1 23q0 102 -60 162t-162 60z" />
    <glyph glyph-name="colon" unicode=":" horiz-adv-x="333" 
d="M110.5 806q45.5 0 78.5 -33t33 -78.5t-33 -78t-78.5 -32.5t-78 32.5t-32.5 78t32.5 78.5t78 33zM110.5 28q45.5 0 78.5 -32.5t33 -78t-33 -78.5t-78.5 -33t-78 33t-32.5 78.5t32.5 78t78 32.5z" />
    <glyph glyph-name="A" unicode="A" 
d="M215 806q51 -2 95.5 -26.5t72.5 -67.5q38 -57 34 -126t-49 -122v-1q-123 -147 -102 -304q31 42 78 66.5t101 24.5q91 0 156.5 -65t65.5 -156.5t-65.5 -157t-156.5 -65.5q-51 0 -95.5 21.5t-75.5 59.5h-1q-120 148 -117 323.5t126 322.5q0 1 1 2q21 25 23 57t-16 59
t-48 38t-61 2t-50.5 -35t-19.5 -58q0 -7 -1 -14h1v-778h-111v778h2q-2 7 -2 14q0 69 41.5 124t107.5 75q32 10 66 9zM444.5 139q-46.5 0 -78.5 -32t-32 -79q0 -34 18 -62q6 -8 7 -9q33 -40 86 -40q46 0 78.5 32.5t32.5 79t-32.5 78.5t-79 32z" />
    <glyph glyph-name="B" unicode="B" 
d="M0 806h223v-111h-56v-248l333 359h167v-111h-56v-778h56v-111h-222v111h55v248l-333 -359h-167v111h56v778h-56v111zM500 643l-333 -359v-315l333 359v315z" />
    <glyph glyph-name="C" unicode="C" 
d="M52 806h282h55h278v-29l-37 -57q-73 -113 -156 -291q84 -8 171 14l22 6v-115q-128 -31 -242 -13q-17 -41 -30 -76q25 5 50 5q91 0 156.5 -65t65.5 -156.5t-65.5 -157t-157 -65.5t-156.5 65.5t-65 156.5q0 18 2 35q16 103 87 278q-58 13 -114 12t-121 -17l-77 -19z
M152 695l-25 -241q123 17 231 -6q55 122 129 247h-98h-55h-182zM445 139q-40 0 -70.5 -24.5t-38.5 -63.5v-0.5v-1.5q-2 -11 -2 -21q0 -46 32 -78.5t78.5 -32.5t79 32.5t32.5 79t-32.5 78.5t-78.5 32z" />
    <glyph glyph-name="D" unicode="D" 
d="M278 806q56 0 101.5 -32.5t72.5 -83.5q48 -91 48 -217q0 -43 -12 -123q86 -16 179 -24v-112q-109 10 -203 26q-21 -85 -21 -87q-69 -222 -167 -307h-1q-47 -40 -108 -40q-69 0 -118 49t-49 117.5t49 117.5t118 49q79 0 129 -62q23 53 40 108q2 5 20 83q-10 3 -32.5 8.5
t-39 10.5t-29.5 10q-92 39 -142 97q-57 67 -57 155q0 111 53 179q29 37 73 57.5t96 20.5zM278 695q-54 0 -81 -35q-30 -38 -30 -111q0 -47 31 -83q32 -37 100 -66q10 -4 23.5 -8t31 -8t26.5 -7q10 71 10 96q0 99 -35 164q-16 31 -34 44.5t-42 13.5zM167 28q-24 0 -40 -16
t-16 -39.5t16 -39.5t40 -16q21 0 36 13v1q2 1 7 5q13 16 13 37q0 23 -16 39t-40 16z" />
    <glyph glyph-name="E" unicode="E" 
d="M445 806h222v-111h-56v-583v-195h56v-111h-222v111h55v195q0 91 -45 168t-122 121q1 -6 1 -12q0 -68 -49 -117t-118 -49t-118 49t-49 117.5t49 117.5t118 49h9q95 -2 179 -42t145 -109v290h-55v111zM167 445q-24 0 -40 -16t-16 -39.5t16 -39.5t40 -16t40 16t16 39.5
t-16 39.5t-40 16z" />
    <glyph glyph-name="F" unicode="F" 
d="M0 806h222v-111h-55v-156l500 -181v-104l-500 -181v-156h55v-111h-222v111h56v778h-56v111zM167 421v-230l318 115z" />
    <glyph glyph-name="G" unicode="G" 
d="M0 806h56h55h556v-112q-58 -13 -132 -57.5t-147 -107.5q-30 -26 -61 -57q1 1 3 1h4q90 0 167 -45t121.5 -121.5t44.5 -167t-44.5 -167.5t-121.5 -121.5t-167.5 -44.5t-167 44.5t-121.5 121.5t-45 167q0 101 57 185h-1q101 151 260 289q26 23 110 82h-315v-111h-111v222z
M334 362q-54 0 -100 -23.5t-77 -64.5q-6 -7 -8 -11q-38 -56 -38 -124q0 -92 65 -157t157.5 -65t157.5 65t65 157.5t-65 157.5t-157 65z" />
    <glyph glyph-name="H" unicode="H" 
d="M0 806h223v-111h-56v-763q34 14 63 33q78 51 152 135q77 87 125.5 187.5t48.5 185.5q0 126 -66 178q-54 44 -156 44v111q141 0 225 -68q108 -86 108 -265q0 -114 -55.5 -229.5t-145.5 -217.5q-84 -95 -176 -155q-100 -65 -179 -65h-55v889h-56v111z" />
    <glyph glyph-name="I" unicode="I" 
d="M0 806h667v-556h-387l126 -428l4 -16h-116l-130 444h-108h-56v112h56h75zM149 695l98 -333h309v333h-407z" />
    <glyph glyph-name="J" unicode="J" 
d="M389 806q52 0 96 -20.5t73 -57.5q53 -68 53 -179q0 -88 -57 -155q-49 -58 -142 -97q-13 -5 -29.5 -10t-39 -10.5t-32.5 -8.5q19 -78 20 -83q17 -55 40 -108q51 62 129 62q69 0 118 -49t49 -117.5t-49 -117.5t-118 -49q-61 0 -108 40q-99 85 -167 307q-1 1 -22 87
q-94 -16 -203 -26v112v91h111v-78q39 6 69 11q-13 80 -13 123q0 126 48 217q27 51 72.5 83.5t101.5 32.5zM389 695q-24 0 -41.5 -13.5t-34.5 -44.5q-35 -65 -35 -164q0 -25 11 -96q9 3 26 7t30.5 8t23.5 8q68 29 101 66q30 36 30 83q0 73 -30 111q-27 35 -81 35zM500.5 28
q-23.5 0 -39.5 -16t-16 -39q0 -21 13 -37q4 -4 6 -5v-1q15 -13 36 -13q24 0 40 16t16 39.5t-16 39.5t-39.5 16z" />
    <glyph glyph-name="K" unicode="K" 
d="M0 806q64 0 111 -34q52 -37 77 -113q10 -30 28 -105q6 17 12 30q40 90 100.5 142t130.5 52q39 0 77 -17t67 -50q64 -74 64 -206q0 -129 -119 -256q-7 -8 -16 -17q48 -21 83 -61.5t47 -93.5q19 -89 -29.5 -166.5t-136.5 -98.5q-43 -10 -87 -3q-65 11 -114.5 55.5
t-65.5 109.5q-5 23 -17 73l-9 42q-8 38 -25.5 119.5t-22.5 104.5q-57 266 -72 311q-14 42 -37 58q-18 13 -46 13v111zM459 667q-26 0 -64 -33t-66 -95q-59 -134 -32 -334q109 55 170 120q43 45 66 93t23 87q0 91 -37 133q-25 29 -60 29zM444 139q-11 0 -22 -2q-14 -3 -25 -9
q-8 -4 -15 -8q-4 -3 -17 -12q-25 -16 -47 -26q14 -59 19 -81q11 -44 49.5 -68t83.5 -13t69 49t14 83q-8 39 -39 63.5t-70 23.5z" />
    <glyph glyph-name="L" unicode="L" 
d="M444.5 806q59.5 0 111 -30t81.5 -81.5t30 -110.5v-56h-56h-55v56q0 30 -15 55.5t-41 40.5t-55.5 15t-55.5 -15t-40.5 -40.5t-14.5 -55.5v-537l129 -116q27 -24 60 -9t33 51v55h111v-55q0 -50 -27 -91t-72 -61.5t-93.5 -12.5t-85.5 40l-68 61q-19 -46 -61 -74.5t-93 -28.5
q-69 0 -118 49t-49 117.5t49 117.5t118 49q29 0 56 -9v455q0 59 29.5 110.5t81.5 80.5q51 30 110.5 30zM167 28q-24 0 -40 -16t-16 -39.5t16 -39.5t40 -16t40 16t16 40q0 22 -15 37l-4 4q-15 14 -37 14z" />
    <glyph glyph-name="M" unicode="M" 
d="M0 806h667v-111q-41 0 -117.5 -42.5t-143.5 -110.5q150 -194 150 -403q0 -136 -61 -231q-30 -47 -71.5 -74.5t-89.5 -27.5q-55 0 -101 28.5t-73 75.5q-49 86 -49 229q0 209 150 403q-67 68 -143 110.5t-118 42.5v111zM258 695q39 -31 76 -69q37 38 75 69h-151zM334 456
q-111 -157 -111 -317q0 -113 34 -173q15 -27 32 -38t45 -11q35 0 68 51q43 67 43 171q0 160 -111 317z" />
    <glyph glyph-name="N" unicode="N" 
d="M445 806h222v-111h-56v-337v-104v-337h56v-111h-222v111h55v296l-425 -154l-75 -27v548l500 -181v296h-55v111zM111 421v-230l319 115z" />
    <glyph glyph-name="O" unicode="O" 
d="M0 806h635l32 -444h-60q-178 -2 -284 -21q-95 -17 -149 -62q-63 -52 -63 -140q0 -102 60 -162t162 -60q100 0 161 52.5t61 114.5h112q0 -113 -96.5 -195.5t-237.5 -82.5q-148 0 -240.5 92.5t-92.5 240.5q0 71 28 129t75 96q77 64 200 86q99 18 245 21l-16 224h-421v-111
h-111v111v55v56z" />
    <glyph glyph-name="P" unicode="P" 
d="M0 806h223v-111h-56v-111h444h56v-111h-56q-29 0 -55 -15t-41 -41t-15 -55.5t15 -55.5t41 -41t55 -15h56v-55v-1v-55h-56q-29 0 -55 -14.5t-41 -40.5t-15 -55.5t15 -55.5t41 -41t55 -15h1h55v-55v-1v-55h-56q-59 0 -110.5 30t-81.5 81.5t-30 111t30 110.5q18 32 46 56
q-28 24 -46 55q-30 52 -30 111.5t30 111.5h-252v-556h56v-111h-223v111h56v778h-56v111z" />
    <glyph glyph-name="Q" unicode="Q" 
d="M334 806q148 0 240.5 -57t92.5 -137q0 -94 -116 -151q-89 -45 -190 -44q-120 2 -225 61q-13 -51 -19 -99q14 3 31 5q93 12 171 1q110 -14 164 -72q54 -57 44 -151q13 -5 24 -11q116 -57 116 -151q0 -80 -92.5 -137t-240.5 -57q-95 0 -164.5 54t-108.5 138
q-60 131 -61 306v2v2q1 176 61 306q39 84 108.5 138t164.5 54zM334 695q-58 0 -96 -28t-66 -82q88 -55 190 -57q74 -1 140 32q27 14 40.5 28t13.5 24q-6 22 -40 43q-65 40 -182 40zM251 279q-44 0 -89 -5q-21 -3 -49 -10q5 -60 23 -130q105 59 225 61q27 0 58 -4
q1 27 -17 46q-27 29 -98 38q-24 4 -53 4zM362 84q-102 -2 -190 -57q28 -54 66 -82t96 -28q117 0 182 40q15 10 25 20.5t13 16.5l2 6q0 10 -13.5 24t-40.5 28q-66 33 -140 32z" />
    <glyph glyph-name="R" unicode="R" 
d="M223 806h222v-111h-56v-122q63 -12 116 -10t121 19l41 10v-114v-283v-167h-111v428q-83 -9 -167 4v-543h56v-111h-222v111h55v567q-86 17 -167 5v-461h-111v111v325v115l15 3q88 22 166 22q47 0 97 -8v99h-55v111z" />
    <glyph glyph-name="S" unicode="S" 
d="M334 806q48 0 89.5 -27.5t71.5 -74.5q61 -95 61 -231q0 -209 -150 -403q67 -68 143.5 -110.5t117.5 -42.5v-111h-667v111q42 0 118 42.5t143 110.5q-150 194 -150 403q0 143 49 229q27 47 73 75.5t101 28.5zM334 695q-28 0 -45 -11t-32 -38q-34 -60 -34 -173
q0 -160 111 -317q111 157 111 317q0 104 -43 171q-33 51 -68 51zM334 -14q-37 -38 -76 -69h151q-38 31 -75 69z" />
    <glyph glyph-name="T" unicode="T" 
d="M0 806h667v-222h-111v111h-410l73 -264q62 -22 125 -55q179 -91 273 -208q1 0 1 -1q42 -53 48 -120.5t-27 -126.5t-93.5 -90t-127.5 -22.5t-118.5 52.5t-68.5 109l-1 1l-102 372q-72 20 -128 20v111q45 0 95 -9zM256 295l82 -296q9 -33 34.5 -55t59 -26t63.5 11.5
t46.5 45t14 63t-23.5 60.5q-37 45 -100.5 93t-137.5 86q-19 10 -38 18z" />
    <glyph glyph-name="U" unicode="U" 
d="M338 806q125 0 219 -50q78 -42 102 -106q12 -34 5.5 -71.5t-29.5 -67.5q-26 -33 -67 -58q25 -14 44 -32q55 -51 55 -115t-55 -115q-19 -18 -44 -32q41 -25 67 -58q23 -30 29.5 -67.5t-5.5 -71.5q-24 -64 -102 -106q-109 -57 -252 -49q-46 2 -89 12q-91 20 -148 65
q-68 54 -68 126v0v55h111v-55q0 -18 26 -39q37 -29 103 -43q69 -15 142.5 -7t122.5 33q41 22 50 47q3 7 2 13.5t-10 17.5q-20 26 -81 48t-132 22h-56v111h56q63 0 119.5 18t83.5 42q19 18 19 33t-19 33q-27 24 -83.5 42t-119.5 18h-56v111h56q71 0 132 22t81 48
q9 11 10 17.5t-2 13.5q-9 25 -50 47q-49 25 -122.5 33t-142.5 -7q-66 -14 -103 -43q-26 -21 -26 -39v-55h-111v55q0 72 68 126q57 45 148 65q43 10 89 12q17 1 33 1z" />
    <glyph glyph-name="V" unicode="V" 
d="M31 806h612l-207 -441q112 -18 218 8l13 3v-114q-36 -8 -70 -12v-1q-20 -6 -31.5 -23t-9 -38t18 -35t36.5 -14h56v-111h-56q-23 0 -39 -16t-16 -39.5t16 -39.5t39 -16h56v-111h-56q-68 0 -117 49t-49 118q0 63 43 111q-35 39 -42 90q-5 39 8 76q-33 3 -67 10l-214 -454
h-123l11 24l210 446q-99 11 -198 -14l-73 -18v3zM136 695l-17 -314q101 16 201 -1l148 315h-332z" />
    <glyph glyph-name="W" unicode="W" 
d="M0 806h667v-111l-271 -396q73 -195 98 -246q39 -77 76 -106.5t97 -29.5v-111h-667v111l271 396q-73 195 -98 246q-39 77 -75.5 106.5t-97.5 29.5v111zM221 695q25 -35 51 -86q26 -52 76 -184l184 270h-311zM319 187l-184 -270h311q-25 35 -51 86q-26 52 -76 184z" />
    <glyph glyph-name="X" unicode="X" 
d="M0 806h223v-111h-56v-167h500v-444h-500v-167h56v-111h-223v111h56v778h-56v111zM167 417v-222h389v222h-389z" />
    <glyph glyph-name="Y" unicode="Y" 
d="M223 806q112 0 199 -104q9 -10 39 -60q21 28 60 84.5t56 79.5h1l89 -65v-1q-26 -35 -79 -110.5t-70 -99.5q2 -5 8 -18.5t8 -20.5q37 -104 56.5 -210.5t20.5 -168.5q1 -124 -49 -206q-28 -45 -73.5 -72.5t-99.5 -27.5q-53 0 -98 26t-73 68q-51 77 -49 185q1 61 29.5 129
t80.5 156q-40 -6 -62 -5q-91 4 -149 55q-68 60 -68 164q0 85 68.5 153.5t154.5 68.5zM223 695q-40 0 -76 -36t-36 -75q0 -54 31 -81q28 -25 79 -27q47 -2 95.5 20t72.5 54q-26 49 -52 81q-54 64 -114 64zM439 418q-4 -6 -12.5 -18t-13.5 -18q-59 -93 -95.5 -175t-37.5 -124
q-1 -73 31 -121q29 -45 78 -45q27 0 45 11t33 36q34 55 32 146q0 38 -16.5 129.5t-43.5 178.5z" />
    <glyph glyph-name="Z" unicode="Z" 
d="M445 806h222v-111h-56v-778h56v-111h-222v111h55v167h-500v444h500v167h-55v111zM111 417v-222h389v222h-389z" />
    <glyph glyph-name="a" unicode="a" 
d="M38 806h296h333v-111l-473 -383q-61 -49 -77.5 -124.5t17.5 -145.5t104 -103.5t145.5 -16t124 78t48.5 138.5h111q0 -116 -72.5 -207t-186 -117.5t-218.5 24t-156 154.5t-26 217.5t114 186.5q1 1 2 1l366 297h-156h-205l-19 -94l-109 21z" />
    <glyph glyph-name="b" unicode="b" 
d="M0 806h667v-111h-518l257 -873l4 -16h-116z" />
    <glyph glyph-name="c" unicode="c" 
d="M0 806q79 0 165.5 -32t168.5 -91q81 59 167.5 91t165.5 32v-111q-51 0 -116 -22.5t-129 -64.5q99 -95 158 -221.5t59 -273.5v-1q0 -82 -41 -153t-111.5 -112t-152.5 -41t-153 41t-112 112t-41 153v1q0 147 59.5 273.5t157.5 221.5q-64 42 -129 64.5t-116 22.5v111z
M334 540l-2 -2l-2 -2q-87 -82 -139 -190t-52 -234q0 -53 26 -98t71.5 -71t97.5 -26t97 26t71 71t26 98q0 126 -51.5 234t-139.5 190q0 1 -1.5 2t-1.5 2z" />
    <glyph glyph-name="d" unicode="d" 
d="M139 806q110 0 208 -53.5t170 -147.5q71 -92 110.5 -212t39.5 -254q0 -148 -92.5 -240.5t-240.5 -92.5t-241 92.5t-93 240.5t93 241t241 93q85 0 155 -34q-26 54 -60 98q-58 76 -132.5 117t-157.5 41v111zM334 362q-102 0 -162.5 -60.5t-60.5 -162.5t60.5 -162t162.5 -60
t162 60t60 162v13q-4 93 -60 149q-60 61 -162 61z" />
    <glyph glyph-name="e" unicode="e" 
d="M329 806q18 1 35 -1q48 -4 93 -19q93 -31 151.5 -101t58.5 -157h-111q0 48 -35.5 90t-98.5 63q-64 21 -133.5 10t-116.5 -49q-46 -37 -58 -83t12 -90q24 -47 81 -77t127 -30h55v-112h-55q-70 0 -127 -30t-81 -77q-24 -44 -12 -90t58 -83q47 -38 116.5 -49t133.5 10
q63 21 98.5 63t35.5 90h111q0 -87 -58.5 -157t-151.5 -101q-45 -15 -93 -19q-71 -6 -139.5 13.5t-121.5 62.5q-73 59 -94.5 145t19.5 166q35 68 104 112q-69 44 -104 112q-41 80 -19.5 166t94.5 145q95 76 226 77z" />
    <glyph glyph-name="f" unicode="f" 
d="M334 806q148 0 240.5 -92.5t92.5 -240.5t-92.5 -241t-240.5 -93q-85 0 -156 34q26 -54 60 -98q59 -76 133.5 -117t156.5 -41v-111q-110 0 -207.5 53.5t-170.5 147.5q-71 92 -110.5 212t-39.5 254q0 148 93 240.5t241 92.5zM334 695q-102 0 -162.5 -60t-60.5 -162
t60.5 -162.5t162.5 -60.5t162 60.5t60 162.5t-60 162t-162 60z" />
    <glyph glyph-name="g" unicode="g" 
d="M389 806q115 0 196.5 -81.5t81.5 -196t-81.5 -196.5t-196.5 -82q-92 0 -166 56v-278q0 -1 -1 -3q-1 -90 -66 -154.5t-156 -64.5v111q47 0 79 32.5t32 78.5v500v1v2q1 113 82.5 194t195.5 81zM389.5 695q-69.5 0 -118 -48.5t-48.5 -118t48.5 -118t118 -48.5t118 48.5
t48.5 118t-48.5 118t-118 48.5z" />
    <glyph glyph-name="h" unicode="h" 
d="M0 806h223v-111h-56v-167h500v-55v-1v-55h-56q-29 0 -55 -15t-41 -40.5t-15 -55.5t15 -55.5t41 -40.5t55 -15h1h55v-56v0v-55h-56q-59 0 -110.5 29.5t-81.5 81t-30 111.5t30 111h-252v-500h56v-111h-223v111h56v778h-56v111z" />
    <glyph glyph-name="i" unicode="i" 
d="M334 806q82 0 152.5 -41t111.5 -112t41 -153q0 -147 -59 -274t-158 -222q64 -42 129 -64.5t116 -22.5v-111q-79 0 -165.5 32t-167.5 91q-82 -59 -168.5 -91t-165.5 -32v111q51 0 116 22.5t129 64.5q-99 95 -158 222t-59 274q0 82 41 153t112 112t153 41zM334 695
q-52 0 -97.5 -26t-71.5 -71t-26 -98q0 -126 52 -234t139 -190l2 -2l2 -2q0 1 1.5 2t1.5 2q88 82 139.5 190t51.5 234q0 53 -26 98t-71 71t-97 26z" />
    <glyph glyph-name="j" unicode="j" 
d="M62 806h605l-137 -465q55 2 124 19l13 3v-114q-83 -19 -168 -16l-126 -427h-116l5 16l125 427q-4 1 -12 1.5t-13 1.5q-78 20 -142 20t-143 -20l-77 -19v1zM161 695l-34 -325q141 20 262 -10q6 -2 15.5 -3t14.5 -2l100 340h-358z" />
    <glyph glyph-name="k" unicode="k" 
d="M167 806q86 0 173 -30.5t158 -90.5q78 -65 123.5 -161.5t45.5 -217.5q0 -236 -118 -373q-53 -62 -124 -94.5t-147 -32.5q-123 0 -200 70q-78 70 -78 180q0 82 56 145.5t144 88.5q122 35 269 -13q-34 50 -76 82q-117 92 -299 59l-20 109q60 11 117 11q158 -3 271 -91
q51 -40 92 -97q-14 155 -128 250q-54 46 -123.5 70.5t-135.5 24.5v111zM310 194h-13q-35 -2 -66 -11q-58 -17 -89 -50.5t-31 -76.5q0 -61 41 -98q46 -41 126 -41q111 0 187 88q43 50 66 126q-117 63 -221 63z" />
    <glyph glyph-name="l" unicode="l" 
d="M0 806h111v-56q0 -48 42 -72q20 -11 42 -11t41 11q42 24 42 72v56h111v-56q0 -48 42 -72q19 -11 41.5 -11t41.5 11q42 24 42 72v56h111v-56q0 -68 -43 -121q-40 -51 -79 -126.5t-75.5 -178.5t-58.5 -238.5t-22 -279.5h-111q0 227 47 418t122 334q-38 5 -72 24
q-23 13 -41 32q-19 -19 -42 -32q-45 -26 -97 -26t-97.5 26t-71.5 71t-26 97v1v55z" />
    <glyph glyph-name="m" unicode="m" 
d="M0 806q100 0 167 -54q56 -44 105 -143q30 -59 103 -255q139 -29 279 6l13 3v-114q-123 -28 -247 -15q53 -137 74 -181q39 -77 76 -106.5t97 -29.5v-111q-99 0 -167 54q-55 44 -105 143q-29 59 -103 255q-139 29 -278 -6l-14 -3v114q84 19 167 19q39 0 80 -4
q-52 137 -74 181q-39 77 -75.5 106.5t-97.5 29.5v111z" />
    <glyph glyph-name="n" unicode="n" 
d="M0 806q50 0 90.5 -18t67.5 -49q15 -18 28 -43t19 -40t15 -45q11 -31 29 -128q11 -58 33 -189q12 -69 17 -99q63 55 146 55q91 0 156.5 -65t65.5 -156.5t-65.5 -157t-156.5 -65.5q-72 0 -130 42.5t-81 109.5q-11 31 -28 127q-11 55 -34 190q-22 132 -33 188
q-16 89 -24 113q-23 69 -42 91q-13 15 -27.5 21.5t-45.5 6.5v111zM444.5 139q-46.5 0 -78.5 -32t-32 -79q0 -11 2 -22q2 -10 3 -13q11 -34 40 -55t66 -21q46 0 78.5 32.5t32.5 79t-32.5 78.5t-79 32z" />
    <glyph glyph-name="o" unicode="o" 
d="M0 806q78 0 164 -48t170 -132q83 84 169 132t164 48v-111q-35 0 -98 -32t-124 -85q80 -7 181 18l13 3v-114q-95 -22 -181 -18q98 -161 98 -328q0 -136 -61 -231q-30 -47 -71.5 -74.5t-89.5 -27.5q-55 0 -101 28.5t-73 75.5q-49 86 -49 229q0 187 123 366q-86 10 -192 -17
l-14 -3v114q76 18 144 19q-51 36 -97.5 56.5t-74.5 20.5v111zM334 456q-111 -157 -111 -317q0 -113 34 -173q15 -27 32 -38t45 -11q35 0 68 51q43 67 43 171q0 160 -111 317z" />
    <glyph glyph-name="p" unicode="p" 
d="M333 806q141 0 237.5 -82.5t96.5 -195.5h-112q0 62 -61 114.5t-161 52.5q-102 0 -162 -60t-60 -162q0 -88 63 -140q54 -45 149 -62q47 -8 118 -13.5t119 -6.5l47 -1h60l-4 -59l-28 -385h-635v111h532l16 224q-146 3 -245 21q-123 22 -200 86q-47 38 -75 96t-28 129
q0 148 92.5 240.5t240.5 92.5z" />
    <glyph glyph-name="q" unicode="q" 
d="M334 806q136 0 231 -61q47 -30 74.5 -71.5t27.5 -89.5t-27.5 -89.5t-74.5 -72.5q-95 -60 -231 -60q-118 0 -213 47v1q-10 -68 -10 -104t10 -104v1q95 47 213 47q136 0 231 -60q47 -31 74.5 -72.5t27.5 -89.5t-27.5 -89.5t-74.5 -71.5q-95 -61 -231 -61q-95 0 -164.5 54
t-108.5 138q-6 13 -10.5 26.5t-9 33.5t-7.5 28q-4 9 -6 20q-27 111 -28 198v2v2q1 87 28 199q2 10 6 19q2 7 7 27.5t9.5 34t10.5 26.5q39 84 108.5 138t164.5 54zM334 695q-63 0 -103 -32t-69 -96q-4 -7 -8 -23t-5 -21q15 -11 22 -15q72 -35 163 -35q104 0 171 43
q51 33 51 68t-51 68q-67 43 -171 43zM334 139q-91 0 -163 -35q-7 -4 -22 -15q1 -5 5 -21t8 -23q29 -64 69 -96t103 -32q104 0 171 43q51 33 51 68t-51 68q-67 43 -171 43z" />
    <glyph glyph-name="r" unicode="r" horiz-adv-x="775" 
d="M0 806h55q115 0 196.5 -81.5t81.5 -196.5q0 -67 -30 -125t-82 -97q52 -39 82 -97t30 -125q0 -93 -56 -167h228l43 395l5 55l111 -12l-6 -55l-53 -494h-550h-55v111h55q70 0 118.5 48.5t48.5 118t-48.5 118t-118.5 48.5h-55v56v1v55h55q70 0 118.5 48.5t48.5 118
t-48.5 118t-118.5 48.5h-55v55v1v55z" />
    <glyph glyph-name="s" unicode="s" 
d="M329 806q17 0 34 -1q45 -2 89 -12q91 -20 148 -65q63 -51 67 -117v-64h-111v55q0 18 -26 39q-36 29 -102 43q-69 15 -143 7t-122 -33q-41 -22 -50 -47q-4 -7 -2.5 -13.5t10.5 -17.5q20 -26 81 -48t132 -22h56v-111h-56q-64 0 -120.5 -18t-82.5 -42q-19 -18 -19 -33
t19 -33q26 -24 82.5 -42t120.5 -18h55v-111h-55q-71 0 -132 -22t-81 -48q-9 -11 -10.5 -17.5t2.5 -13.5q9 -25 50 -47q48 -25 122 -33t143 7q66 14 102 43q26 21 26 39v55h111v-64q-4 -66 -67 -117q-57 -45 -148 -65q-44 -10 -89 -12q-144 -8 -252 49q-78 42 -102 106
q-13 34 -6 71.5t30 67.5q26 33 66 58q-24 14 -43 32q-55 51 -55 115t55 115q19 18 43 32q-40 25 -66 58q-23 30 -30 67.5t6 71.5q24 64 102 106q94 50 218 50z" />
    <glyph glyph-name="t" unicode="t" 
d="M278 806h111v-778q13 15 18 20q110 122 231 195l29 17v-131q-96 -65 -178 -155q-43 -48 -71.5 -98t-28.5 -70h-111v778q-13 -15 -18 -20q-110 -122 -231 -195l-29 -17v131q96 65 178 155q43 48 71.5 98t28.5 70z" />
    <glyph glyph-name="u" unicode="u" 
d="M38 806h597l32 -444h-333q-60 0 -111.5 -30t-81.5 -82q-29 -50 -29.5 -108.5t27.5 -109.5q2 90 67 154t155 64q92 0 157.5 -65t65.5 -156.5t-65.5 -157t-157.5 -65.5h-27q-90 0 -167 44.5t-122 122t-45 167t45 166.5t122 122t167 45h214l-16 222h-403l-19 -94l-109 21z
M361.5 139q-46.5 0 -79 -32t-32.5 -78.5t32.5 -79t79 -32.5t79 32.5t32.5 79t-32.5 78.5t-79 32z" />
    <glyph glyph-name="v" unicode="v" 
d="M0 806h111h56v-56q0 -52 26 -97t71 -71t97 -26t97.5 26t71.5 71t26 97v56h111v-56q0 -81 -41 -152t-112 -112t-152.5 -41t-152.5 41q-22 12 -42 29v-598h56v-111h-223v111h56v778h-56v111z" />
    <glyph glyph-name="w" unicode="w" horiz-adv-x="776" 
d="M304 806q104 0 177 -73t73 -177q0 -96 -96 -196l-3 -3l-3 -3q92 -22 152.5 -97.5t60.5 -172.5q0 -115 -81.5 -196.5t-196 -81.5t-196.5 81.5t-82 196.5q0 66 30 124.5t82 97.5q113 85 157 131q65 68 65 119q0 63 -38.5 101t-100.5 38q-39 0 -63.5 -3.5t-53.5 -18t-50 -29
t-71 -51.5l-66 88q91 69 154.5 97t149.5 28zM387 250q-50 0 -92 -27q-1 -1 -3.5 -3t-4.5 -3q-31 -23 -48.5 -58t-17.5 -75q0 -70 48.5 -118.5t118 -48.5t118 48.5t48.5 118t-48.5 118t-118.5 48.5z" />
    <glyph glyph-name="x" unicode="x" 
d="M0 806h667v-112l-474 -332h474v-112l-474 -333h474v-111h-667v112l474 332h-474v112l474 333h-474v111z" />
    <glyph glyph-name="y" unicode="y" 
d="M0 806h445v-111h-278v-167h500v-108l-169 -176q73 -18 121 -78.5t48 -137.5q0 -91 -65.5 -156.5t-157 -65.5t-156.5 65.5t-65 156.5q0 89 62 154l225 235h-343v-500h56v-111h-223v111h56v778h-56v111zM445 139q-44 0 -75 -28l-5 -6h-1q-30 -32 -30 -77q0 -46 32 -78.5
t78.5 -32.5t79 32.5t32.5 79t-32.5 78.5t-78.5 32z" />
    <glyph glyph-name="z" unicode="z" 
d="M226 806q17 0 33 -3q64 -11 113.5 -55.5t65.5 -109.5v-1q6 -23 17 -72l9 -42q8 -38 26 -120t22 -104q58 -266 73 -311q14 -42 37 -58q17 -13 45 -13v-111q-64 0 -110 34q-52 37 -78 113q-10 30 -27 105q-7 -17 -13 -30q-39 -90 -99.5 -142t-131.5 -52q-39 0 -77 17
t-67 50q-64 74 -64 206q0 129 119 256q7 8 16 17q-48 21 -83 61.5t-46 93.5q-20 89 28.5 166.5t136.5 98.5q28 6 55 6zM219 695q-11 0 -22 -3q-45 -11 -69 -49t-14 -83t48 -69.5t83 -15.5h1q13 3 25 9q7 4 15 9q3 2 16 11q25 16 47 26q-13 59 -19 81q-9 39 -40.5 62
t-70.5 22zM371 407q-110 -55 -171 -120q-42 -45 -65.5 -93t-23.5 -87q0 -91 37 -133q25 -29 60 -29q26 0 64 33t66 95q60 134 33 334z" />
  </font>
</defs>
</svg>
