<svg width="500.0" height="230.0" xmlns="http://www.w3.org/2000/svg">
<line x1="50.0" y1="115.0" x2="50.0" y2="15.0" style="stroke:#c13434;stroke-width:5"/>
<line x1="50.0" y1="115.0" x2="150.0" y2="115.0" style="stroke:#c13434;stroke-width:5"/>
<line x1="50.0" y1="215.0" x2="50.0" y2="115.0" style="stroke:#c13434;stroke-width:5"/>
<line x1="150.0" y1="115.0" x2="150.0" y2="215.0" style="stroke:#345ec3;stroke-width:5"/>
<line x1="150.0" y1="115.0" x2="250.0" y2="115.0" style="stroke:#345ec3;stroke-width:5"/>
<line x1="250.0" y1="115.0" x2="250.0" y2="15.0" style="stroke:#c13434;stroke-width:5"/>
<line x1="250.0" y1="115.0" x2="250.0" y2="215.0" style="stroke:#345ec3;stroke-width:5"/>
<line x1="250.0" y1="115.0" x2="350.0" y2="115.0" style="stroke:#c13434;stroke-width:5"/>
<line x1="350.0" y1="115.0" x2="350.0" y2="15.0" style="stroke:#c13434;stroke-width:5"/>
<line x1="350.0" y1="115.0" x2="350.0" y2="215.0" style="stroke:#345ec3;stroke-width:5"/>
<line x1="350.0" y1="115.0" x2="450.0" y2="115.0" style="stroke:#c13434;stroke-width:5"/>
<line x1="350.0" y1="215.0" x2="421.0" y2="144.0" style="stroke:#345ec3;stroke-width:5"/>
<line x1="450.0" y1="115.0" x2="450.0" y2="15.0" style="stroke:#345ec3;stroke-width:5"/>
<circle cx="50.0" cy="15.0" r="5.0" stroke="white" stroke_width="15" fill="#282828"/>
<circle cx="50.0" cy="115.0" r="5.0" stroke="white" stroke_width="15" fill="#282828"/>
<circle cx="50.0" cy="215.0" r="5.0" stroke="white" stroke_width="15" fill="#282828"/>
<circle cx="150.0" cy="115.0" r="5.0" stroke="white" stroke_width="15" fill="#282828"/>
<circle cx="150.0" cy="215.0" r="5.0" stroke="white" stroke_width="15" fill="#282828"/>
<circle cx="250.0" cy="15.0" r="5.0" stroke="white" stroke_width="15" fill="#282828"/>
<circle cx="250.0" cy="115.0" r="5.0" stroke="white" stroke_width="15" fill="#282828"/>
<circle cx="250.0" cy="215.0" r="5.0" stroke="white" stroke_width="15" fill="#282828"/>
<circle cx="350.0" cy="15.0" r="5.0" stroke="white" stroke_width="15" fill="#282828"/>
<circle cx="350.0" cy="115.0" r="5.0" stroke="white" stroke_width="15" fill="#282828"/>
<circle cx="350.0" cy="215.0" r="5.0" stroke="white" stroke_width="15" fill="#282828"/>
<circle cx="421.0" cy="144.0" r="5.0" stroke="white" stroke_width="15" fill="#282828"/>
<circle cx="450.0" cy="15.0" r="5.0" stroke="white" stroke_width="15" fill="#282828"/>
<circle cx="450.0" cy="115.0" r="5.0" stroke="white" stroke_width="15" fill="#282828"/>
<rect x="0" y="205.0" width="500.0" height="20.0" fill="#FFFFFF"/>
</svg>
