<?xml version="1.0" standalone="no"?>
<!DOCTYPE svg PUBLIC "-//W3C//DTD SVG 1.1//EN" "http://www.w3.org/Graphics/SVG/1.1/DTD/svg11.dtd" >
<svg xmlns="http://www.w3.org/2000/svg" xmlns:xlink="http://www.w3.org/1999/xlink" version="1.1">
<metadata>
Created by FontForge 20170731 at Mon Apr 20 10:34:33 2009
 By Aleksey,,,
Glyphs that appear at hexadecimal unicode locations 0041-005A, 0061-007A and in the range 00C0-00FF are copyright 2008 Vinci LLC.
</metadata>
<defs>
<font id="VinciFirenzeArgam" horiz-adv-x="476" >
  <font-face 
    font-family="Vinci Firenze Argam"
    font-weight="400"
    font-stretch="normal"
    units-per-em="1000"
    panose-1="2 2 5 2 4 5 6 2 4 3"
    ascent="678"
    descent="-322"
    x-height="604"
    cap-height="604"
    bbox="-21.5 -310 968 758"
    underline-thickness="50"
    underline-position="-150"
    unicode-range="U+0020-2212"
  />
<missing-glyph horiz-adv-x="190" 
 />
    <glyph glyph-name=".notdef" horiz-adv-x="190" 
 />
    <glyph glyph-name=".null" horiz-adv-x="0" 
 />
    <glyph glyph-name="nonmarkingreturn" horiz-adv-x="333" 
 />
    <glyph glyph-name="space" unicode=" " horiz-adv-x="190" 
 />
    <glyph glyph-name="exclam" unicode="!" horiz-adv-x="299" 
d="M201 616q5 0 11.5 -2t7.5 -7q0 -6 -2 -28.5t-5 -57t-6.5 -76.5t-7.5 -86.5l-8 -89t-7 -81.5q-2 -1 -6.5 -0.5t-10 1.5t-10 2.5t-5.5 3.5q-5 51 -11 111.5t-12 115.5t-10.5 97.5t-5.5 58.5q-1 5 3.5 14t9.5 11q6 2 16.5 4t22 4t21.5 3.5t15 1.5zM171 98q10 0 19.5 -3
t16.5 -10q11 -10 14.5 -21.5t3.5 -21.5q0 -7 -4 -18.5t-12 -19.5q-8 -9 -19.5 -13t-23.5 -4q-8 0 -18.5 3t-18.5 11q-15 18 -15 41q0 11 4 21.5t12 19.5q8 8 19.5 11.5t21.5 3.5z" />
    <glyph glyph-name="quotedbl" unicode="&#x22;" horiz-adv-x="302" 
d="M255 626q0 -21 -2 -47t-5 -50.5t-6.5 -43.5t-6.5 -26q-5 -16 -12.5 -25.5t-14.5 -15.5q-1 -1 -5.5 -1.5t-5.5 0.5q0 30 -1.5 63t-3 62.5t-4.5 52.5t-6 32q2 3 10.5 9.5t18.5 13t19 11.5t12 5h9q2 -4 3 -15.5t1 -24.5zM120 619q0 -21 -2 -47.5t-5 -51t-6 -43.5t-6 -25
q-6 -17 -13.5 -26t-13.5 -15q-1 -1 -6 -1.5t-5 0.5q0 30 -1.5 64t-3.5 64.5t-4.5 54t-5.5 32.5q1 2 9 7.5t17.5 11.5t18.5 10.5t14 5.5l9 -1q2 -5 3 -16t1 -24z" />
    <glyph glyph-name="numbersign" unicode="#" horiz-adv-x="453" 
d="M318 580q1 1 6 3t11 4t11 3.5t7 1.5q3 0 6 -3l-31 -139q0 -3 3 -3q27 0 52.5 0.5t42.5 2.5q1 -3 -2 -15t-5 -15q-17 -19 -39.5 -24.5t-60.5 -6.5q-5 0 -5 -4l-22 -104q0 -4 3 -4h48.5t43.5 4q1 -2 -1 -13t-4 -15q-19 -22 -42.5 -29.5t-58.5 -7.5q-2 0 -4 -5
q-3 -14 -7 -34.5t-8 -41.5t-8 -39l-6 -27q0 -2 -2 -2.5t-4 -0.5q-1 0 -5.5 2.5t-9.5 6t-9 6.5t-4 4q2 10 6 27t8 36.5t8 37.5t6 30h-93q-4 0 -4 -4l-33 -144q-1 -2 -3.5 -2.5t-3.5 -0.5q-2 1 -6.5 3.5t-9 6t-8 6.5t-3.5 4q6 29 14.5 64.5t14.5 66.5q-78 0 -91 3q-1 2 1.5 12
t6.5 21t7.5 20t5.5 10q17 -2 38.5 -3.5t44.5 -1.5l25 112q-8 0 -21 0.5t-26.5 1t-25 1t-15.5 1.5q-1 3 1.5 12t6 18.5t7.5 18t7 9.5q17 -2 37.5 -2.5t40.5 -0.5l25 122q0 1 5 3t11.5 4t12 4t7.5 2q3 0 5 -4l-27 -126q0 -5 3 -5l90 -1zM188 389q-5 0 -7 -4l-22 -103
q0 -1 0.5 -3t2.5 -2h91l24 112h-89z" />
    <glyph glyph-name="dollar" unicode="$" 
d="M143 472q0 -22 6.5 -38.5t18 -29t26.5 -23t32 -20.5q4 -2 6 3l20 203q0 5 -3 5q-28 -2 -48 -10.5t-33 -22.5t-19 -31.5t-6 -35.5zM232 37q0 -4 2 -4q22 0 41.5 6t35 18t25 31t10.5 45q1 41 -23 67.5t-65 49.5q-5 2 -5 -3zM192 -6q0 5 -3 5q-19 1 -39 4.5t-37.5 8t-31 8.5
t-20.5 7q-3 5 -7 21.5t-7 36.5t-5.5 39.5t-3.5 31.5q1 1 5 3t9 3.5t9.5 2.5t6.5 0q10 -36 22 -59t27 -37t33.5 -21.5t42.5 -12.5q2 -1 3.5 0t1.5 3l22 223q0 5 -4 7q-32 17 -58.5 34t-46 37.5t-30.5 45.5t-11 58q0 38 14 67.5t38 49.5t57.5 30.5t72.5 10.5q3 0 5 3l7 73
q1 1 6 2.5t11 2t11.5 1t7.5 0.5l-9 -79q0 -4 4 -4q20 -2 37 -4t29 -4l30 -4t24 -3q-5 -21 -9.5 -54.5t-8.5 -66.5q-1 -2 -5.5 -3t-9.5 -1.5t-9 0t-5 2.5q-1 29 -6 48.5t-14.5 31.5t-23.5 18t-33 9q-4 0 -4 -4l-23 -216q0 -5 4 -7q30 -15 58.5 -31t51 -35.5t36 -45.5
t13.5 -60q0 -33 -12 -62.5t-36 -52t-61 -37.5t-86 -18q-5 0 -5 -5l-8 -82q-5 -2 -17.5 -4t-17.5 0z" />
    <glyph glyph-name="percent" unicode="%" horiz-adv-x="698" 
d="M130 12q103 153 201.5 300.5t201.5 300.5q6 4 20.5 7t19.5 4q6 -2 6 -9q-7 -9 -26 -37t-46.5 -68.5t-61 -90.5t-68.5 -102.5t-69.5 -105t-65 -97.5t-54.5 -80t-37 -53q-1 -2 -3.5 -2t-4.5 1q-3 3 -8 15t-5 17zM542 347q27 0 48 -12.5t35.5 -33.5t22 -47.5t7.5 -54.5
q0 -33 -5.5 -57.5t-14 -42t-18 -29t-17.5 -18.5q-27 -23 -52 -32.5t-53 -9.5q-27 0 -48 12t-35.5 32t-22.5 46.5t-8 55.5q0 53 13 85.5t36 56.5q20 19 49.5 34t62.5 15zM513 309q-19 0 -32 -11t-20.5 -28.5t-11 -38.5t-3.5 -40q0 -39 7 -66t18.5 -43.5t25.5 -23.5t28 -7
q21 0 35 9.5t22.5 25.5t12 37t3.5 43q0 27 -5 52.5t-15 46t-26.5 32.5t-38.5 12zM205 599q28 0 49 -13t35 -33.5t21 -46.5t7 -52q0 -32 -5.5 -56.5t-14 -43t-18 -31t-18.5 -19.5q-27 -23 -51 -32.5t-53 -9.5q-26 0 -47.5 12t-36.5 32t-23 47.5t-8 57.5q0 51 13.5 83.5
t36.5 55.5q20 20 50.5 34.5t62.5 14.5zM174 562q-20 0 -32.5 -11.5t-20 -28.5t-10.5 -38.5t-3 -40.5q0 -38 7 -65t18.5 -43.5t25.5 -24t29 -7.5q21 0 35 9.5t22 25t11.5 36t3.5 42.5q0 27 -5 53t-15.5 47t-26.5 33.5t-39 12.5z" />
    <glyph glyph-name="ampersand" unicode="&#x26;" horiz-adv-x="711" 
d="M286 622q28 0 51.5 -9t40.5 -25.5t26.5 -38.5t9.5 -48q0 -20 -6.5 -37t-21 -34t-38.5 -36t-60 -43q-4 -2 -1 -5q10 -11 31 -29.5t47 -40.5t54.5 -44.5t54.5 -41.5q4 -4 6 0q16 23 31 56t25 63q4 10 3.5 21t-14.5 16q-8 3 -21.5 6t-29.5 5q-2 0 -2.5 4.5t-0.5 9.5t1 9.5
t3 5.5q11 0 37 -1.5t58 -1.5q44 0 69 1.5t33 1.5q2 -3 2.5 -15t-3.5 -15l-22 -4t-18 -4q-16 -5 -24.5 -13t-15.5 -19q-27 -47 -46.5 -83.5t-37.5 -60.5q-1 -1 0 -3.5t2 -2.5q21 -16 45 -33.5t45 -34t37.5 -30.5t23.5 -22q0 -8 -5 -20t-11.5 -24.5t-13.5 -23t-10 -14.5
q-2 -2 -8 -2.5t-8 1.5q-5 9 -14.5 19t-15.5 16l-120 96q-1 2 -4 0q-51 -62 -104 -86t-105 -24q-43 0 -78 13t-59.5 36.5t-38 56t-13.5 70.5q0 20 6 38.5t21.5 37.5t41.5 41t65 49q3 3 1 5q-25 29 -41 61t-16 76q0 34 13 62.5t34.5 48.5t49.5 31.5t59 11.5zM211 304
q-1 0 -3 0.5t-3 -0.5q-29 -26 -50 -52.5t-21 -69.5q0 -31 11.5 -56t32 -43t47.5 -27.5t58 -9.5q36 0 73.5 16.5t64.5 48.5q3 5 1 7q-26 22 -54.5 45.5t-56.5 47.5t-53.5 47.5t-46.5 45.5zM268 590q-29 0 -50.5 -23.5t-21.5 -68.5q0 -34 17 -67t47 -60q1 -1 3 -1.5t4 1.5
q38 29 58.5 59.5t20.5 68.5q0 15 -5 31.5t-14.5 29.5t-24.5 21.5t-34 8.5z" />
    <glyph glyph-name="quotesingle" unicode="'" horiz-adv-x="169" 
d="M122 622q0 -21 -2 -48t-5 -52t-6.5 -44.5t-6.5 -25.5q-5 -14 -12.5 -24.5t-14.5 -16.5q-2 -1 -6 -1.5t-6 0.5q0 30 -1 64t-3.5 64.5t-5 54t-5.5 32.5q1 2 9.5 7.5t18.5 11.5t19.5 11t13.5 5h4.5t4.5 -1q2 -4 3 -14t1 -23z" />
    <glyph glyph-name="parenleft" unicode="(" horiz-adv-x="405" 
d="M87 267q0 86 19.5 160t53 136t78 111t94.5 84q4 -1 11.5 -10t5.5 -14q-41 -37 -75.5 -80.5t-60.5 -98.5t-40.5 -122t-14.5 -150q0 -144 46 -265.5t135 -200.5q1 -5 -7 -14.5t-12 -9.5q-25 11 -64.5 48.5t-77 98t-64.5 143.5t-27 184z" />
    <glyph glyph-name="parenright" unicode=")" horiz-adv-x="405" 
d="M318 283q0 -86 -19.5 -160.5t-53 -136t-78 -110t-94.5 -83.5q-4 1 -11.5 10.5t-6.5 13.5q41 37 76 81t60.5 98t40 121t14.5 151q0 142 -43 261.5t-138 204.5q-1 4 7.5 13.5t11.5 10.5q17 -8 41 -27.5t50 -49.5t51.5 -70.5t46 -90.5t33 -109.5t12.5 -127.5z" />
    <glyph glyph-name="asterisk" unicode="*" horiz-adv-x="362" 
d="M209 548q6 2 20.5 7t31.5 12t35.5 14.5t33.5 13.5q2 0 4.5 -3.5t1.5 -5.5l-7 -17.5t-11 -16.5q-10 -5 -23 -11t-26.5 -11l-27 -10t-23.5 -9q6 -6 20.5 -18t30.5 -24t31 -22t24 -14q1 -2 -1.5 -6t-4.5 -6q-5 -2 -20.5 -3.5t-23.5 2.5q-29 15 -48 30t-34 25
q-3 -14 -7 -33.5t-7.5 -38.5t-6 -35t-2.5 -22q-2 -1 -7 -1q-3 1 -8 4.5t-9.5 9t-7.5 12t-2 13.5q1 9 3 21.5t4 26.5t5 28.5t5 26.5q-5 -2 -22 -8t-36.5 -12.5t-38.5 -13t-29 -9.5q-2 0 -3.5 2.5t-1.5 4.5q2 3 5.5 9t8 11.5t8.5 10t7 5.5q14 6 23.5 9.5t18.5 7t20 7.5t27 10
q-5 4 -17 14.5t-25 23.5l-25 25t-18 19q-3 2 -3 6t2 5q9 7 21.5 12t16.5 5q12 -15 34.5 -37.5t42.5 -39.5q7 39 14 70t11 39q1 2 6.5 4t13 4t14 3t9.5 1q2 0 3 -2t1 -4q-4 -11 -9 -28.5t-9.5 -36.5t-8 -34.5t-4.5 -21.5z" />
    <glyph glyph-name="plus" unicode="+" horiz-adv-x="547" 
d="M503 255q0 -2 -2 -8.5t-4.5 -13.5t-5 -13t-5.5 -6q-4 -1 -23.5 -1h-46.5h-57t-55 -1q-3 0 -5 -3.5t-2 -5.5v-54.5v-60.5v-50t-1 -24q0 -3 -6 -6t-14 -6t-15.5 -5.5t-10.5 -2.5q-2 0 -4.5 0.5t-3.5 1.5v25.5v51v67v72.5q-27 0 -51 -0.5t-47 -0.5h-47h-52q-1 0 -1 4v6
q0 3 1.5 10t3.5 14.5t4 14t3 8.5q8 -2 39.5 -1.5t76.5 0.5h70v68v40.5t-0.5 38t-1 31t-0.5 18.5q4 1 11.5 3.5t16 4t15 3t8.5 1.5q3 0 4.5 -5t1.5 -30v-29v-40v-46.5v-47.5q0 -3 1.5 -6.5t4.5 -3.5h199q1 -1 1 -6v-6z" />
    <glyph glyph-name="comma" unicode="," horiz-adv-x="204" 
d="M-1 -162q-1 1 -2 3t0 3q35 32 59.5 72t23.5 82q-1 18 -9 38.5t-21 40.5q1 4 9 13t18 18.5t19 17.5t14 10q2 2 9.5 2t9.5 -2q8 -6 16.5 -27.5t9.5 -52.5q1 -35 -11 -69.5t-31.5 -64.5t-42.5 -54t-45 -38q-5 -1 -13 2t-13 6z" />
    <glyph glyph-name="hyphen" unicode="-" horiz-adv-x="286" 
d="M50 234q18 0 47 0.5t59 1.5t55.5 2t36.5 1v-10q0 -4 -2 -11.5l-4 -15t-4.5 -13.5t-4.5 -7t-16 -2t-34 -2t-43 -1.5t-44 -1t-37 -0.5h-21l-1 9q0 5 1.5 13.5t3.5 16.5t4 14t4 6z" />
    <glyph glyph-name="period" unicode="." horiz-adv-x="204" 
d="M103 105q22 0 37 -15q11 -10 14.5 -22t3.5 -23q0 -8 -4 -19.5t-12 -19.5q-8 -9 -19.5 -13t-23.5 -4q-8 0 -18 3.5t-18 11.5q-17 17 -17 43q0 22 18 42q18 16 39 16z" />
    <glyph glyph-name="slash" unicode="/" horiz-adv-x="455" 
d="M403 685q5 -2 5 -7q-1 -5 -13 -36.5t-31 -80.5t-43.5 -111.5t-50.5 -128.5t-53 -132t-50 -122.5t-42 -98.5t-29 -61q-2 -3 -7.5 -7t-13 -7.5t-14.5 -6t-10 -3.5q-6 0 -8 7q19 40 47.5 107.5t61 147.5t65.5 164t61.5 157.5t49.5 128.5t29 76q0 1 6 3.5t14 5t15.5 4
t10.5 1.5z" />
    <glyph glyph-name="zero" unicode="0" 
d="M255 608q24 0 43 -5.5t34 -13.5t25 -17t16 -15q12 -14 24.5 -34.5t23 -50t17 -68.5t6.5 -88q0 -100 -23.5 -168t-68.5 -110q-17 -16 -34 -25.5t-33 -15t-30 -7.5t-24 -2q-36 0 -64.5 10.5t-49.5 28.5q-36 32 -60.5 97.5t-24.5 165.5q0 75 16.5 139t58.5 112
q31 35 69.5 51t78.5 16zM231 570q-23 0 -37.5 -9t-24.5 -21q-23 -28 -36 -85.5t-13 -125.5q0 -150 33.5 -225t96.5 -75q17 0 31.5 6t23.5 17q22 27 36 83.5t14 152.5q0 140 -33.5 211t-90.5 71z" />
    <glyph glyph-name="one" unicode="1" 
d="M386 25q2 -2 0.5 -14t-4.5 -14q-20 0 -53 1.5t-81 1.5q-50 0 -87 -1.5t-57 -1.5q-3 2 -3 14t3 15q17 2 32.5 3.5t28.5 3.5q23 5 30 17.5t7 37.5q2 35 2.5 93t0.5 123q0 36 -0.5 68.5t-1 59t-1 45t-0.5 25.5q-2 11 -6.5 19.5t-20.5 10.5q-9 1 -25.5 2t-32.5 1
q-2 3 -1 13.5t3 12.5q19 2 41.5 7t44.5 11.5t41 14t32 14.5q3 1 7.5 -0.5t5.5 -3.5q-2 -12 -2.5 -25t-1.5 -37.5t-1 -66.5v-111v-59.5t0.5 -82t1 -79.5t1.5 -51q2 -26 8 -39.5t26 -18.5q14 -3 27.5 -4.5t35.5 -4.5z" />
    <glyph glyph-name="two" unicode="2" 
d="M176 535q-35 0 -66 -19t-61 -56q-2 0 -5.5 2.5t-7 6t-5.5 6.5t-2 5q10 19 28.5 41.5t42.5 42t53.5 32t63.5 12.5t63 -13t50.5 -36t33.5 -55.5t12 -72.5q0 -54 -29.5 -107.5t-81.5 -110.5q-20 -23 -35.5 -40.5t-29.5 -32.5t-27 -28.5t-27 -28.5q-2 -2 -0.5 -5t3.5 -3
q13 -2 38 -3t54 -1.5t58 -0.5h50q7 0 15 3t17 12.5t19.5 27t24.5 46.5q5 2 14.5 -2t11.5 -9q-3 -12 -9 -32.5t-13.5 -42t-16 -41t-14.5 -28.5q-2 -3 -12 -5t-36 -2h-57.5t-68 1t-71.5 1.5t-67 0.5q-13 0 -27 -0.5t-23 -1.5q-2 2 -3 10t-1 12q24 22 44.5 41t40.5 39.5
t40.5 44.5t46.5 57q41 53 63 105t22 100q0 24 -6.5 47t-20 41t-35 29t-51.5 11z" />
    <glyph glyph-name="three" unicode="3" 
d="M234 608q31 0 56.5 -11t43.5 -29.5t28.5 -43.5t10.5 -53q0 -25 -8 -45t-20.5 -36.5t-28.5 -29.5t-31 -23q-3 -3 0 -5q25 -8 50 -20.5t45.5 -31.5t33 -45t12.5 -61q0 -55 -28 -98.5t-71 -71.5q-35 -23 -72.5 -34.5t-80.5 -11.5q-55 0 -87 16q-11 6 -17 13t-14 22
q-6 14 -11 35.5t-7 38.5q0 2 3.5 4.5t7.5 4.5t8 3t5 1q25 -54 61 -77q34 -21 92 -21q22 0 44.5 7.5t40 23.5t28.5 40.5t11 58.5q0 31 -10.5 58t-31 47t-49 31t-63.5 11q-6 0 -15.5 -0.5t-20.5 -2.5q-1 1 0.5 7t4 12.5t5 12t4.5 6.5q72 15 101.5 48t29.5 76q0 45 -26.5 76
t-74.5 31q-33 0 -61.5 -15t-55.5 -42q-2 0 -4.5 3t-4.5 7.5t-4 8.5t-2 6q13 15 31 32.5t40.5 32.5t48 24.5t53.5 9.5z" />
    <glyph glyph-name="four" unicode="4" 
d="M458 171q-25 0 -50 0.5t-51 0.5q-3 0 -5 -6l2 -192q-20 -1 -46 -3.5t-40 -6.5q1 50 1.5 101t0.5 102q0 5 -4 5h-253q-1 3 0 16t3 16q16 23 41.5 58.5t55 75.5t60 81.5t57 77.5t46 63t26.5 38q2 1 9.5 2t15.5 2.5t15 2t9 0.5v-368q0 -2 1.5 -4t3.5 -2q39 0 66 0.5t49 1.5
q-5 -14 -9 -32.5t-4 -29.5zM88 231q15 -1 37 -1.5t49 -0.5h92q4 0 4 6l4 264q0 2 -1.5 2t-2.5 -1q-7 -9 -21.5 -30t-33.5 -47.5t-40 -56.5t-39 -56t-31.5 -46.5t-17.5 -27.5q-3 -5 1 -5z" />
    <glyph glyph-name="five" unicode="5" 
d="M369 611q2 0 7 -4t4 -7q-3 -12 -15.5 -33.5t-27.5 -35.5t-34 -14q-34 0 -64 2.5t-43 3.5q-5 0 -8 -3.5t-5 -5.5q-8 -16 -18.5 -41t-15.5 -41q-2 -5 0 -9t4 -5q17 -9 41.5 -21.5t50.5 -26.5t51 -28.5t43 -27.5q43 -31 62 -64.5t19 -80.5q0 -48 -22 -86.5t-56 -66.5
t-75.5 -43t-81.5 -15q-51 0 -82.5 15.5t-48.5 33.5q-5 5 -9.5 14.5t-4.5 17.5t6 26t12 26q1 2 6 3.5t7 0.5q10 -18 25.5 -34.5t35 -29t43.5 -20.5t53 -8q51 0 82.5 31t31.5 82q0 22 -4 41t-13.5 35.5t-26 32.5t-40.5 33q-21 15 -45.5 28.5t-47 25t-41 21t-28.5 16.5
q-2 3 -3 14t1 16q6 22 18.5 54t26.5 63t26.5 56.5t20.5 36.5q5 4 10 8.5t12 3.5q8 0 21 -1t28.5 -2t31.5 -1.5t30 -0.5q19 0 29 3.5t21 11.5z" />
    <glyph glyph-name="six" unicode="6" 
d="M436 623q-67 -32 -115 -67t-81 -69.5t-53.5 -67.5t-31.5 -62q-2 -2 -0.5 -4t3.5 -1q35 17 70 30t62 13q30 0 58 -13.5t49.5 -37.5t34 -57.5t12.5 -72.5q0 -65 -27.5 -114t-79.5 -81q-21 -14 -52 -23t-54 -9q-51 0 -88 18.5t-61 49.5t-35.5 71t-11.5 82q0 69 27 135
t77.5 124.5t122.5 105.5t162 77q4 -2 9 -12.5t3 -14.5zM228 339q-18 0 -37.5 -5.5t-33.5 -15.5q-8 -4 -14.5 -11.5t-9.5 -18.5q-5 -17 -7 -33.5t-2 -30.5q0 -50 11 -86.5t29.5 -61.5t43 -37t52.5 -12q46 0 73.5 37.5t27.5 104.5q0 43 -10.5 75t-29 53t-42.5 31.5t-51 10.5z
" />
    <glyph glyph-name="seven" unicode="7" 
d="M444 598q2 -1 3.5 -5.5t0.5 -6.5q-8 -27 -29 -78t-49 -113t-59 -129t-58.5 -126t-48 -104t-26.5 -63q-1 -2 -3 -3t-3 -1q-7 1 -20 6.5t-17 10.5q-2 2 -1.5 6.5t1.5 6.5q13 29 34.5 72.5t46.5 93.5t50.5 102.5t48 99.5t39.5 85t23 58q0 5 -3 5q-15 0 -49 0.5t-71.5 0.5
t-72.5 -1t-53 -2q-11 -1 -19 -3.5t-15.5 -10.5t-16 -22.5t-20.5 -39.5q-3 -2 -14.5 1.5t-13.5 7.5q11 33 21.5 76.5t16.5 81.5q11 -4 33.5 -6t45.5 -2h193h56.5t48.5 2z" />
    <glyph glyph-name="eight" unicode="8" 
d="M253 608q33 0 61.5 -11t49 -30t32.5 -46t12 -58q0 -18 -5 -34t-17 -32t-32.5 -33.5t-50.5 -38.5q-3 -3 0 -5q34 -21 58 -40t39 -37.5t22 -39.5t7 -47q0 -33 -16 -63.5t-43 -53.5t-62.5 -36.5t-74.5 -13.5q-51 0 -86.5 14.5t-57 36t-31.5 48t-10 50.5q0 17 4 32.5
t17.5 32.5t37.5 38t65 50q6 4 1 6q-58 39 -79 75.5t-21 75.5q0 35 16 66t42 52q24 19 55 30.5t67 11.5zM233 574q-41 0 -64.5 -25t-23.5 -67q0 -47 30.5 -77t92.5 -65q5 -4 9 0q38 32 50 60.5t12 54.5q0 54 -29.5 86.5t-76.5 32.5zM254 23q38 0 67 23t29 69q0 25 -7.5 45
t-25 38.5t-44.5 37t-66 40.5q-1 1 -4 1t-5 -1q-40 -34 -57.5 -62t-17.5 -63q0 -25 9 -48t26.5 -41t41.5 -28.5t54 -10.5z" />
    <glyph glyph-name="nine" unicode="9" 
d="M76 -54q-4 1 -9 12t-4 15q60 28 104 60t76.5 68t54 75t36.5 80q1 2 -0.5 3.5t-3.5 -0.5q-17 -11 -36 -20t-38 -15.5t-37 -10.5t-33 -4q-30 0 -58 13.5t-49 38t-34 58t-13 73.5q0 52 24 99t69 78q26 17 58 27.5t65 10.5q46 0 81.5 -19t60 -51t37.5 -75.5t13 -91.5
q0 -75 -28 -141.5t-77.5 -121.5t-116 -96t-142.5 -65zM220 570q-48 0 -77.5 -38t-29.5 -99q0 -43 11.5 -74t30.5 -51t44 -29.5t52 -9.5q23 0 42.5 6t33.5 15q6 4 11 11t7 12q4 18 5 32t1 27q0 42 -9.5 78t-27 62.5t-41.5 42t-53 15.5z" />
    <glyph glyph-name="colon" unicode=":" horiz-adv-x="269" 
d="M135 104q22 0 37 -15q11 -10 14.5 -21.5t3.5 -22.5q0 -8 -3.5 -19.5t-11.5 -19.5q-17 -17 -43 -17q-9 0 -18.5 3.5t-17.5 11.5q-17 17 -17 42q0 24 18 42q16 16 38 16zM135 359q23 0 37 -14q11 -10 14.5 -22t3.5 -23q0 -8 -3.5 -19.5t-11.5 -19.5q-17 -17 -43 -17
q-8 0 -18 3.5t-18 11.5q-17 17 -17 43q0 24 18 41q16 16 38 16z" />
    <glyph glyph-name="semicolon" unicode=";" horiz-adv-x="269" 
d="M136 359q22 0 36 -14q11 -10 15 -22t4 -23q0 -8 -4 -19.5t-12 -19.5q-8 -10 -19.5 -13.5t-23.5 -3.5q-8 0 -18 3.5t-18 12.5q-10 8 -13.5 18.5t-3.5 23.5q0 24 18 41q18 16 39 16zM27 -162q-1 1 -2.5 3t-0.5 3q36 32 61.5 72t24.5 85q0 19 -9.5 39t-20.5 37q1 4 9 13
t18 18.5t19.5 17.5t14.5 10q2 2 9.5 1.5t9.5 -2.5q5 -4 14.5 -24.5t11.5 -54.5q1 -33 -11.5 -67t-32 -64.5t-43.5 -55.5t-46 -39q-5 -1 -13 2t-13 6z" />
    <glyph glyph-name="less" unicode="&#x3c;" horiz-adv-x="547" 
d="M463 404q-6 -5 -26.5 -16.5t-49 -26.5t-62 -33t-65 -34t-58 -30t-41.5 -21q-2 -1 -1.5 -3.5t1.5 -2.5q8 -5 33 -18t58.5 -30t71 -36t70 -36.5t56.5 -31t30 -19.5q1 -2 -0.5 -8t-4.5 -13.5t-6.5 -15t-5.5 -10.5q-3 -3 -8 -3q-10 8 -36.5 23t-62.5 34t-77.5 40.5t-82 41.5
t-75.5 36t-58 26q0 2 1 8t3 12.5t4.5 11.5t4.5 6q21 10 56.5 28t76.5 39t83.5 43.5t79 42.5t63 35t34.5 22q4 0 6 -5q0 -4 -1 -13t-2.5 -18t-4 -16.5t-4.5 -8.5z" />
    <glyph glyph-name="equal" unicode="=" horiz-adv-x="547" 
d="M46 302q-2 0 -3 3.5t0 5.5q0 3 2 10.5l4 15t4 14t3 8.5q8 -2 39 -2h76h331q4 -4 2 -10q0 -2 -2 -9t-4.5 -14.5t-5.5 -13.5t-5 -7zM47 121q-2 0 -2.5 3.5t-0.5 5.5q0 3 1.5 10t3.5 15t4 14.5t3 9.5q8 -2 39 -2.5t76 -0.5h330q2 -2 2 -5v-5q0 -3 -2.5 -10t-5 -14.5
t-5.5 -13.5t-5 -6z" />
    <glyph glyph-name="greater" unicode="&#x3e;" horiz-adv-x="547" 
d="M83 77q6 4 26.5 15.5t49 27t62 33t65 33.5t58 29.5t41.5 21.5q2 2 1.5 4.5t-1.5 2.5q-8 5 -33 18t-58.5 30t-71 36t-70 36.5t-56.5 31t-30 19.5q-2 1 0 7t5 13.5t6.5 15t5.5 10.5q1 2 3.5 3t4.5 0q10 -7 36.5 -22t62.5 -34.5t77.5 -41t82 -41t75.5 -36.5t58 -26
q0 -2 -1 -7.5t-3 -12t-4.5 -12t-4.5 -6.5q-21 -10 -56.5 -28t-76.5 -39t-83.5 -43.5t-79 -42t-63 -35t-34.5 -21.5q-4 0 -6 4q0 4 1 13t2.5 18t4 16.5t4.5 9.5z" />
    <glyph glyph-name="question" unicode="?" horiz-adv-x="365" 
d="M174 280q0 -8 10 -24t27 -31q2 -2 1.5 -6.5t-2.5 -6.5q-5 -5 -20.5 -13t-23.5 -10q-11 -4 -21 0q-21 10 -33.5 28t-12.5 37q0 9 3 18t8 14q6 6 21.5 18.5t33.5 27t35 27.5t26 21q23 20 23 47q0 17 -9 34t-25.5 32t-39.5 26.5t-52 16.5q-8 2 -17.5 2.5t-14.5 1.5t-8.5 5.5
t-3.5 8.5q0 8 8.5 25t16.5 26q3 4 12 7.5t21 3.5q32 0 64 -13.5t55 -31.5q29 -23 44 -53t15 -59q0 -24 -7 -42t-15 -27t-22 -20t-29 -22t-29.5 -22t-24.5 -20q-6 -5 -10 -11.5t-4 -14.5zM179 98q23 0 37 -14q11 -10 14 -21t3 -22q0 -7 -3.5 -18t-11.5 -19q-8 -9 -20 -13
t-24 -4q-8 0 -18 3.5t-18 11.5q-15 15 -15 40q0 11 4 21.5t12 18.5q18 16 40 16z" />
    <glyph glyph-name="at" unicode="@" horiz-adv-x="840" 
d="M572 47q25 0 52.5 12.5t50.5 39.5t37.5 68.5t14.5 99.5q0 72 -21.5 125t-59 87.5t-87 51t-105.5 16.5q-28 0 -63 -8t-72 -26.5t-72 -49t-62.5 -76t-44 -106.5t-16.5 -141q0 -71 15.5 -123t41 -89t57.5 -59t65 -32q18 -5 38.5 -8t37.5 -1q2 -2 2 -8t-2 -9
q-12 -9 -32 -13.5t-40 -4.5q-15 0 -39.5 8t-52.5 25t-56.5 44t-52 64.5t-38 87t-14.5 111.5q0 93 32 172t88 139q66 71 147.5 109t172.5 38q74 0 129 -27t91 -69t54 -94t18 -102q0 -79 -28 -137.5t-69.5 -97t-90 -57.5t-89.5 -19q-23 0 -34.5 15.5t-7.5 53.5q2 17 4 33.5
t7 42.5q0 2 -1.5 2.5t-2.5 -1.5q-25 -35 -52 -62t-52 -46t-46.5 -29t-36.5 -10q-16 0 -26 10.5t-16 25.5t-8 32.5t-2 32.5q0 63 23.5 123.5t66.5 105.5q13 15 34.5 31t48 29.5t56.5 22.5t60 9q23 0 44.5 -2.5t39.5 -7.5q-10 -22 -15 -37.5t-10 -32.5q-6 -27 -13 -62.5
t-13 -70.5t-10 -64.5t-4 -44.5q0 -17 6 -28.5t23 -11.5zM344 66q49 0 126 113q11 16 17.5 33t12.5 41q3 10 6 24.5t6.5 28.5t7 26.5t6.5 18.5q-14 10 -57 10q-38 0 -68 -21t-52 -59q-20 -35 -29 -76t-9 -73q0 -33 9 -49.5t24 -16.5z" />
    <glyph glyph-name="A" unicode="A" 
d="M331 366q-15 -17 -36 -40.5t-33 -48.5q-14 -28 -19.5 -51.5t-5.5 -43.5q0 -45 33 -78q6 17 22 33q27 27 62.5 27.5t62.5 -26.5q28 -28 25 -61t-27 -57q-18 -18 -39.5 -24.5t-41.5 -1.5q-14 1 -29.5 4.5t-29.5 8.5q-19 7 -36.5 18t-31.5 26q-20 21 -31.5 48t-11.5 58
q0 60 46 121q14 18 29 33.5t29 30.5q13 14 25.5 26.5t23.5 26.5q14 17 19 35t5 38q0 21 -5.5 41t-16 35.5t-26.5 24.5t-37 9q-38 0 -59 -24.5t-32 -71.5q-7 -30 -9.5 -62.5t-3.5 -58.5v-128.5t0.5 -84.5t1 -50.5t1.5 -26.5q1 -18 5.5 -26t16.5 -14q12 -7 30 -8
q4 0 1.5 -11.5t-5.5 -14.5q-14 0 -32.5 1.5t-58.5 1.5q-15 0 -30.5 -0.5t-29 -1t-24 -1t-15.5 -0.5q-2 3 -2 13t2 13q10 2 24 3.5t20 5.5q8 5 11.5 10t4.5 15q0 5 0.5 21t1 38t1 48.5t0.5 53.5q1 63 1 140q1 29 4.5 59t14.5 60q12 33 36.5 66t50.5 53q23 17 51 25.5t55 8.5
t50.5 -8t40.5 -23t27 -35.5t10 -45.5q0 -26 -9.5 -50t-25.5 -44q-12 -16 -25 -30zM312 118q-5 -5 2.5 -25t22.5 -36q37 -38 55 -20q5 5 1 22t-24 37q-17 17 -34.5 22t-22.5 0z" />
    <glyph glyph-name="B" unicode="B" 
d="M474 23q4 0 1.5 -11.5t-5.5 -14.5q-14 0 -32.5 1.5t-58.5 1.5q-29 0 -53 -1.5t-34 -1.5q-2 3 -2 13t2 13q10 2 18 3.5t14 5.5q8 5 11.5 10t4.5 15q2 19 3 60.5t1 124.5q0 5 -3 2q-61 -43 -109.5 -82t-94.5 -84q-3 -3 -3 -7q1 -18 5.5 -26t16.5 -14q12 -7 30 -8
q4 0 1.5 -11.5t-5.5 -14.5q-14 0 -32.5 1.5t-58.5 1.5q-29 0 -53 -1.5t-34 -1.5q-2 3 -2 13t2 13q10 2 18 3.5t14 5.5q8 5 11.5 10t4.5 15q1 11 2 28.5t1.5 45.5t0.5 67.5v94.5v58t-0.5 67t-1 60t-1.5 37q-1 17 -6 31q-5 11 -16 21t-31 11q-3 0 -2 9t6 17q43 -2 88.5 -2.5
t89.5 2.5q2 -3 3 -10.5t-3 -15.5q-8 -2 -17 -3.5t-15 -5.5q-7 -5 -12.5 -18t-5.5 -30v-63.5t-1 -83.5q0 -6 4 -2q19 16 37 30.5t38 29.5q29 21 60.5 43t66.5 46q3 2 3 8q-2 13 -13 30t-39 19q-3 0 -2 9t6 17q43 -2 88.5 -2.5t89.5 2.5q2 -3 3 -10.5t-3 -15.5q-8 -2 -17 -3.5
t-15 -5.5q-7 -5 -12.5 -18t-5.5 -30v-43.5t-0.5 -57t-0.5 -62.5v-61v-91.5t0.5 -65.5t1 -43.5t1.5 -25.5q1 -18 5.5 -26t16.5 -14q12 -7 30 -8zM341 288q3 3 3 5v42v49t-0.5 49.5t-0.5 44.5q0 4 -3 1q-30 -20 -56.5 -39t-51.5 -37q-26 -19 -49.5 -38.5t-47.5 -39.5
q-4 -4 -4 -10v-18q0 -60 0.5 -101.5t0.5 -68.5q0 -5 4 -1q45 42 94 80.5t111 81.5z" />
    <glyph glyph-name="C" unicode="C" 
d="M410 289q0 -8 -2 -14q-1 -3 -2 -4q-1 1 -7.5 1.5t-10.5 0.5q-7 0 -16 0.5t-20 0.5q-22 1 -48 1h-55h-1q-14 -35 -20 -62.5t-6 -49.5q0 -25 8 -44q4 -10 9 -17t11 -14q4 -4 7.5 -7t7.5 -6q0 15 5.5 30.5t21.5 31.5q27 27 62.5 27.5t62.5 -26.5q28 -28 25 -61t-27 -57
q-31 -30 -68 -28q-39 0 -72 9q-17 5 -32.5 11.5t-28.5 17.5q-16 13 -27 35q-15 27 -15 65q0 29 8.5 64.5t28.5 80.5q-17 0 -33 -0.5t-30 -0.5q-12 0 -26 -0.5t-26.5 -1t-21 -1l-8.5 -0.5q-3 0 -9.5 7.5t-4.5 11.5q0 1 0.5 9t0.5 13q1 10 1 22.5v26.5q0 22 -0.5 47l-1 50
t-1.5 47.5t-2 39.5q0 11 -1 17t-1 15q0 10 3 18q1 4 3 9q11 -4 33.5 -6t45.5 -2h193h55.5t47.5 2h2v-1q4 -2 4 -8q3 -10 1 -14q-51 -68 -88 -124t-63 -104h36t32 1q35 0 50 3q5 0 5 1q1 0 2 -3q1 -2 2 -6t1 -11v-43zM352 515q-18 0 -55.5 0.5t-78.5 0.5t-78.5 -1t-56.5 -2
q-1 -11 -0.5 -22.5t0.5 -22.5v-78q1 -13 1 -23v-16q3 -1 9 -1q11 0 23.5 -0.5t27.5 -0.5q23 -1 49 -1.5t52 -0.5q20 37 46.5 78.5t60.5 89.5zM312 118q-5 -5 2.5 -25t22.5 -36q37 -38 55 -20q5 5 1 22t-24 37q-17 17 -34.5 22t-22.5 0z" />
    <glyph glyph-name="D" unicode="D" 
d="M224 513q-9 -32 -34 -48.5t-52 -16.5q-3 0 -5 -1.5t0 -2.5q24 -17 54.5 -30.5t62.5 -27.5q23 -10 46 -22t43 -27q23 -16 41 -36.5t31 -47.5q4 -6 7 -16q15 -35 15 -70q0 -53 -29.5 -98.5t-82.5 -68.5q-17 -8 -35 -11t-36 -3q-53 0 -99 29q-22 14 -39 34t-28 46
q-15 34 -15 70q0 54 29.5 99.5t82.5 67.5q2 2 5 2q4 2 -1 4l-29 11q-20 9 -39 19.5t-35 25.5q-19 19 -29 42q-12 28 -12 68q0 14 2 33.5t5 30.5q2 8 6.5 10t9.5 0h1l4 -3q6 -5 11 -12.5t5 -12.5q0 -14 19.5 -22t48.5 -8q17 0 32 4.5t23 18.5q6 11 6 18v16q0 5 3.5 14.5
t21.5 18.5q19 9 30.5 11t10.5 -9q0 -12 5.5 -24.5t16.5 -21.5q14 -13 35 -11.5t36 9.5t21.5 26.5t16.5 37.5q2 4 7 4t9.5 -2t7.5 -6t3 -7q-1 -8 -5.5 -21.5t-11 -28.5t-14 -29t-14.5 -23q-15 -20 -38.5 -37t-49.5 -17q-24 0 -44.5 13t-33.5 39q0 3 -3 0zM347 64q14 26 14 62
q0 19 -4 39.5t-13 40.5q-21 49 -56 77q-33 27 -68 27q-13 0 -28 -5q-23 -10 -37 -36t-14 -63t17 -79q11 -25 25 -44t31 -33q34 -28 68 -28q14 0 28 6q23 10 37 36z" />
    <glyph glyph-name="E" unicode="E" 
d="M268 604q43 -2 88.5 -2.5t89.5 2.5q2 -3 3 -10.5t-3 -15.5q-8 -2 -17 -3.5t-15 -5.5q-7 -5 -12.5 -18t-5.5 -30v-43.5t-0.5 -57t-0.5 -62.5v-61v-91.5t0.5 -65.5t1 -43.5t1.5 -25.5q1 -18 5.5 -26t16.5 -14q12 -7 30 -8q4 0 1.5 -11.5t-5.5 -14.5q-14 0 -32.5 1.5
t-58.5 1.5q-29 0 -53 -1.5t-34 -1.5q-2 3 -2 13t2 13q10 2 18 3.5t14 5.5q8 5 11.5 10t4.5 15l2 32q-4 38 -13 74.5t-23 70.5q-17 42 -39 77t-45 60q-7 -17 -21 -31q-29 -29 -64.5 -28t-59.5 25q-9 9 -16.5 23t-9 30t4 33t22.5 33q20 20 44.5 26t47.5 -3l10 -3q8 -4 16.5 -8
t16.5 -10q17 -11 32.5 -25.5t31.5 -32.5q18 -22 35 -48t32 -56v58t-0.5 66.5t-1 58.5t-1.5 36q-1 17 -6 31q-5 11 -16 21t-31 11q-3 0 -2 9t6 17zM74 438q-2 -3 -1.5 -10t4 -16t9 -18.5t13.5 -16.5q38 -38 55 -21q5 6 1 23t-24 37q-17 17 -34.5 22t-22.5 0z" />
    <glyph glyph-name="F" unicode="F" 
d="M24 601q43 -2 88.5 -2.5t89.5 2.5q2 -3 3 -10.5t-3 -15.5q-8 -2 -17 -3.5t-15 -5.5q-7 -5 -12.5 -18t-5.5 -30v-74q23 -14 58.5 -33.5t75 -40t78.5 -39t69 -30.5q1 -4 -1.5 -15.5t-6.5 -13.5q-34 -16 -64.5 -31t-63 -31.5t-68 -35.5t-78.5 -43q1 -46 3 -63q1 -18 5.5 -26
t16.5 -14q12 -7 30 -8q4 0 1.5 -11.5t-5.5 -14.5q-14 0 -32.5 1.5t-58.5 1.5q-29 0 -53 -1.5t-34 -1.5q-2 3 -2 13t2 13q10 2 18 3.5t14 5.5q8 5 11.5 10t4.5 15q1 11 2 28.5t1.5 45.5t0.5 67.5v94.5v58t-0.5 67t-1 60t-1.5 37q-1 17 -6 31q-5 11 -16 21t-31 11q-3 0 -2 9
t6 17zM151 294v-131q60 33 105.5 58.5t91.5 48.5q4 2 0 4q-11 6 -34.5 18.5t-51.5 27t-57.5 30t-53.5 29.5v-85z" />
    <glyph glyph-name="G" unicode="G" 
d="M297 370q30 0 57 -8t47 -25t31.5 -45t11.5 -67q0 -44 -13.5 -87t-40.5 -76.5t-67 -54.5t-93 -21q-36 0 -66.5 11t-53 32t-35 52t-12.5 71q0 52 29 118q30 65 82 121q10 11 19.5 21.5t19.5 19.5q10 8 19.5 16t19.5 16t19 15t17 14t16 13.5t15 14.5q2 2 0 5t-3 3
q-12 1 -37 3q-11 1 -23 1t-25 1h-53h-48q-8 0 -15 -3q-8 -3 -17 -12q-5 -5 -10 -12t-10 -15q-5 -9 -11 -21l-13 -26q-6 -2 -15 2q-10 5 -11 9q2 6 4 14t5 18t6 20.5t7 21.5t8 21.5t8 20.5q8 18 15 28q2 4 12 5q5 1 14 1.5t22 0.5h57h34t34 -1q18 -1 36 -1h35q18 -1 35 -1h33
h13.5t13.5 1h12.5t10.5 1q1 -1 3 -10q1 -5 1 -12q-12 -11 -24.5 -21t-26.5 -20l-54 -39q-14 -11 -27.5 -22t-27.5 -23q-25 -23 -52 -57q-10 -13 -19 -27t-17 -28q-2 -4 -3 -5q28 12 54 20t47 8zM262 28q23 0 41.5 10.5t31 29.5t19.5 45t7 56q0 43 -9.5 71t-26.5 44.5t-40 23
t-50 6.5q-30 0 -58 -14q-2 -3 -2.5 -6t-2.5 -7q-5 -15 -9.5 -29.5t-7.5 -28.5q-2 -14 -3.5 -27.5t-1.5 -25.5q0 -28 9 -54.5t24.5 -47t35.5 -33.5t43 -13z" />
    <glyph glyph-name="H" unicode="H" 
d="M416 541q22 -38 22 -85q0 -27 -7 -55t-20 -57q-12 -29 -29.5 -58.5t-40.5 -58.5q-43 -57 -99 -112.5t-119 -105.5q-5 -6 -10 -8q-8 -3 -24 -5.5t-25 -0.5v298v58t-0.5 67t-1 60t-1.5 37q-1 17 -6 31q-5 11 -16 21t-31 11q-3 0 -2 9t6 17q43 -2 88.5 -2.5t89.5 2.5
q2 -3 3 -10.5t-3 -15.5q-8 -2 -17 -3.5t-15 -5.5q-7 -5 -12.5 -18t-5.5 -30v-43.5t-0.5 -57t-0.5 -62.5v-61v-91.5t0.5 -65.5t1 -43.5t1.5 -25.5q0 -2 1.5 -2.5t3.5 1.5q29 26 55.5 53.5t49.5 56.5q67 80 98 153q21 49 21 90t-22 70q-24 32 -74 49q-1 1 -3 6t0 9
q3 9 12 20.5t20.5 20.5t23 13t19.5 -1q46 -29 69 -69z" />
    <glyph glyph-name="I" unicode="I" 
d="M420 598q2 -4 0 -11l-4 -14q-8 -27 -11 -64.5t-3 -84.5q0 -28 1 -58t3 -62q0 -7 -4 -13.5t-10 -11t-13.5 -7t-13.5 -2.5q-21 1 -45 2.5t-48.5 2.5t-47 1.5t-39.5 0.5h-5q9 -21 19 -42t21 -42q14 -27 28 -53t30 -51q16 -26 32 -48t33 -42q2 -4 1.5 -8t-1.5 -5q-2 -2 -6 -5
t-11 -5q-17 -8 -26 -3q-16 7 -43 45q-25 37 -56 94q-30 55 -61 122q-5 11 -9.5 21t-9.5 20q-38 -2 -65 -6q-3 0 -4.5 6t-2 14t0.5 15t3 8q0 1 14 9.5t28 16.5q-3 7 -5.5 14t-5.5 15q-13 32 -22.5 63t-17.5 60q-15 60 -14 96q0 4 1 7t3 5q9 -1 21 -1.5t27 -0.5h57h193
q11 0 22.5 0.5t22.5 1.5q10 1 19.5 2.5t14.5 3.5q5 1 9 -6zM370 352q3 0 3 4q0 18 -0.5 34.5t-0.5 33.5q0 46 3 85q0 2 -2 2q-5 1 -12.5 1.5t-10.5 0.5q-9 1 -22.5 1t-30.5 1h-35.5t-37.5 1h-71q-17 -1 -29 -1h-20q-3 0 -3 -5t2 -15t6 -26q5 -16 10.5 -34t13.5 -40
q4 -11 8 -22.5t9 -22.5q17 -2 35.5 -2h37.5q40 0 78.5 1t68.5 3z" />
    <glyph glyph-name="J" unicode="J" 
d="M417 138q28 -28 25 -61t-27 -57q-15 -16 -35.5 -22.5t-42 -6t-42 7t-36.5 16.5q-36 24 -58 64q-15 27 -28 60.5t-18 75.5q0 4 -4 4q-25 -9 -52.5 -15t-47.5 -6h-9l-2 2q-2 2 -1 5q3 14 7.5 46t5.5 67q0 2 3.5 3.5t7.5 2t7.5 0t3.5 -2.5q1 -19 4 -30t7 -16.5t9 -7t12 -1.5
q8 1 18 1.5t21 2.5q5 0 5 5q-1 9 -1 18.5v19.5q0 51 10.5 106t32.5 100.5t54.5 74.5t77.5 29q21 0 40.5 -8t35 -22t24.5 -34.5t9 -44.5q0 -42 -19.5 -82t-49 -74t-65 -61.5t-66.5 -43.5q-2 -2 -2 -5q3 -13 7 -29.5t10 -33.5t13.5 -33.5t15.5 -28.5q1 -2 3 0q3 4 5.5 7t6.5 7
q27 27 62.5 27.5t62.5 -26.5zM224 292q1 -4 4 -3q34 13 58.5 38t40.5 53.5t24 56t8 45.5q0 40 -20 62t-45 22q-32 0 -48.5 -21t-21.5 -56q-2 -17 -3.5 -47t-1.5 -58v-4q0 -23 1.5 -45.5t3.5 -42.5zM392 37q5 5 1 22t-24 37q-17 17 -34.5 22t-22.5 0t2.5 -25t22.5 -36
q37 -38 55 -20z" />
    <glyph glyph-name="K" unicode="K" 
d="M376 623q14 0 27.5 -6.5t23.5 -17.5t16 -25.5t6 -29.5q0 -38 -16.5 -77t-43 -74.5t-58.5 -64t-63 -46.5q18 -5 35.5 -10.5t37.5 -13.5q43 -16 68.5 -48t25.5 -72q0 -27 -10.5 -55t-29.5 -51.5t-45.5 -38t-58.5 -14.5q-28 0 -54 19t-47.5 48.5t-36.5 65.5t-20 71
q-7 47 -10.5 100t-7 108.5t-8.5 111.5t-14 109q-3 15 -9.5 26.5t-20.5 11.5q-7 0 -11 -1t-8 -3q-9 -6 -18 -13q-9 -9 -19 -1q-12 7 -5 18t15.5 24.5t19 25.5t23.5 20t30 8q15 0 25.5 -6t18 -16.5t12 -23.5t7.5 -27q8 -32 15.5 -81t12.5 -108q29 71 80 114t115 43zM194 299
q27 0 57.5 15.5t56.5 43t43 64t17 78.5q0 23 -14 36.5t-31 13.5q-31 0 -56.5 -21.5t-44 -57t-28.5 -79.5t-10 -89v-2h1q0 -2 7 -2h2zM341 43q21 0 21 30q0 5 -1 16.5t-5.5 26.5t-13 31.5t-24.5 31.5q-9 9 -23.5 17.5t-30 14.5t-31.5 10t-29 4q-6 0 -4 -8q3 -23 15 -55.5
t35 -58.5q11 -14 25.5 -25.5t27.5 -19t23.5 -11.5t14.5 -4z" />
    <glyph glyph-name="L" unicode="L" 
d="M418 112q5 -5 10.5 -15t4.5 -15q-5 -26 -13 -43.5t-31 -37.5q-9 -8 -19.5 -11t-21.5 -3h-1q-12 0 -24 3.5t-25 8.5q-23 10 -50 26q-12 8 -24.5 15.5t-24.5 15.5q-3 1 -4 0l-19 -19t-24 -21.5t-28 -17.5t-31 -7q-25 0 -41 15q-18 15 -18 42q0 31 18.5 52.5t42.5 31.5
q9 4 23 4q11 0 23 -3t26 -8q3 -2 3 4q0 18 -3 33t-8 29t-11.5 27.5t-14.5 27.5q-14 30 -26.5 68t-12.5 95q0 42 7.5 73.5t21.5 55.5t32.5 40.5t39.5 24.5q14 6 29 8.5t30 2.5q40 0 77 -17q35 -15 60 -44q2 -2 -1.5 -11.5t-8.5 -21t-10.5 -21t-8.5 -11.5q-5 -4 -10.5 -3.5
t-10.5 5.5q-33 42 -63.5 62.5t-56.5 20.5t-39.5 -31.5t-13.5 -88.5q0 -39 6.5 -68t15.5 -53t19.5 -45t18.5 -45q12 -33 12 -73q0 -37 -13 -68q-1 -3 1 -4l18 -8l18 -8q23 -9 44.5 -15t38.5 -6q22 0 38 11q8 6 15 14.5t13 24.5q2 3 5 2zM160 75q2 2 -1 3q-14 8 -27 15t-26 7
q-11 0 -16.5 -7.5t-2.5 -15.5q5 -9 12.5 -15.5t22.5 -6.5q12 0 23 6t15 14z" />
    <glyph glyph-name="M" unicode="M" 
d="M200 596q23 -5 42 -5.5t38 -0.5q15 0 33 4.5t35.5 10.5t32.5 11t24 5q8 2 13 2q9 0 18 -3.5t9 -12.5q0 -12 -10 -19q-2 -2 -22.5 -14.5t-49.5 -41.5q-37 -41 -84 -116q26 -42 44 -74.5t30 -61.5q25 -60 25 -114q0 -21 -8 -41t-17 -37q-6 -11 -17 -24.5t-24 -26.5
t-26.5 -23.5t-23.5 -15.5q-12 -5 -21.5 -8t-24.5 -3q-28 0 -53 11q-12 6 -22 13.5t-18 18.5q-16 20 -23.5 45t-7.5 54q0 28 5.5 55.5t19.5 58.5q12 29 30 61t44 74q-15 24 -29 44.5t-27 37.5q-14 20 -27 34.5t-24 25.5q-13 12 -24 19q-5 3 -7 3h-1q-9 0 -15.5 6.5t-6.5 15.5
q0 2 4.5 8t11 13.5t14.5 15t15 13.5q9 9 14 9h4q21 -2 47.5 -10.5t59.5 -16.5zM283 226q-8 20 -24 44.5t-35 53.5q-20 -34 -30 -61q-12 -28 -17 -50.5t-5 -46.5q0 -34 13 -58q6 -11 14 -22t19 -16q8 -4 21.5 -7.5t24.5 -3.5q10 0 18.5 1.5t15 8.5t10.5 21t4 39q0 23 -8.5 46
t-20.5 51zM267 491q30 39 52 60l2 2q-33 -9 -69 -9q-14 0 -31 1t-37 6q15 -17 30.5 -38.5t33.5 -47.5z" />
    <glyph glyph-name="N" unicode="N" 
d="M252 604q43 -2 88 -2.5t90 2.5q2 -3 2.5 -10.5t-2.5 -15.5q-8 -2 -17 -3.5t-15 -5.5q-7 -5 -12.5 -18t-5.5 -30v-43.5t-0.5 -57t-0.5 -62.5v-61v-91.5t0.5 -65.5t1 -43.5t1.5 -25.5q1 -18 5.5 -26t16.5 -14q12 -7 30 -8q4 0 1.5 -11.5t-5.5 -14.5q-14 0 -32.5 1.5
t-58.5 1.5q-29 0 -53 -1.5t-34 -1.5q-2 3 -2 13t2 13q10 2 18 3.5t14 5.5q8 5 11.5 10t4.5 15q2 19 2.5 61t1.5 121q-30 -15 -62 -31.5t-63 -33t-58.5 -31.5l-49.5 -27q-5 -3 -11 -1t-4 25q1 10 1.5 21.5t0.5 26.5q1 16 1 33.5v36.5q0 45 -1 87.5t-3 68.5q0 3 2 9t5 13l6 14
t5 10q3 3 8 3q11 -9 35 -23t54.5 -31t65.5 -34.5t68 -33.5v52.5t-0.5 52t-1 43t-1.5 26.5q-1 17 -6 31q-5 11 -16 21t-31 11q-3 0 -2 9t6 17zM300 273q3 2 1 4q-10 5 -29 15t-42.5 22.5t-49.5 26t-49 26.5q-3 1 -3 -1q-1 -15 -1 -31.5v-33.5q0 -33 0.5 -64t1.5 -54
q0 -3 2 -1q50 27 89.5 49t79.5 42z" />
    <glyph glyph-name="O" unicode="O" 
d="M445 591q0 -1 -1 -21t-2.5 -46t-2.5 -51t-1 -36q1 -22 -4 -28t-6 -7q-6 -5 -28 -12.5t-52 -18.5t-63.5 -26.5t-62.5 -36.5t-49 -47.5t-22 -59.5q-2 -32 3 -59t20 -50q6 -10 16 -19t21 -14q24 -11 52 -11q24 0 46 5q19 4 36 15q21 12 37.5 29t23.5 26q4 -1 12 -8t8 -12
q-6 -9 -12.5 -19t-13.5 -21t-15.5 -21.5t-19.5 -20.5q-23 -20 -54 -33q-30 -13 -81 -13q-35 0 -64 13q-31 12 -53 36q-24 24 -37 56q-13 30 -13 72q0 34 12.5 68.5t42.5 70.5q28 34 66.5 56.5t76.5 36t70.5 21t49.5 12.5q4 1 7 7t4.5 20.5t2 29.5t1 27.5t0.5 14.5
q0 11 -6 12q-3 0 -15 0.5t-26 1.5t-26.5 1.5t-18.5 0.5q-17 1 -38.5 1t-34.5 1h-53h-48q-8 0 -15 -3q-8 -3 -17 -12q-5 -5 -10 -12t-10 -15q-5 -9 -11 -21l-13 -26q-6 -2 -15 2q-10 5 -11 9q2 6 4 14t5 18t6 20.5t7 21.5t8 21.5t8 20.5q8 18 15 28q2 4 12 5q5 1 14 1.5
t22 0.5h57h34t34 -1q18 -1 36 -1h35q18 -1 35 -1h33h13.5t13.5 1q7 0 16 -3.5t9 -10.5z" />
    <glyph glyph-name="P" unicode="P" 
d="M454 18q7 0 8.5 -4t0 -9.5t-5.5 -10t-7 -5.5q-18 -8 -35 -10t-32 -2q-35 0 -60 15q-27 16 -37 44q-7 18 -7 42q0 19 8 43q5 12 11 24.5t14 25.5q20 35 57 73q2 2 -2 2q-59 -2 -89.5 24t-30.5 64q0 24 12 50t38 50q4 4 12 10.5t17 14t17 14.5t12 10q4 2 -1 2
q-16 1 -35.5 1h-40.5q-26 0 -53 -0.5t-52 -0.5v-188v-91.5t0.5 -65.5t1 -43.5t1.5 -25.5q1 -18 5.5 -25.5t16.5 -14.5q12 -6 30 -8q4 0 1.5 -11.5t-5.5 -14.5q-14 0 -32.5 1.5t-58.5 1.5q-15 0 -30.5 -0.5t-29 -1t-24 -1t-15.5 -0.5q-2 3 -2.5 12.5t2.5 13.5l24.5 3.5
t19.5 5.5q14 5 16 25q1 11 2 28.5t1.5 45.5t0.5 67.5v94.5v58t-0.5 67t-1 60t-1.5 37q-1 8 -3 17t-12 11q-17 5 -52 8q-3 2 -2.5 11.5t3.5 11.5q37 2 78.5 12t68.5 21q2 -1 4.5 -4t2.5 -4q-5 -12 -7 -28.5t-2 -49.5v-4h167q21 0 37 0.5t24 1.5h8.5t9.5 -2l4 -5q2 -6 -8 -17
t-24.5 -24.5t-29.5 -27.5t-23 -25q-18 -26 -18 -53q0 -33 22 -58t55 -25h10q3 0 5 1q15 2 15.5 -10t-7.5 -21q-15 -18 -24.5 -34.5t-18.5 -36.5q-18 -41 -18 -72q0 -23 7 -39.5t18 -27.5t31.5 -17.5t37.5 -6.5z" />
    <glyph glyph-name="Q" unicode="Q" 
d="M297 191q36 -21 51 -54q9 -22 7 -44.5t-13.5 -42.5t-31.5 -35.5t-47 -24.5q-27 -8 -54 -7t-51 9.5t-42.5 24.5t-27.5 38q-8 19 -8 37v35v73v92.5v94v78.5v45q-2 36 23 68t69 46q27 8 54.5 7t51.5 -9.5t42.5 -24.5t27.5 -38q16 -37 0.5 -74t-54.5 -59q29 -10 51.5 -28
t33.5 -44q10 -24 9 -48t-12.5 -46t-31.5 -40t-47 -29zM276 222q31 10 38 40t-10 68t-50 58t-64 10q-21 -7 -32.5 -25.5t-12.5 -42.5q0 -40 0.5 -56.5t7 -22t20 -6t38.5 -8.5q17 -5 33 -12.5t32 -2.5zM183 597q-25 -8 -32.5 -36.5t6.5 -61.5t42 -51t53 -10t32.5 36.5
t-6.5 61.5q-7 16 -18 29.5t-24 21.5t-27 11t-26 -1zM252 16q25 8 32.5 36.5t-6.5 61.5q-13 29 -28.5 46t-32 25t-33.5 9t-32 -2q-7 0 -7 -6v-44q1 -22 4 -36.5t8 -28.5q14 -33 42 -51t53 -10z" />
    <glyph glyph-name="R" unicode="R" 
d="M453 137q4 0 1.5 -11t-5.5 -14q-14 0 -30 0.5t-26 0.5q-6 0 -16 -0.5t-21 -0.5h-26q-3 7 -2.5 15t2.5 12q7 0 14 6t8 23q1 15 1 41v53.5v53t-1 38.5q0 8 -3.5 14t-11.5 6q-17 1 -29 1.5t-22 0.5q-3 0 -3 -3v-76v-91.5t0.5 -65.5t1 -43.5t1.5 -25.5q1 -18 5.5 -26
t16.5 -14q12 -7 30 -8q4 0 1.5 -11.5t-5.5 -14.5q-14 0 -32.5 1.5t-58.5 1.5q-29 0 -53 -1.5t-34 -1.5q-2 3 -2 13t2 13q10 2 18 3.5t14 5.5q8 5 11.5 10t4.5 15q1 11 2 28.5t1.5 45.5t0.5 67.5v94.5v80q0 3 -2 3q-10 0 -22.5 -0.5t-28.5 -1.5q-8 0 -11 -6t-4 -14
q-1 -13 -1.5 -38.5t-0.5 -53t0.5 -53.5t1.5 -41q1 -17 8 -23t14 -6q2 -4 2.5 -12t-2.5 -15h-26q-11 0 -21.5 0.5t-15.5 0.5q-10 0 -26 -0.5t-30 -0.5q-3 3 -5.5 14t1.5 11q16 2 19.5 13t4.5 36q1 9 1.5 28.5t0.5 41.5v41.5v27.5q0 27 -2.5 40t-19.5 17q-3 8 -2.5 15.5
t2.5 10.5l17 -0.5t41.5 -1t52.5 -1t52 -0.5q2 0 2 2q0 37 -0.5 67t-2.5 41q-1 17 -6 31q-5 11 -16 21t-31 11q-3 0 -2 9t6 17q43 -2 88.5 -2.5t89.5 2.5q2 -3 3 -10.5t-3 -15.5q-8 -2 -17 -3.5t-15 -5.5q-7 -5 -12.5 -18t-5.5 -30v-114q0 -2 2 -2q24 0 52 0.5t52.5 1t41.5 1
l17 0.5q2 -3 3 -10.5t-3 -15.5q-17 -4 -19.5 -17t-2.5 -40v-27.5v-41.5t0.5 -41.5t1.5 -28.5q2 -25 5 -36t19 -13z" />
    <glyph glyph-name="S" unicode="S" 
d="M275 -1q-23 5 -42 5.5t-38 0.5q-15 0 -33 -4.5t-35.5 -10.5t-32.5 -11t-24 -5q-8 -2 -13 -2q-9 0 -18 3.5t-9 12.5q0 12 10 19q2 2 22.5 14.5t49.5 41.5q37 41 84 116q-26 42 -44 74.5t-30 61.5q-25 60 -25 114q0 21 8.5 41t16.5 37q6 11 17 24.5t24 26.5t26 23.5
t24 15.5q12 5 22 8t24 3q29 0 53 -11q12 -6 22 -13.5t18 -18.5q17 -20 24 -45t7 -54q0 -28 -5.5 -55.5t-18.5 -58.5q-12 -29 -30 -61t-44 -74q31 -49 55 -82q30 -39 51 -60q13 -12 24 -19q4 -3 7 -3h2q8 0 14.5 -6.5t6.5 -15.5q0 -2 -4.5 -8t-11.5 -13.5t-15 -15t-15 -13.5
q-7 -9 -13 -9h-4q-20 1 -46.5 10t-60.5 17zM192 369q9 -20 25 -44.5t34 -53.5q20 34 30 61q12 28 17 50.5t5 46.5q0 34 -13 58q-6 11 -14 22t-19 16q-8 4 -21.5 7.5t-24.5 3.5q-9 0 -18 -1.5t-15.5 -8.5t-10.5 -21t-4 -39q0 -23 9 -46t20 -51zM208 104q-9 -12 -17.5 -22.5
t-16.5 -18.5q5 0 9 0.5t9 0.5q14 0 38.5 -2.5t50.5 -7.5q-13 16 -26 35t-27 41z" />
    <glyph glyph-name="T" unicode="T" 
d="M86 262q-16 60 -28.5 127t-20.5 129q-4 20 -6 37t-1 31q0 4 1 7t3 5q9 -1 21 -1.5t27 -0.5h250q11 0 22.5 0.5t22.5 1.5q24 2 34 6q6 1 9 -6q3 -5 -3 -22q-4 -15 -17 -39q-9 -14 -13 -17q-5 -5 -12 -7q-8 -2 -12 -1q-14 2 -50.5 3t-78 1.5t-78.5 0t-52 -1.5l-5 -2
q6 -60 20.5 -121t34.5 -118q23 3 44.5 5t34.5 2h1q34 0 70 -14q51 -21 80 -61q30 -41 30 -87q0 -13 -6.5 -35t-23 -43t-45 -36.5t-71.5 -15.5q-26 0 -47.5 13.5t-39.5 36.5t-33.5 54.5t-29.5 66.5q-5 11 -9.5 24.5l-9.5 28.5q-13 -4 -27.5 -7t-25.5 -5q-10 -1 -10 7
q0 15 7 29.5t13 16.5zM309 26q22 8 28 27.5t0.5 44.5t-19 51t-31 48t-36 36t-33.5 14q-14 0 -26.5 -2.5t-24.5 -6.5q18 -48 38 -89t39 -70t36 -43.5t29 -9.5z" />
    <glyph glyph-name="U" unicode="U" 
d="M393 163q12 -26 10 -53t-17 -51t-41.5 -43t-61.5 -29q-21 -6 -45 -7.5t-46.5 0t-41.5 5.5t-30 9q-11 6 -18.5 13t-15.5 22q-6 14 -11.5 35.5t-7.5 38.5q0 2 4 4.5t8.5 4.5t8.5 3t5 1q26 -53 66 -77q32 -18 67.5 -22t60.5 8t33.5 40t-12.5 73q-10 22 -32 34.5t-47 19.5
t-48.5 10.5t-37.5 7.5q-25 8 -24 19.5t28 19.5q30 8 69 4t68 -11q4 0 5 1q19 16 22 44t-11 58q-9 20 -24 29.5t-33 14t-37.5 6.5t-37.5 8q-23 8 -22 18.5t30 19.5q29 8 54.5 8.5t52.5 -6.5q3 0 4 1q14 15 15.5 38t-9.5 48q-11 23 -33 34.5t-49 12t-55 -10t-51 -30.5
q-1 0 -1.5 -0.5t-2.5 0.5l-6 6q-3 3 -4 6l-2 6t0 6q8 9 28 20.5t45.5 21.5t55 15.5t58 2t52.5 -19.5t40 -49t4 -66.5t-44 -57.5q-2 0 0 -2q19 -11 33.5 -25t22.5 -32q18 -38 3.5 -77t-54.5 -65q-1 0 -1 -1t1 -1q42 -23 60 -61z" />
    <glyph glyph-name="V" unicode="V" 
d="M417 14q19 0 18 -8.5t-7 -16.5q-2 -2 -3 -2q-25 -17 -48 -17q-26 0 -42 18q-17 17 -17 45v1q1 35 20 72q5 9 10 17.5t10 17.5q3 3 -4 3q-19 0 -31 8q-14 7 -21 24q-2 5 -3 10.5t-1 11.5v1q1 34 20 73q1 3 -3 3h-46q-38 -77 -67.5 -155t-39.5 -147q-1 -2 -3 -3t-3 -1
q-7 1 -20 6.5t-17 10.5q-2 2 -1.5 6.5t1.5 6.5q19 62 45 132t60 144h-40t-38 -1q-12 0 -26 -0.5t-26.5 -1t-21 -1l-8.5 -0.5q-3 0 -9.5 7.5t-4.5 11.5q0 1 0.5 9t0.5 13q1 10 1 22.5v26.5q0 22 -0.5 47l-1 50t-1.5 47.5t-2 39.5q0 11 -1 17t-1 15q0 10 3 18q1 4 3 9
q11 -4 33.5 -6t45.5 -2h193h56.5t48.5 2q2 -1 3 -5.5t1 -6.5q-2 -15 -10.5 -34.5t-22.5 -41.5q-20 -34 -44 -75t-48 -88q16 1 31 2.5t26 4.5q16 5 23.5 3.5t9.5 -6t0.5 -10t-3.5 -8.5q-9 -11 -15.5 -20.5t-11.5 -17.5l-5 -10q-7 -14 -11 -28.5t-4 -28.5v-1q0 -12 4 -17
q3 -6 11 -11q8 -4 18.5 -6t21.5 -2q10 0 13.5 -8t-1.5 -16q-3 -4 -6 -7.5t-5 -7.5q-5 -7 -9 -15t-7 -17q-5 -14 -7.5 -28.5t-2.5 -29.5v-1q0 -11 2 -18t5 -12q5 -9 16 -14q7 -3 17 -3zM352 515q-10 0 -30 0.5t-46 0.5h-54t-55 -0.5t-49 -1t-35 -1.5q-1 -11 -0.5 -22.5
t0.5 -22.5v-78q1 -13 1 -23v-16q3 -1 9 -1q11 0 23.5 -0.5t27.5 -0.5q26 -1 56 -1.5t59 -0.5q22 42 46 82.5t50 80.5q2 5 -3 5z" />
    <glyph glyph-name="W" unicode="W" 
d="M462 23q2 0 2 -4t-0.5 -9t-2.5 -9t-3 -4q-2 0 -8.5 0.5t-14 1t-14 1t-8.5 0.5q-35 2 -77.5 3.5t-87.5 1.5q-44 0 -86.5 -1.5t-79.5 -3.5q-11 -1 -21 -1q-8 -1 -17.5 -1t-15.5 -1q-2 3 -2 12.5t2 13.5q41 3 57 33q25 49 56.5 109.5t66.5 124.5q3 3 0 7q-20 37 -39.5 73.5
t-38.5 70.5q-18 32 -34 61t-29 51q-16 27 -44 25q-1 0 -1 4t0.5 9t2 9t3.5 4q11 -1 21.5 -2t14.5 -1q34 -2 80 -3.5t95 -1.5q43 0 83.5 1.5t71.5 3.5q2 0 9 0.5t16.5 1l19 1t17.5 0.5q4 0 3 -11t-3 -15t-10.5 -5t-19 -3t-20.5 -6t-16 -14q-28 -45 -60 -102t-66 -118
q0 -2 -0.5 -3.5t1.5 -3.5q21 -39 42 -77.5t40.5 -74.5t36.5 -68t30 -56q7 -12 20.5 -17.5t27.5 -6.5zM317 55q8 0 11.5 6t-1.5 16l-46 84l-52 97q-2 3 -3 0q-30 -55 -52 -97t-44 -85q-4 -8 0.5 -15t12.5 -6q14 0 25 0.5t21.5 0.5h22h26.5q20 0 39.5 -0.5t39.5 -0.5zM153 555
q-4 0 -6 -5t0 -9q17 -31 40 -75.5t57 -104.5q1 -3 3 -1q31 55 55 98.5t48 85.5q2 3 0 7.5t-6 3.5q-26 -1 -50 -1.5t-55 -0.5q-25 0 -44 0.5t-42 1.5z" />
    <glyph glyph-name="X" unicode="X" 
d="M453 202q4 -1 1.5 -12t-5.5 -14h-13.5t-15.5 0.5t-22 0.5h-33h-50t-60 0.5t-61 0.5h-52q-2 0 -2 -3q0 -43 0.5 -67.5t1.5 -36.5q1 -18 5.5 -26t16.5 -14q12 -7 30 -8q4 0 1.5 -11.5t-5.5 -14.5q-14 0 -32.5 1.5t-58.5 1.5q-29 0 -53 -1.5t-34 -1.5q-2 3 -2 13t2 13
q10 2 18 3.5t14 5.5q8 5 11.5 10t4.5 15q1 11 2 28.5t1.5 45.5t0.5 67.5v94.5v58t-0.5 67t-1 60t-1.5 37q-1 17 -6 31q-5 11 -16 21t-31 11q-3 0 -2 9t6 17q43 -2 88.5 -2.5t89.5 2.5q2 -3 3 -10.5t-3 -15.5q-8 -2 -17 -3.5t-15 -5.5q-7 -5 -12.5 -18t-5.5 -30v-113
q0 -3 2 -3q33 0 82 0.5t96 1t83.5 1t45.5 0.5q2 -3 3 -10.5t-3 -15.5q-8 -2 -17 -3.5t-15 -5.5q-7 -4 -12.5 -17.5t-5.5 -30.5v-37t2 -38q1 -18 5.5 -26t16.5 -14q7 -4 13.5 -6t16.5 -2zM324 232q2 29 2 62.5t-2 59.5q0 8 -3.5 14t-11.5 6q-15 1 -35.5 1.5t-43.5 0.5
t-46 -0.5t-41 -0.5q-4 0 -4 -3v-75v-87q0 -3 3 -3q31 0 76.5 -0.5t90.5 1.5q9 1 11.5 8t3.5 16z" />
    <glyph glyph-name="Y" unicode="Y" 
d="M427 618q6 0 10.5 -4.5t4.5 -10.5t-5.5 -10.5t-13.5 -10t-18 -14t-20 -21.5q-29 -38 -67 -111q-2 -3 0 -6q1 -1 1 -3q44 -89 60 -151q8 -31 11.5 -58.5t3.5 -54.5q0 -33 -10 -64t-27 -55t-41 -38.5t-52 -14.5h-1q-24 0 -41.5 12.5t-29.5 32t-17.5 44t-5.5 47.5
q0 28 4 54.5t14 57.5l9 25q0 1 -2 0q-2 0 -3 -0.5t-3 -0.5q-8 -3 -16 -3q-30 0 -53.5 19t-40.5 48t-26 64t-9 68q0 36 10.5 64.5t27 49t36.5 31t38 10.5q20 0 39.5 -13t37.5 -33.5t34 -44.5t28 -46q1 -3 3 0q9 15 23 35.5t30 40.5t32 37t28 23q8 5 17 5zM299 57q9 0 15 2
t10.5 8.5t6.5 19.5t2 34q0 27 -5.5 54.5t-14.5 53.5t-20 50.5t-21 46.5q-1 3 -3 1q-12 -32 -23 -76t-12 -88q0 -20 4.5 -39t12.5 -34t20.5 -24t27.5 -9zM109 495q0 -30 9 -60t23 -54t32 -39.5t35 -15.5q2 0 4 0.5t4 0.5q8 2 10 9l19 40q1 4 0 7q-23 48 -47 86q-33 52 -51 72
t-26.5 18t-10 -20.5t-1.5 -43.5z" />
    <glyph glyph-name="Z" unicode="Z" 
d="M12 176q-3 3 -5.5 14t1.5 12q10 0 16.5 2t13.5 6q12 6 16.5 14t5.5 26q2 18 2 38v37t-5.5 30.5t-12.5 17.5q-6 4 -15 5.5t-17 3.5q-3 8 -2.5 15.5t2.5 10.5q9 0 45.5 -0.5t84 -1t96 -1t81.5 -0.5q3 0 3 3q-1 34 -1 64v49q0 17 -5.5 30t-12.5 18q-6 4 -15 5.5t-17 3.5
q-3 8 -2.5 15.5t2.5 10.5q45 -3 90 -2.5t88 2.5q5 -8 6 -17t-2 -9q-20 -1 -31 -11t-16 -21q-6 -14 -6 -31q-1 -10 -1.5 -37t-1 -60t-0.5 -67v-58v-94.5t0.5 -67.5t1.5 -45.5t2 -28.5q1 -10 4.5 -15t11.5 -10q6 -4 14 -5.5t18 -3.5q2 -3 2 -13t-2 -13q-10 0 -34 1.5t-53 1.5
q-40 0 -58.5 -1.5t-32.5 -1.5q-3 3 -5.5 14.5t1.5 11.5q18 1 30 8q12 6 16.5 14t5.5 26q1 12 1.5 36.5t1.5 67.5q0 3 -2 3h-53t-61 -0.5t-60 -0.5h-50h-33t-22 -0.5t-15.5 -0.5h-13.5zM137 354q-2 -26 -2 -59.5t2 -62.5q1 -9 3.5 -16t12.5 -8q44 -2 89.5 -1.5t77.5 0.5
q2 0 2 3v87v75q0 3 -4 3q-18 0 -40.5 0.5t-45.5 0.5t-44 -0.5t-36 -1.5q-8 0 -11 -6t-4 -14z" />
    <glyph glyph-name="bracketleft" unicode="[" horiz-adv-x="385" 
d="M321 739l0.5 -6.5t-0.5 -15t-2.5 -15t-4.5 -6.5q-11 0 -31.5 -0.5t-43 -1t-41.5 -0.5h-27q-2 0 -4 -2.5t-2 -4.5q-1 -9 -2 -44.5t-1.5 -89.5t-1 -123t-0.5 -145v-159t1 -115t1.5 -78.5t2.5 -48.5q1 -5 3 -11.5t7 -8.5q8 -2 26 -3t40.5 -1.5t45.5 -0.5h41q1 -2 1 -8.5
t-1 -14t-3 -14t-5 -6.5q-15 0 -35.5 -0.5t-43 -0.5h-46t-44.5 1q-19 2 -26.5 4.5t-11.5 4.5l1 908q0 2 1.5 4t3.5 2h202z" />
    <glyph glyph-name="backslash" unicode="\" horiz-adv-x="438" 
d="M79 691q2 0 3.5 -0.5t3.5 -0.5q14 -39 37.5 -102.5t52 -139.5t59.5 -158t61 -157.5t55.5 -139t43.5 -101.5q-1 -2 -3.5 -4.5t-4.5 -2.5q-5 1 -12.5 3.5t-15.5 5.5t-14 6.5t-8 6.5q-10 19 -32 71.5t-49.5 123.5t-59 153t-61 159.5t-54.5 142.5t-40 103q3 5 16.5 15.5
t21.5 15.5z" />
    <glyph glyph-name="bracketright" unicode="]" horiz-adv-x="386" 
d="M267 -185q-39 -2 -93 -2h-108q-1 0 -1.5 7t0 15t2.5 15t5 7h33t43 0.5t41 1.5t27 2q2 0 4 3.5t2 5.5q1 7 2 30t1.5 56t0.5 73t0.5 81.5t0.5 82v74.5v141t-1 118.5t-2 89.5t-2 55q-1 5 -3 12t-7 8q-8 1 -26.5 1h-41t-46 0.5t-41.5 0.5q-1 2 -1 9t1 14.5t3 13.5t5 6
q15 0 43 0.5t58 1t56 0.5h37q8 0 14 -8v-909q0 -2 -2 -4t-4 -2z" />
    <glyph glyph-name="asciicircum" unicode="^" horiz-adv-x="468" 
d="M104 272q-3 -4 -10 -6.5t-15 -4t-15 -2t-11 -0.5q-3 0 -5 2t-2 4q6 7 19 31t30 56.5t36 70t36 72t29.5 61.5t17.5 39q0 1 5.5 2.5t11.5 3.5t11.5 3.5t7.5 1.5q7 -17 21 -46t31 -62.5t35 -69t34.5 -66.5t29.5 -54t20 -32q0 -2 -2 -6q-3 -3 -11.5 -6l-17 -6t-15.5 -4.5
t-8 -0.5q-5 5 -16 24t-25 44.5t-29 55t-28.5 55.5t-23.5 46t-14 27q0 1 -3 1.5t-4 -1.5q-9 -19 -26.5 -55.5t-36.5 -73.5t-35 -67t-22 -37z" />
    <glyph glyph-name="underscore" unicode="_" horiz-adv-x="555" 
d="M565 -233h-569v51h569v-51z" />
    <glyph glyph-name="grave" unicode="`" horiz-adv-x="400" 
d="M173 615q4 -9 12 -29t17 -43.5t17 -46.5t13 -38q-2 -4 -11.5 -9t-12.5 -4q-9 10 -25 31t-33 44t-32 43.5t-21 30.5q-1 2 0 5.5t3 5.5q3 1 13.5 3.5t22.5 4t22.5 2.5t14.5 0z" />
    <glyph glyph-name="a" unicode="a" 
d="M263 48q26 0 46 5t36.5 14.5t31 23.5t29.5 32q2 0 5.5 -2.5t7 -6t5.5 -7t2 -4.5q-12 -18 -25.5 -40.5t-35.5 -42t-54 -32.5t-81 -13q-34 0 -64 12.5t-53 36t-36.5 56t-13.5 72.5q0 54 29.5 118t81.5 121q19 23 39 40.5t39 32.5t36 28.5t31 28.5q2 2 0.5 5t-3.5 3
q-14 2 -36.5 3t-48.5 1.5t-53 0.5h-48q-7 0 -15 -3t-17 -12.5t-20 -27t-24 -46.5q-5 -2 -14.5 2t-11.5 9q3 12 9 32t13.5 42t16 41.5t14.5 28.5q2 3 12 5t36 2h57.5t68 -1t71 -1.5t67.5 -0.5q13 0 27 0.5t23 1.5q2 -2 3 -10t1 -12q-24 -22 -51 -41t-54 -39.5t-54.5 -44.5
t-52.5 -57q-20 -26 -36 -55.5t-27 -59.5t-16.5 -58.5t-5.5 -52.5t6.5 -47t20 -41t35 -29t51.5 -11z" />
    <glyph glyph-name="b" unicode="b" 
d="M34 598q18 -2 48.5 -2h56.5h193q23 0 45.5 2t33.5 6q6 1 9 -6q3 -5 -2.5 -22t-17.5 -39q-7 -12 -13 -17.5t-12 -7t-12 -0.5t-13 1q-18 1 -53 1.5t-72.5 1t-71.5 0t-49 -0.5q-3 0 -3 -5q0 -10 8.5 -41t24 -74.5t37.5 -96t49 -106t58 -104t65 -89.5q1 -2 1.5 -6.5
t-1.5 -6.5q-4 -5 -17 -10.5t-20 -6.5q-1 0 -2.5 1.5t-3.5 2.5q-16 7 -42.5 45t-56.5 93.5t-61 122.5t-56 132.5t-40 123.5t-14 96q0 2 1 6.5t3 5.5z" />
    <glyph glyph-name="c" unicode="c" 
d="M445 607q0 -12 -10 -19q-2 -2 -22.5 -14.5t-49.5 -41.5q-37 -41 -84 -116q26 -42 44 -74.5t30 -61.5q25 -60 25 -114q0 -21 -8 -41t-17 -37q-6 -11 -17 -24.5t-24 -26.5t-26.5 -23.5t-23.5 -15.5q-12 -5 -21.5 -8t-24.5 -3q-28 0 -53 11q-12 6 -22 13.5t-18 18.5
q-16 20 -23.5 45t-7.5 54q0 28 5.5 55.5t19.5 58.5q12 29 30 61t44 74q-15 24 -29 44.5t-27 37.5q-14 20 -27 34.5t-24 25.5q-13 12 -24 19q-5 3 -7 3h-1q-9 0 -15.5 6.5t-6.5 15.5q0 3 8 12.5t18.5 20t20 18.5t12.5 8q10 0 22 -5q11 -6 19 -12q10 -7 20 -16.5t21 -22.5
q17 -19 36 -44.5t41 -57.5q5 7 9.5 13.5t9.5 12.5q30 39 52 60q5 5 7 8l6 6q3 2 9 8l4 4l4 4q3 4 6.5 7t6.5 6q18 17 34 24q12 5 22 5q9 0 18 -3.5t9 -12.5zM283 226q-8 20 -24 44.5t-35 53.5q-20 -34 -30 -61q-12 -28 -17 -50.5t-5 -46.5q0 -34 13 -58q6 -11 14 -22t19 -16
q8 -4 21.5 -7.5t24.5 -3.5q10 0 18.5 1.5t15 8.5t10.5 21t4 39q0 23 -8.5 46t-20.5 51z" />
    <glyph glyph-name="d" unicode="d" 
d="M424 355q9 -31 10.5 -59.5t1.5 -54.5q0 -50 -13.5 -92t-39.5 -74q-11 -14 -25.5 -29.5t-33.5 -29t-43 -22t-54 -8.5q-29 0 -58.5 11.5t-53.5 35.5q-32 34 -51 79q-19 47 -19 94q0 24 5.5 47t18.5 43q18 29 44 56t55 43q34 20 79 20q30 0 63 -9q2 -1 4.5 2t1.5 6
q-19 44 -42 83q-27 43 -63 77.5t-85 58.5q-1 0 -2 1q-1 0 -1 1q-1 1 -1 3q0 3 2 6q2 4 4 6.5t3 4.5l6 6q46 -18 92 -46t92 -78q38 -42 65.5 -90.5t37.5 -91.5zM176 94q21 -20 43.5 -31.5t47.5 -11.5q53 0 77.5 34.5t24.5 117.5q0 26 -4.5 49t-14.5 53q-2 7 -17 22.5
t-35 22.5q-36 12 -70 12q-38 0 -64 -13t-34 -26q-10 -17 -13 -34.5t-3 -39.5q0 -42 17 -84q8 -20 19.5 -38.5t25.5 -32.5z" />
    <glyph glyph-name="e" unicode="e" 
d="M393 548q-1 -16 -1 -29t-11 -25q-2 -1 -8 -2t-9 1q-8 18 -24 32t-36 23.5t-42.5 14t-43.5 4.5q-41 0 -59.5 -16t-18.5 -43q0 -26 10 -45t27.5 -32.5t40 -20t46.5 -6.5q8 0 18.5 -9t18.5 -8q1 -2 2 -8t-1 -8q-2 -11 -2 -28.5t-5 -21.5q-6 0 -15 -0.5t-18 -0.5h-17t-12 -1
q-18 -3 -38.5 -14.5t-38 -28t-29 -35t-11.5 -35.5q0 -32 13.5 -56.5t33.5 -41t44.5 -25t46.5 -8.5q45 0 86.5 15.5t76.5 55.5q3 -1 7 -7t4 -11q-2 -11 -12 -25t-16 -21q-38 -52 -84 -76t-97 -24q-43 0 -77 14t-57.5 38t-36 56t-12.5 68q0 25 11.5 50t29.5 48t39 42t40 31
q3 3 0 6q-37 22 -62 53t-25 66q0 18 2 32t7 26.5t15 24.5t25 27q26 25 63 39.5t80 14.5q44 0 68.5 -11.5t36.5 -22.5q13 -11 20.5 -18t6.5 -18z" />
    <glyph glyph-name="f" unicode="f" 
d="M58 238q-10 31 -11.5 59.5t-1.5 54.5q0 50 13.5 92t39.5 73q11 14 25.5 29.5t33.5 29t43 22.5t54 9q29 0 58.5 -11.5t53.5 -35.5q17 -17 29.5 -37t21.5 -43q19 -46 19 -93q0 -24 -5.5 -47t-17.5 -43q-18 -30 -44.5 -56.5t-55.5 -43.5q-35 -19 -78 -19q-32 0 -63 9
q-3 1 -5.5 -2t-0.5 -6q9 -21 19 -42t23 -41q26 -44 63 -75.5t86 -55.5q1 -1 1 -3q0 -4 -1 -7l-7 -18q-1 -2 -2 -2.5t-2 -1.5t-2 -1q-30 15 -55.5 27.5t-48 26.5t-44 31.5t-43.5 43.5q-36 40 -58.5 86t-36.5 91zM305 499q-20 20 -43 31.5t-48 11.5q-53 0 -77 -34.5
t-24 -118.5q0 -26 4 -48.5t14 -53.5q1 -3 5.5 -9t11.5 -12.5t16 -13t19 -9.5q37 -12 70 -12q38 0 64 13t34 26q11 17 14 34.5t3 39.5q0 42 -17 84t-46 71z" />
    <glyph glyph-name="g" unicode="g" 
d="M409 504q7 -28 7 -60q0 -16 -3 -33.5t-10 -34.5q-6 -15 -22.5 -36t-36.5 -40.5t-40 -35.5t-32 -20q-20 -8 -45 -8q-6 0 -11.5 0.5t-10.5 0.5q-25 3 -50 20q0 -30 0.5 -61t0.5 -58.5t0.5 -50.5t0.5 -38v-51.5t-1 -35.5q-1 -14 -1.5 -22t-2.5 -22q-1 -5 -10 -11.5t-21 -13
t-24.5 -11.5t-19.5 -7q-6 -2 -8.5 1t-2.5 5q2 6 5.5 16t4.5 24t1 34.5v51.5q0 20 0.5 54t1 74t1.5 82t1.5 78.5t1 62.5t0.5 35q0 15 3 31t10 31q8 20 22 40.5t32 39t38 33.5t41 24q31 13 55 13q12 0 25 -2.5t26 -7.5q28 -11 47 -35q10 -13 16 -27t11 -29zM269 308
q32 0 53.5 23t21.5 71q0 29 -7 53q-6 25 -21 44q-8 10 -16.5 16t-18.5 11q-18 7 -39 7q-44 0 -65.5 -27.5t-21.5 -69.5q0 -20 1.5 -33t5.5 -24t11.5 -21.5t20.5 -23.5q13 -14 28 -18.5t29 -6.5q5 0 9 -0.5t9 -0.5z" />
    <glyph glyph-name="h" unicode="h" 
d="M451 400q2 -6 -8.5 -17t-24.5 -24.5t-28.5 -28.5t-21.5 -27q-6 -12 -10 -24t-4 -26q1 -23 7.5 -41t17.5 -32q24 -27 48 -32q11 -3 10.5 -13.5t-14.5 -12.5q-33 -6 -59 0t-39 13q-17 9 -30.5 30t-13.5 50q0 15 3.5 28.5t8.5 25.5t15 25t18 22l14 15q1 1 6.5 6t12.5 12
t14 13.5t11 9.5q-1 0 -1.5 0.5t-1.5 0.5q-16 1 -35 1h-41q-34 0 -68.5 -0.5t-63.5 -1.5v-75v-91.5t0.5 -65.5t1 -43.5t1.5 -25.5q1 -18 4.5 -27t17.5 -13q9 -3 17 -4.5t25 -3.5q2 -4 0.5 -13.5t-4.5 -12.5q-14 0 -38.5 1.5t-64.5 1.5q-15 0 -30.5 -0.5t-29 -1t-24 -1
t-15.5 -0.5q-2 3 -2.5 12.5t2.5 13.5l24.5 3.5t19.5 5.5q14 5 16 25q1 11 2 28.5t1.5 45.5t0.5 67.5v94.5v58t-0.5 67t-1 60t-1.5 37q-1 8 -3 17t-12 11q-17 5 -52 8q-3 2 -2.5 11.5t3.5 11.5q37 2 78.5 12t68.5 21q2 -1 4.5 -4t2.5 -4q-5 -12 -7 -28.5t-2 -49.5
q-1 -20 -1 -50.5v-65.5h196q20 0 36 0.5t24 1.5h6h1l2 1q2 0 3 -1q2 0 6 -2t4 -5z" />
    <glyph glyph-name="i" unicode="i" 
d="M30 -12q0 12 10 19q2 2 22.5 14.5t49.5 41.5q37 41 84 116q-26 42 -44 74.5t-30 61.5q-25 60 -25 114q0 21 8.5 41t16.5 37q6 11 17 24.5t24 26.5t26 23.5t24 15.5q12 5 22 8t24 3q29 0 53 -11q12 -6 22 -13.5t18 -18.5q17 -20 24 -45t7 -54q0 -28 -5.5 -55.5
t-18.5 -58.5q-12 -29 -30 -61t-44 -74q31 -49 55 -82q30 -39 51 -60q13 -12 24 -19q4 -3 7 -3h2q8 0 14.5 -6.5t6.5 -15.5q0 -3 -8 -12.5t-18.5 -20t-20 -18.5t-12.5 -8q-11 0 -21 5q-5 2 -10 5t-10 7q-10 7 -20 16.5t-21 22.5q-17 19 -36 44.5t-40 57.5q-5 -7 -10 -13.5
t-10 -12.5q-30 -39 -52 -60q-5 -5 -7 -8l-6 -6q-5 -3 -8 -8q-2 -2 -4.5 -4t-4.5 -4q-3 -4 -6.5 -7t-6.5 -6q-18 -17 -34 -24q-12 -5 -22 -5q-9 0 -18 3.5t-9 12.5zM192 369q9 -20 25 -44.5t34 -53.5q20 34 30 61q12 28 17 50.5t5 46.5q0 34 -13 58q-6 11 -14 22t-19 16
q-8 4 -21.5 7.5t-24.5 3.5q-9 0 -18 -1.5t-15.5 -8.5t-10.5 -21t-4 -39q0 -23 9 -46t20 -51z" />
    <glyph glyph-name="j" unicode="j" 
d="M410 289q0 -8 -2 -14q-1 -3 -2 -4q-1 1 -7.5 1.5t-10.5 0.5q-7 0 -16 0.5t-20 0.5q-12 0 -25.5 0.5t-27.5 0.5q-23 -50 -45.5 -98.5t-41.5 -89t-32 -70.5t-18 -44q-1 -2 -3 -3t-3 -1q-7 1 -20 6.5t-17 10.5q-2 2 -1.5 6.5t1.5 6.5q10 22 25 53t33 67.5t37.5 76t39.5 79.5
h-5h-53t-50 -1q-12 0 -26 -0.5t-26.5 -1t-21 -1l-8.5 -0.5q-3 0 -9.5 7.5t-4.5 11.5q0 1 0.5 9t0.5 13q1 10 1 22.5v26.5q0 22 -0.5 47l-1 50t-1.5 47.5t-2 39.5q0 11 -1 17t-1 15q0 10 3 18q1 4 3 9q11 -4 33.5 -6t45.5 -2h193h56.5t48.5 2q2 -1 3.5 -5.5t0.5 -6.5
q-5 -16 -14.5 -41t-22.5 -56.5t-29 -67.5t-34 -74h9t9 1q35 0 50 3q5 0 5 1q1 0 2 -3q1 -2 2 -6t1 -11v-43zM358 515q-10 0 -30.5 0.5t-47 0.5h-55.5t-56.5 -0.5t-50 -1t-35.5 -1.5q-1 -11 -0.5 -22.5t0.5 -22.5v-78q1 -13 1 -23v-16q3 -1 9 -1q11 0 23.5 -0.5t27.5 -0.5
q29 -1 63 -1.5t67 -0.5h15q26 54 45.5 97t26.5 66q0 5 -3 5z" />
    <glyph glyph-name="k" unicode="k" 
d="M428 346q6 -23 8.5 -45.5t2.5 -44.5q0 -61 -19 -110t-47 -83q-11 -14 -19.5 -24.5t-17.5 -20t-21 -17.5t-29 -17q-24 -12 -50 -12q-24 0 -45.5 10.5t-38.5 28.5q-16 18 -25.5 42.5t-9.5 53.5q0 30 11 62.5t36 66.5q7 10 25 29t37 39t35 36t20 19q8 8 16 14t16 13
q-26 7 -56 12t-60 5q-29 0 -47.5 -2t-29 -9.5t-14.5 -22t-4 -38.5q0 -15 2.5 -33t8.5 -39q2 -5 0.5 -11t-6.5 -15q-6 -8 -13.5 -17t-19.5 -17t-16 -8q-3 0 -3 2q-19 58 -19 103q0 27 8 51q6 17 18 35.5t29 34.5t38 28t45 18q28 6 58 6q14 0 28.5 -1t28.5 -3
q-20 35 -42.5 66.5t-45.5 56.5q-35 37 -70 52v2q0 1 -0.5 2.5t0.5 3.5q1 5 2.5 7.5t3.5 6.5q1 3 4 4q1 1 3 1q41 -17 84.5 -50t84.5 -77q40 -44 71 -93.5t44 -100.5zM278 44q23 0 40 9t28 29t16 53t5 80q0 41 -10 82q-4 15 -8.5 30.5t-11.5 32.5q-8 0 -24 -14t-33.5 -31.5
t-31.5 -34t-18 -20.5q-23 -31 -32 -59t-9 -52t7.5 -43.5t19.5 -33.5q26 -28 62 -28z" />
    <glyph glyph-name="l" unicode="l" 
d="M135 -1q12 26 31 64.5t41 83t45.5 92t45.5 92.5t40 84.5t29 66.5q-16 -16 -38 -25t-45 -9q-25 0 -46 14t-34 42q-14 -21 -37 -37.5t-50 -16.5q-44 0 -69.5 33t-27.5 85q-1 6 7 16.5t16 14.5t20.5 6.5t12.5 -3.5q0 -13 5.5 -26.5t16.5 -22.5t23 -14.5t29 -5.5q9 0 17 1.5
t16 6.5t8.5 9.5l1.5 13.5q0 5 3.5 14.5t21.5 18.5q19 9 30 11t11 -9q0 -12 5.5 -24.5t16.5 -21.5t25 -14.5t31 -5.5q9 0 21 6q6 3 12 8t11 10q11 11 20 24.5t14 21.5q3 7 14 3.5t16 -9.5q0 -1 0.5 -1t0.5 -1q1 -1 1 -2q1 -3 1 -7q-8 -27 -29 -78t-49 -113t-59 -129
t-58.5 -126t-48 -104t-26.5 -63q-1 -2 -3 -3t-3 -1q-7 1 -20 6.5t-17 10.5q-2 2 -1.5 6.5t1.5 6.5z" />
    <glyph glyph-name="m" unicode="m" 
d="M165 382q5 0 10 -0.5t10 -1.5q-12 43 -25 83.5t-26 75.5q-8 23 -19.5 30.5t-25.5 7.5q-10 0 -26.5 -9t-23.5 -17q-4 -6 -6 -1q-2 11 2 20q0 4 3 7q30 41 76 41q15 0 30 -4.5t29 -14.5q18 -12 26 -26t17 -40q14 -44 27.5 -90t27.5 -95q19 -10 34 -15q18 -7 38 -7
q22 0 53 14q30 14 62 50q1 1 5 0l6 -3q0 -5 -3 -18l-5 -18q-8 -12 -22 -28q-12 -14 -33 -28q-19 -13 -43 -22q-23 -9 -48 -9h-10.5t-10.5 2q14 -54 26 -107t22 -102q5 -22 18.5 -30t27.5 -8q10 0 25.5 9.5t22.5 17.5q1 2 5 2q1 0 1.5 -3.5t0.5 -8t-0.5 -8.5t-0.5 -5
q0 -4 -1 -5q-30 -40 -79 -40q-15 0 -30 4.5t-29 14.5q-18 12 -30 30t-15 36q-9 51 -22.5 113.5t-30.5 127.5q-16 7 -32 12q-20 5 -38 5q-13 0 -32 -8t-35 -18q-18 -11 -31 -23q-14 -11 -21 -18q-2 -2 -5 1q-2 4 -2 5q0 10 4 22q4 14 7 17q10 13 27 27q18 15 39 27
q21 13 42 21q22 8 37 8z" />
    <glyph glyph-name="n" unicode="n" 
d="M341 258q43 -16 68.5 -48t25.5 -72q0 -27 -10.5 -55t-29.5 -51.5t-45.5 -38t-58.5 -14.5q-28 0 -54 19t-47.5 48.5t-36.5 65.5t-20 71q-7 47 -10.5 95.5t-7 98t-8.5 100.5t-14 104q-3 15 -9.5 26.5t-20.5 11.5q-7 0 -11 -1t-8 -3q-9 -6 -18 -13q-9 -9 -19 -1q-11 8 -5 18
q7 11 15.5 24.5t19 25.5t23.5 20t30 8q15 0 25.5 -6t18 -16.5t12 -23.5t7.5 -27q14 -52 20 -132t11 -183q1 -7 9 -9q42 -8 76.5 -18t71.5 -24zM341 43q21 0 21 30q0 5 -1 16.5t-5.5 26.5t-13 31.5t-24.5 31.5q-9 9 -23.5 17.5t-30 14.5t-31.5 10t-29 4q-6 0 -4 -8
q3 -23 15 -55.5t35 -58.5q11 -14 25.5 -25.5t27.5 -19t23.5 -11.5t14.5 -4z" />
    <glyph glyph-name="o" unicode="o" 
d="M460 453q1 1 5 0t6 -3q0 -5 -3 -18t-5 -18q-7 -12 -20 -26t-30 -26.5t-38.5 -22t-44.5 -11.5q7 -13 12.5 -25t10.5 -23q25 -60 25 -114q0 -21 -8 -41t-17 -37q-6 -11 -17 -24.5t-24 -26.5t-26.5 -23.5t-23.5 -15.5q-12 -5 -21.5 -8t-24.5 -3q-28 0 -53 11q-12 6 -22 13.5
t-18 18.5q-16 20 -23.5 45t-7.5 54q0 28 5.5 55.5t19.5 58.5q11 28 29 60t43 72q-27 9 -52 9q-14 0 -32 -7.5t-35 -18.5t-31 -22.5t-21 -18.5q-2 -2 -4.5 1t-2.5 5q0 8 4.5 22.5t6.5 16.5q8 11 22.5 23.5t32 24t36 20t34.5 12.5l-12 18q-14 20 -27 34.5t-24 25.5
q-13 12 -24 19q-5 3 -7 3h-1q-9 0 -15.5 6.5t-6.5 15.5q0 3 8 12.5t18.5 20t20 18.5t12.5 8q10 0 22 -5q11 -6 19 -12q10 -7 20 -16.5t21 -22.5q17 -19 36 -44.5t41 -57.5l19 26q30 39 52 60l7 8l6 6l9 8l4 4l4 4q3 4 6.5 7t6.5 6q18 17 34 24q12 5 22 5q9 0 18 -3.5
t9 -12.5q0 -12 -10 -19q-2 -2 -22.5 -14.5t-49.5 -41.5q-37 -41 -84 -116l6 -11q16 -7 31 -11.5t29 -4.5q23 0 53 14t62 50zM264 59q10 0 18.5 1.5t15 8.5t10.5 21t4 39q0 23 -8.5 46t-20.5 51q-8 20 -24 44.5t-35 53.5q-20 -34 -30 -61q-12 -28 -17 -50.5t-5 -46.5
q0 -34 13 -58q6 -11 14 -22t19 -16q8 -4 21.5 -7.5t24.5 -3.5z" />
    <glyph glyph-name="p" unicode="p" 
d="M106 -4q3 12 15.5 33.5t27.5 35.5t34 14q34 0 64 -2.5t43 -3.5q5 0 8 3.5t5 5.5q8 16 12.5 22.5t9.5 22.5q2 5 0 9t-4 5q-17 9 -43.5 22.5t-55 28t-56 29.5t-45.5 29q-43 31 -62 64.5t-19 80.5q0 48 22 91.5t56 77.5t75.5 54t81.5 20q51 0 82.5 -15.5t48.5 -33.5
q5 -5 9.5 -14.5t4.5 -17.5t-6 -26t-12 -26q-1 -2 -6 -3.5t-7 -0.5q-11 18 -26 34.5t-34.5 29t-43.5 20.5t-53 8q-26 0 -47 -13t-36 -34t-23 -47t-8 -51q0 -23 4 -41.5t13.5 -35t26 -32.5t40.5 -33q21 -15 45.5 -28.5t47 -25t41 -21t28.5 -16.5q2 -3 3 -14t-1 -16
q-6 -23 -14.5 -49.5t-17.5 -51.5t-18 -46t-16 -31q-5 -4 -10 -8.5t-12 -3.5q-8 0 -21 1t-28.5 2t-32 1.5t-29.5 0.5q-19 0 -29 -3.5t-21 -11.5q-2 0 -7 4t-4 7z" />
    <glyph glyph-name="q" unicode="q" 
d="M248 260q36 0 65.5 -9.5t50.5 -26.5t32.5 -40t11.5 -50q0 -26 -4.5 -44.5t-14 -32.5t-24.5 -25.5t-35 -22.5q-15 -8 -43 -15.5t-53 -7.5q-44 0 -74.5 12t-50.5 31.5t-29 44.5t-9 51v71q0 29 0.5 62t0.5 58v43.5t-0.5 40t-0.5 32v19.5v8q0 37 18.5 72t48.5 51
q22 11 50.5 18.5t56.5 7.5q72 0 110.5 -34t38.5 -86q0 -36 -19 -66.5t-55 -49.5q-15 -8 -42.5 -15t-51.5 -7q-46 0 -76 9v-44v-33.5t1 -37.5q0 -1 1.5 -2t3.5 0q20 8 44.5 13t47.5 5zM259 24q42 0 56 21t14 63q0 27 -9 49.5t-24 39t-34.5 26t-40.5 9.5q-29 0 -48.5 -20.5
t-19.5 -71.5q0 -21 9.5 -42t24.5 -37.5t34 -26.5t38 -10zM153 462q0 -38 20.5 -61t70.5 -23q41 0 55.5 24.5t14.5 65.5q0 58 -23.5 82t-59.5 24q-16 0 -30 -8.5t-24.5 -23.5t-17 -35.5t-6.5 -44.5z" />
    <glyph glyph-name="r" unicode="r" 
d="M32 20q27 21 56 37t53 34t39.5 40.5t15.5 56.5q0 33 -9.5 57t-26.5 39t-40 22.5t-50 7.5q-6 0 -15.5 -0.5t-20.5 -2.5q-1 1 0.5 7t4 12.5t5 12t4.5 6.5q36 7 58.5 18.5t35.5 26t18 32.5t5 39q0 60 -34 96.5t-87 36.5q-2 2 0 7t5 10l8 12q12 3 27 3q31 0 59.5 -11.5
t51 -31t36 -45.5t13.5 -54q0 -25 -4.5 -42t-13.5 -29.5t-21.5 -22.5t-27.5 -20q-3 -3 0 -5q16 -5 35 -15t34.5 -26t26 -39t10.5 -55q0 -20 -8.5 -42t-22.5 -43t-32 -41t-36 -36q18 -1 40 -1.5l44 -1t43 0t38 0.5q7 0 15 3t17 12.5t19.5 27t24.5 46.5q5 2 14.5 -2t11.5 -9
q-3 -12 -9 -32.5t-13.5 -42t-16 -41t-14.5 -28.5q-2 -3 -12 -5t-36 -2h-57.5t-68 1t-71.5 1.5t-67 0.5q-13 0 -27 -0.5t-23 -1.5q-2 2 -3 10t-1 12z" />
    <glyph glyph-name="s" unicode="s" 
d="M403 66q6 -8 -0.5 -22.5t-12.5 -20.5q-15 -11 -33.5 -20.5t-39.5 -15.5q-36 -10 -73 -9t-69.5 11.5t-57.5 29.5t-38 45q-20 42 -2.5 84.5t64.5 69.5q3 0 0 3q-17 11 -30.5 24t-21.5 30q-10 19 -10.5 39.5t7 39.5t23 35.5t36.5 29.5q3 2 1 4q-27 18 -41 44
q-11 22 -8.5 45.5t15.5 43.5t36 36t54 25q24 7 50.5 7t52.5 -4.5t49 -14t38 -21.5q1 -4 1 -8q0 -9 -7 -26q-5 -12 -12.5 -26t-13.5 -15q-4 -1 -8 1q-2 1 -3 1q-4 6 -4 18t-14 25q-14 10 -31 18t-34.5 13t-33.5 6t-26 -2q-31 -9 -33.5 -37.5t14.5 -62.5q7 -16 22 -23.5
t33.5 -11t37.5 -5.5t36 -6q31 -7 30 -19t-38 -22q-60 -17 -115 -1q-3 1 -5 0q-20 -16 -23.5 -44t10.5 -59q9 -18 26.5 -27t39.5 -14t46 -8.5t45 -9.5q20 -6 18.5 -15.5t-22.5 -16.5q-8 -4 -15 -5q-30 -8 -60.5 -8.5t-59.5 6.5q-2 1 -6 -1q-24 -16 -30 -43t10 -60
q10 -20 25 -34t33 -23t38 -12.5t39 -1.5q38 4 57 12t33 28q2 2 5.5 3t5.5 -2z" />
    <glyph glyph-name="t" unicode="t" 
d="M24 309q13 16 32.5 41.5t41.5 56t44.5 61.5t41.5 57.5t32.5 45.5t17.5 25q14 4 24 6t22 2q0 -3 0.5 -26.5t0.5 -60t0.5 -81.5t1.5 -92.5t1.5 -93t0.5 -81.5t0.5 -59.5t0.5 -27.5q0 -9 4 -3q7 10 23 34.5t36 55.5t42.5 64t42.5 61q3 3 5 2q5 -3 12 -11.5t11 -15.5
q1 -3 -1 -7q-17 -22 -41.5 -56t-52 -72t-54 -77t-45.5 -70q-18 0 -35 -1t-24 -3q-2 -1 -4.5 5.5t-2.5 10.5q1 138 2 231.5t1.5 151.5t0.5 83v27q0 3 -1 4t-3 -2q-20 -32 -44 -67.5t-46.5 -67t-39.5 -55.5t-23 -32q-3 -3 -5 0q-8 8 -12 15.5t-8 21.5z" />
    <glyph glyph-name="u" unicode="u" 
d="M445 591q0 -1 -0.5 -18t-2 -39t-2 -44t-0.5 -33q1 -22 -4 -28t-6 -7q-7 -6 -30 -16t-53 -24.5t-64 -33t-62.5 -41.5t-48 -49.5t-21.5 -56.5q-2 -32 3 -59t20 -50q6 -10 16 -19t21 -14q24 -11 52 -11h14.5t13.5 1q-5 3 -8.5 6.5l-7.5 7.5q-9 9 -16.5 23t-9 29.5t4 32.5
t22.5 34q27 27 62.5 27.5t62.5 -26.5q21 -21 23.5 -51t-14.5 -54l-5 -6v-1q-1 0 -5 -8q-7 -11 -15.5 -21.5t-19.5 -20.5q-23 -20 -54 -33q-30 -13 -81 -13q-35 0 -64 13q-31 12 -53 36q-24 24 -37 56q-13 30 -13 72q0 34 12.5 68.5t42.5 70.5q22 26 62 51t82 45t76.5 33.5
t44.5 16.5q4 1 7 7t4 17.5t1.5 22.5t0.5 20.5v11.5q0 11 -6 12q-3 0 -15 0.5t-26 1.5t-26.5 1.5t-18.5 0.5q-17 1 -38.5 1t-34.5 1h-101q-8 0 -15 -3q-8 -3 -17 -12q-5 -5 -10 -12t-10 -15q-5 -9 -11 -21l-13 -26q-6 -2 -15 2q-10 5 -11 9l9 32l13 42q4 11 8 21.5t8 20.5
q8 18 15 28q2 4 12 5q5 1 14 1.5t22 0.5h57h34t34 -1q18 -1 36 -1h35q18 -1 35 -1h33h13.5t13.5 1q7 0 16 -3.5t9 -10.5zM296 163q-5 -5 2.5 -25t22.5 -36q37 -37 55 -20q8 8 1 25t-24 34t-34.5 22t-22.5 0z" />
    <glyph glyph-name="v" unicode="v" 
d="M393 582q1 1 5 3.5t8.5 4t8.5 3t5 1.5q2 0 4 -1.5t1 -3.5q-11 -32 -26.5 -62t-37.5 -53.5t-51 -38t-66 -14.5q-46 0 -72 23v-147v-91.5t0.5 -65.5t1 -43.5t1.5 -25.5q1 -18 4.5 -27t17.5 -13q9 -3 17 -4.5t25 -3.5q2 -4 0.5 -13.5t-4.5 -12.5q-14 0 -38.5 1.5t-64.5 1.5
q-15 0 -30.5 -0.5t-29 -1t-24 -1t-15.5 -0.5q-2 3 -2.5 12.5t2.5 13.5l24.5 3.5t19.5 5.5q14 5 16 25q1 11 2 28.5t1.5 45.5t0.5 67.5v94.5v58t-0.5 67t-1 60t-1.5 37q-1 8 -3 17t-12 11q-17 5 -52 8q-3 2 -2.5 11.5t3.5 11.5q37 2 78.5 12t68.5 21q2 -1 4.5 -4t2.5 -4
q-3 -8 -5 -17.5t-3 -23.5q0 -16 5 -30.5t16.5 -26t30 -18.5t46.5 -7q20 0 36 8t30 22t27.5 33.5t27.5 42.5z" />
    <glyph glyph-name="w" unicode="w" 
d="M408 188q14 -40 7 -77.5t-36 -66.5q-12 -13 -37 -28t-50 -21q-44 -12 -80 -8t-64 19t-46.5 38t-28.5 50q-5 14 -7 33t-0.5 40t6.5 42.5t14 40.5q22 43 59 76q36 31 69 50.5t73 42.5q25 18 34 41.5t-17 60.5q-11 15 -26 27.5t-30.5 19.5t-31.5 8t-29 -5q-26 -14 -26 -41
t23 -59q7 -10 15 -17q4 -4 -3 -14t-18 -19.5t-23.5 -14.5t-19.5 1q-18 15 -29.5 35t-11.5 46q0 30 15.5 53.5t40 39.5t54.5 24.5t58 8.5q66 0 99.5 -30.5t33.5 -80.5q0 -26 -16 -50.5t-54 -50.5q-2 0 -4 -2q-23 -14 -46 -29t-44 -33q-17 -14 -33.5 -32t-27.5 -35
q-2 -2 -1.5 -3t2.5 1q7 4 15 7.5t14 5.5q36 9 69 6t60.5 -16t47.5 -34.5t31 -49.5zM299 30q21 6 30.5 16.5t11.5 25t-3 33t-13 40.5q-22 59 -56 86t-85 14q-11 -3 -16.5 -5.5t-12.5 -10.5q-13 -47 21 -122q8 -19 22 -35t30.5 -27t34.5 -15.5t36 0.5z" />
    <glyph glyph-name="x" unicode="x" 
d="M444 550q0 -2 -2 -5.5t-3 -4.5q-29 -18 -62 -40t-67.5 -46.5t-69.5 -50.5t-68 -51q-1 -1 -1 -2.5t2 -1.5q23 0 59 -0.5t72.5 -0.5t67.5 1t44 3q5 0 5 1q1 0 2 -3q1 -2 2 -6t1 -11v-28q0 -3 -3 -6q-89 -58 -157.5 -114.5t-119.5 -107.5q-1 -1 0 -3t3 -2q15 0 44 -0.5
t60.5 -0.5t61.5 0.5t48 2.5q22 2 35.5 3t21.5 17q2 4 13 -1.5t13 -9.5q-5 -17 -8 -27.5t-5 -20.5t-4 -21.5t-5 -30.5q-11 4 -33.5 6t-45.5 2h-193h-56.5t-48.5 -2q-2 1 -3.5 5.5t-0.5 6.5q2 6 2 15.5t2 21.5q0 2 2 5t3 4q26 24 58.5 53t68.5 59t73 59t73 55q3 3 -2 3
q-45 0 -111 -1t-132 -3q-3 0 -9.5 7.5t-5.5 11.5h1v7t1 12q0 3 3 6q44 38 80.5 65.5t68 50t60 41t57.5 38.5q2 1 0.5 3t-3.5 2q-15 0 -42.5 0.5t-57.5 0.5t-58.5 -1t-46.5 -2q-22 -2 -35.5 -2.5t-21.5 -17.5q-2 -3 -13 2t-13 9q5 16 8 27t5 21t4 21.5t5 30.5q11 -4 33.5 -6
t45.5 -2h193h56.5t48.5 2q2 -1 3.5 -5.5t0.5 -6.5q-2 -6 -2 -15t-2 -21z" />
    <glyph glyph-name="y" unicode="y" 
d="M447 387q-22 -28 -37.5 -46.5t-27.5 -33.5t-22 -30t-21 -35q-25 -44 -31 -92q26 17 56 14t53 -26q28 -28 25 -61t-27 -57q-28 -28 -65 -28q-21 0 -40 8.5t-34 22.5t-24 33.5t-9 42.5q0 26 8.5 54t24.5 57q6 11 17 27t24 34t27.5 37t27.5 37q-1 0 -2 1q-17 1 -30 1h-35
q-32 0 -65 -0.5t-62 -1.5q-5 0 -5 -5v-43v-91.5t0.5 -65.5t1 -43.5t1.5 -25.5q1 -18 5.5 -26t16.5 -14q12 -7 30 -8q4 0 1.5 -11.5t-5.5 -14.5q-14 0 -32.5 1.5t-58.5 1.5q-15 0 -30.5 -0.5t-29 -1t-24 -1t-15.5 -0.5q-2 3 -2 13t2 13q10 2 24 3.5t20 5.5q8 5 11.5 10
t4.5 15q1 11 2 28.5t1.5 45.5t0.5 67.5v94.5v55.5t-0.5 66t-1.5 70t-2 67.5q0 14 -12 16q-8 1 -21 1t-33 1q-2 1 -1.5 13.5t5.5 20.5q21 -1 59.5 -2t80 -1t80 0.5t60.5 2.5q2 -3 -0.5 -11t-4.5 -10t-16.5 -8t-52.5 -6h-35t-23 -5q-6 -5 -6 -15v-58t-1 -81q0 -5 6 -5h97h93
q20 0 36 0.5t24 1.5q7 0 9 1q12 -2 13 -8q2 -4 -4 -13zM312 118q-5 -5 2.5 -25t22.5 -36q37 -38 55 -20q5 5 1 22t-24 37q-17 17 -34.5 22t-22.5 0z" />
    <glyph glyph-name="z" unicode="z" 
d="M126 -19q-14 0 -27.5 6.5t-23.5 17.5t-16 25.5t-6 29.5q0 38 16.5 77t42.5 74.5t58 64t63 46.5q-36 9 -72 24q-43 16 -68.5 48t-25.5 72q0 27 10.5 55t30 51.5t45.5 38t58 14.5q28 0 54 -19t47.5 -48.5t36.5 -65.5t20 -71q7 -47 10.5 -102.5t7 -114t8.5 -117t14 -110.5
q3 -15 9.5 -26.5t20.5 -11.5q12 0 19 4q9 6 18 13q8 8 20 1q10 -8 4 -18q-7 -11 -15.5 -25t-19 -26t-24 -20t-29.5 -8q-31 1 -43.5 23.5t-19.5 50.5q-9 34 -14.5 91t-9.5 124q-13 -38 -33.5 -68.5t-46 -53t-56 -34.5t-63.5 -12zM309 305q-27 0 -57.5 -15t-55.5 -41.5
t-41.5 -62.5t-16.5 -78q0 -23 14 -36.5t31 -13.5q30 0 54.5 20.5t42 54t27.5 76t11 86.5q-1 8 -8 10h-1zM161 561q-21 0 -21 -30q0 -5 -0.5 -16t2.5 -25t10.5 -30t23.5 -31q9 -9 24.5 -18t33 -16t34.5 -11t30 -4q6 0 4 7q-3 23 -14.5 55.5t-34.5 58.5q-11 14 -25.5 25.5
t-28 19t-24 11.5t-14.5 4z" />
    <glyph glyph-name="braceleft" unicode="{" horiz-adv-x="424" 
d="M58 292q42 1 64.5 12.5t31.5 31.5t8.5 47.5t-3.5 61.5q-1 7 -2 20.5t-2 27.5t-2 26.5t-1 17.5q0 100 51.5 149.5t150.5 57.5q3 -2 4 -14t0 -15q-80 -13 -110.5 -48.5t-30.5 -93.5q0 -35 6.5 -80t6.5 -83q0 -16 -2.5 -35.5t-13 -38t-31.5 -34.5t-59 -25q-2 -3 0 -5
q41 -4 64 -18.5t34 -34t13.5 -41t2.5 -38.5q0 -45 -7 -89t-7 -80q0 -35 13 -58t33 -37t45.5 -21.5t51.5 -10.5q1 -1 0.5 -5.5t-1.5 -9.5t-2.5 -9.5t-3.5 -5.5q-39 -1 -75 7.5t-63.5 28t-44.5 49.5t-17 71q0 18 2 40.5t5 61.5q3 40 5.5 71.5t-6.5 55t-35.5 38.5t-80.5 22
q-1 2 -0.5 7t2 10.5t3 10t3.5 5.5z" />
    <glyph glyph-name="bar" unicode="|" horiz-adv-x="289" 
d="M177 710v-1020h-65v1020h65z" />
    <glyph glyph-name="braceright" unicode="}" horiz-adv-x="428" 
d="M368 257q-42 -1 -65 -12.5t-32.5 -32t-9.5 -48t4 -61.5q1 -7 2 -19.5t2 -25.5t2 -24.5t1 -16.5q0 -103 -51 -151.5t-151 -56.5q-3 2 -5 14t0 15q80 13 111 47.5t31 93.5q0 35 -7 78t-7 81q0 16 3 35t14 38t32.5 35t57.5 26q1 1 1.5 3t-1.5 3q-41 4 -64 18.5t-34 33.5
t-13.5 40t-2.5 38q0 45 6.5 92.5t6.5 83.5q0 35 -13 58t-33.5 37t-46 21t-50.5 10q-1 1 -0.5 5.5t2 9.5t3 9t2.5 5q39 1 75 -7.5t64 -27t45 -48t17 -71.5q0 -18 -1.5 -40t-5.5 -62t-5 -73t9 -58t36.5 -41t78.5 -22q1 -2 0.5 -7t-1.5 -10t-3 -9.5t-4 -5.5z" />
    <glyph glyph-name="asciitilde" unicode="~" horiz-adv-x="547" 
d="M200 301q21 0 43 -7.5t56 -22.5q22 -11 41 -18.5t38 -7.5q23 0 53 14t62 50q1 1 5 0t6 -3q0 -5 -3 -18t-5 -18q-7 -12 -21.5 -27.5t-33.5 -28.5t-42.5 -22t-48.5 -9q-20 0 -44 10t-56 26q-23 11 -41.5 16t-38.5 5q-14 0 -32 -7.5t-35 -18.5t-31 -22.5t-21 -18.5
q-2 -2 -4.5 1t-2.5 5q0 8 4.5 22.5t6.5 16.5q10 13 27.5 27.5t38.5 27t42 20.5t37 8z" />
    <glyph glyph-name="uni00A0" unicode="&#xa0;" horiz-adv-x="190" 
 />
    <glyph glyph-name="exclamdown" unicode="&#xa1;" horiz-adv-x="275" 
d="M95 -214q-5 0 -11 2t-8 7q0 6 2 28.5t5 57t7 76.5t8 86.5t8 88.5t7 82q1 1 6 0.5t10 -1.5t9.5 -3t5.5 -3q5 -51 11.5 -111.5t12.5 -115.5t10.5 -97.5t5.5 -58.5q1 -5 -3.5 -14t-10.5 -11t-16.5 -4.5t-22 -4.5t-21.5 -3t-15 -1zM126 304q-23 0 -37 13q-11 10 -14 21.5
t-3 21.5q0 7 3.5 18.5t11.5 19.5q17 17 44 17q8 0 18 -3t18 -11q15 -18 15 -41q0 -11 -3.5 -21.5t-12.5 -19.5q-8 -8 -19 -11.5t-21 -3.5z" />
    <glyph glyph-name="cent" unicode="&#xa2;" 
d="M266 446q0 5 -3 5q-29 -1 -52 -13t-39 -32t-24.5 -46t-8.5 -56q0 -57 23 -99.5t74 -60.5zM60 273q0 54 26.5 101.5t79.5 77.5q47 27 105 34l7 74q5 2 17.5 4.5t18.5 1.5l-8 -76q45 0 80 -13q5 -2 17 -8.5t17 -16.5q1 -3 0 -9t-2 -8q-6 -10 -15 -20t-15 -13q-2 -1 -7 -1
q-11 11 -30 25.5t-46 20.5q-4 0 -5 -4l-30 -306q6 -1 11.5 -1h12.5q26 0 60 11.5t63 38.5q2 -2 3 -13.5t0 -15.5q-35 -41 -77.5 -60t-75.5 -23q-3 0 -5 -4l-7 -73q-2 -1 -6.5 -2t-10.5 -2t-11 -1t-7 1l9 78q-1 5 -4 5q-38 5 -69 21.5t-54 45.5q-20 23 -31 57.5t-11 72.5z
" />
    <glyph glyph-name="sterling" unicode="&#xa3;" 
d="M303 -26q-12 0 -23 1.5t-23 4.5t-27 8l-36 12q-35 11 -56.5 16.5t-35.5 5.5q-13 0 -26.5 -6.5t-39.5 -31.5q-3 0 -7.5 3t-5.5 5q0 1 1.5 8.5t4 16t5 15.5t4.5 9q9 8 20 15t19 12q7 4 14.5 14t13 32t7.5 58.5t-1 94.5h-11.5h-22t-24 0.5t-15.5 0.5q-1 1 -1 3v4q1 5 6 16.5
t8 14.5q8 0 23 -0.5t37 -0.5q0 25 1 52.5t6.5 55t15 53.5t26.5 48q22 28 46 46t46 28.5t38.5 15t22.5 4.5q39 0 60.5 -12.5t21.5 -20.5q-1 -11 -7 -29t-11 -27q-2 -2 -5 -3t-5 0q-15 14 -41.5 28.5t-55.5 14.5q-18 0 -29.5 -8t-16.5 -18q-17 -33 -20.5 -88.5t-3.5 -134.5
q0 -5 5 -5q46 0 79 0.5t64 2.5q1 -2 -1 -9t-4 -9q-7 -8 -16.5 -13t-19.5 -7q-7 -1 -20 -2t-28 -1.5t-30.5 -0.5h-25.5q-5 0 -5 -6q-2 -23 -5.5 -45.5t-11.5 -46t-21 -46.5t-35 -45q21 4 48.5 0t55.5 -9q19 -4 44 -8.5t43 -4.5q22 0 38 2.5t29 12.5t24 30t24 54q4 4 9 1
q2 -2 6 -11.5t5 -14.5q-13 -43 -33 -72.5t-41.5 -48t-41.5 -26.5t-32 -8z" />
    <glyph glyph-name="currency" unicode="&#xa4;" 
d="M257 464q25 0 46.5 -7t38.5 -18q3 -3 6 0q17 19 28.5 32t20.5 19q1 1 8 2t14.5 1.5t14.5 1t9 0.5t3 -3t1 -5q-21 -23 -40.5 -46.5t-30.5 -37.5q14 -23 21.5 -47t7.5 -54q0 -33 -10 -61.5t-27 -51.5q-3 -5 0 -9q16 -19 37 -42t35 -37q1 -1 -0.5 -5t-3.5 -6q-5 -1 -13 -2
t-17 -1t-16 0.5t-10 2.5q-5 4 -13.5 11.5t-17 15.5t-16 15.5t-11.5 12.5q-43 -34 -99 -34q-28 0 -53.5 9.5t-43.5 25.5q-8 -7 -17.5 -17l-19 -20t-18 -19t-12.5 -13q-2 -2 -5.5 -1t-5.5 3q0 3 -1 10t-1 14.5t0.5 14.5t2.5 9q14 18 24.5 29t21.5 24q1 1 1 4q0 1 -1 3
q-8 17 -14.5 38.5t-6.5 50.5t7.5 57.5t24.5 51.5q-11 12 -26.5 30t-24.5 29q-3 3 -3 12q0 1 2.5 7.5t5.5 14t7 14.5t7 10q1 1 5 1.5t6 -1.5q13 -17 29.5 -37t30.5 -34q3 -3 8 0q23 17 53 25t51 8zM229 419q-25 0 -43 -10t-30 -26.5t-17.5 -38t-5.5 -45.5q0 -36 10 -62
t26.5 -43t37.5 -25t44 -8q18 0 35 5t30 18t21 36t8 59q0 28 -8.5 53.5t-23.5 45t-36.5 30.5t-47.5 11z" />
    <glyph glyph-name="yen" unicode="&#xa5;" 
d="M281 173q-4 0 -4 -4q0 -23 0.5 -45.5t0.5 -36.5t1.5 -23.5t4.5 -15t9 -9t16 -5.5q11 -2 21 -4t30 -4q2 -3 0.5 -14.5t-3.5 -14.5q-26 0 -56 1.5t-65 1.5q-38 0 -64.5 -1.5t-58.5 -1.5q-2 4 -2 15t2 14q19 2 29.5 3.5t23.5 3.5q19 5 24 16t6 34q1 14 1.5 36.5t0.5 48.5
q0 5 -5 5q-35 0 -57.5 -0.5t-37.5 -0.5q1 8 3 19.5t4 14.5q10 0 28 -0.5t62 -0.5q3 0 3 4v58q0 2 -1.5 4t-3.5 2q-39 0 -57.5 -0.5t-29.5 -0.5q1 8 3 19.5t4 13.5h77q2 0 3 2t0 4q-6 14 -15.5 34t-21 43t-24.5 48.5t-26 51.5q-13 25 -21.5 39.5t-16 21.5t-15 9.5t-18.5 5.5
t-17.5 3.5t-15.5 2.5q-2 4 -2.5 14t2.5 14q14 0 41.5 -1.5t61.5 -1.5q13 0 28.5 0.5t30.5 1t26.5 1.5t16.5 1q2 -3 2.5 -14.5t-1.5 -14.5q-8 -2 -17.5 -3.5t-14.5 -3.5q-11 -4 -10.5 -10.5t5.5 -17.5q9 -20 21 -46.5t24 -53.5t23.5 -50.5t18.5 -36.5q0 -1 2 -1t3 1l22 44
t24 49t22 47.5t17 39.5q12 28 -16 35q-9 2 -18.5 3.5t-23.5 3.5q-1 3 0.5 15t3.5 14q21 -1 42.5 -2.5t46.5 -1.5q18 0 29.5 0.5t21 1t18 1t20.5 1.5q2 -3 2 -14.5t-2 -14.5q-7 -2 -14 -3t-16 -3q-20 -5 -34 -18.5t-30 -42.5q-13 -25 -27 -52t-27.5 -53t-24.5 -49t-18 -38
q-2 -2 -0.5 -4.5t3.5 -2.5q37 1 63 1.5t32 0.5q1 -4 -1 -16t-4 -17h-93q-4 0 -4 -5q0 -14 -0.5 -28.5t-0.5 -29.5q0 -5 4 -5h26.5t28.5 0.5t24.5 0.5h14.5q1 -4 -1 -16t-4 -17h-88v0z" />
    <glyph glyph-name="brokenbar" unicode="&#xa6;" horiz-adv-x="289" 
d="M178 631v-348h-67v348h67zM178 127v-355h-67v355h67z" />
    <glyph glyph-name="section" unicode="&#xa7;" horiz-adv-x="470" 
d="M244 540q-12 0 -16 -7t-5 -18q0 -14 5 -30.5t11 -28.5q14 -30 38.5 -71.5t63.5 -103.5q38 -59 50 -100t12 -69q0 -29 -6.5 -59t-30.5 -73q-15 -27 -36.5 -49t-44 -38.5t-45.5 -25.5t-41 -9q-48 0 -77 16t-46 32q-15 17 -15 28q0 8 5.5 23.5t11.5 26.5q2 2 8 2
q17 -21 36.5 -35t37 -22.5t31.5 -12t20 -3.5q8 0 12 6t4 15q0 14 -8 33.5t-15 30.5q-12 20 -32 51.5t-43 65.5q-45 70 -65 124.5t-20 95.5q0 59 17.5 103t48.5 81q12 14 28 27t34.5 23.5t37.5 17t37 6.5q41 0 68 -15t41 -28q14 -16 14 -28q0 -9 -5.5 -21t-11.5 -20
q0 -1 -2.5 -1.5t-3.5 -0.5q-6 6 -20 16t-29.5 20t-30.5 17.5t-23 7.5zM266 -80q36 17 57.5 54.5t21.5 81.5q0 61 -21 107.5t-52 96.5q-14 22 -30 47t-30 51.5t-23.5 54t-10.5 55.5q-2 16 1.5 36.5t9.5 34.5q-19 -5 -36 -18.5t-29.5 -33t-19.5 -44t-7 -51.5q0 -58 22 -109
t51 -99q13 -20 30.5 -46.5t34 -55t28.5 -56.5t12 -51q1 -11 -1.5 -26t-7.5 -29z" />
    <glyph glyph-name="dieresis" unicode="&#xa8;" horiz-adv-x="400" 
d="M160 551q0 -14 -5.5 -26t-14.5 -19q-2 -1 -7.5 -2t-12.5 -1.5t-13.5 -0.5t-8.5 2q-19 10 -23 38q0 5 1 14.5t4 13.5q6 6 18 11t24 5q11 0 19 -3t10 -5q9 -11 9 -27zM324 551q0 -14 -5 -26t-14 -19q-2 -1 -7.5 -2t-12.5 -1.5t-13.5 0t-8.5 1.5q-19 10 -23 38q0 5 1 14.5
t4 13.5q6 6 18 11t25 5q11 0 18.5 -3t9.5 -5q4 -5 6 -12.5t2 -14.5z" />
    <glyph glyph-name="copyright" unicode="&#xa9;" horiz-adv-x="741" 
d="M371 629q70 0 128.5 -25t101 -68.5t66.5 -101.5t24 -125q0 -68 -25 -127t-68.5 -102.5t-102 -68t-124.5 -24.5q-68 0 -127 24t-102 67t-67.5 102t-24.5 129q0 67 25 125t68.5 101.5t102 68.5t125.5 25zM371 598q-59 0 -110 -22.5t-89 -61.5t-60 -92t-22 -113
q0 -59 22 -111.5t60 -91.5t89 -62t110 -23q63 0 114.5 22.5t88.5 61.5t57 91.5t20 112.5t-22 113t-60 92t-89 61.5t-109 22.5zM387 475q-32 0 -55 -12.5t-38 -34t-22 -50t-7 -61.5q0 -29 8 -58.5t25 -53t43 -38.5t63 -15q51 0 105 69q3 -1 9 -6t7 -8q-3 -10 -10 -22
t-14.5 -23t-14 -19t-9.5 -10q-15 -4 -35 -8.5t-49 -4.5q-97 0 -151.5 52t-54.5 139q0 35 12.5 69t39 61t66.5 43.5t95 16.5q17 0 33 -1.5t35 -3.5q12 -2 24 -3t27 0q-3 -20 -5 -50.5t-3 -52.5q-2 -2 -12.5 -2.5t-12.5 1.5q-4 29 -11 44t-21 25t-31.5 13.5t-35.5 3.5z" />
    <glyph glyph-name="ordfeminine" unicode="&#xaa;" horiz-adv-x="290" 
d="M284 266q0 -3 -1 -13.5t-3 -12.5q-13 -14 -30 -19.5t-31 -5.5t-23.5 5.5t-13.5 13.5q-2 4 -3.5 8.5t-2.5 8.5q0 1 -1.5 1.5t-2.5 -0.5q-27 -17 -48.5 -27t-35.5 -10q-21 0 -39 18q-24 24 -24 62q0 10 5 24t8 17q9 5 27.5 11t39 12t39.5 12t29 11q2 1 3 3l2 4v20
q0 10 -2 19.5t-9 18.5q-8 14 -21.5 20t-28.5 6q-12 0 -19.5 -3t-9.5 -5q-6 -4 -14.5 -18t-16.5 -29q0 -1 -4 0.5t-8.5 3.5t-8 4.5t-3.5 3.5q0 4 2 10.5t5 13t5.5 12t4.5 6.5q11 8 24.5 15.5t27 13t25 8.5t18.5 3q25 0 44.5 -10.5t30.5 -27.5q17 -28 17 -70q0 -26 -2 -58
t-2 -54q0 -11 5 -20.5t19 -9.5q15 0 27 4zM177 355q0 3 -3 3q-10 -4 -22 -8t-23.5 -8.5t-20.5 -8.5t-14 -7q-2 -2 -5 -8.5t-3 -12.5q0 -20 12.5 -31.5t35.5 -11.5q7 0 16 3t16 8q7 4 9 17q2 15 2 33v32z" />
    <glyph glyph-name="guillemotleft" unicode="&#xab;" horiz-adv-x="639" 
d="M167 190q18 -10 42 -26t47 -33.5t42.5 -34t28.5 -25.5q3 -5 4 -17.5t0 -19.5q-3 -5 -7 -5q-11 10 -43 32t-71 45.5t-77 44.5t-60 29q0 4 2.5 12.5t4.5 10.5q34 15 73 37t75 44t64.5 41.5t40.5 30.5q2 -1 3.5 -3t2.5 -3q0 -8 -3 -20.5t-5 -14.5q-8 -9 -28 -25t-44.5 -33.5
t-49.5 -34t-42 -26.5q-3 -3 0 -6zM381 190q18 -11 44 -28t51.5 -35.5t46.5 -35t30 -26.5q3 -5 4 -18t0 -20q-3 -5 -7 -5q-7 7 -25.5 20t-42.5 28.5t-52 32.5t-54.5 32t-50 26.5t-37.5 17.5q0 5 2.5 13.5t4.5 10.5q36 16 77.5 39t79 46t66.5 43.5t42 31.5q4 -2 6 -7
q0 -8 -3.5 -20.5t-5.5 -14.5q-9 -10 -30.5 -26.5t-48 -34.5t-53 -35.5t-44.5 -28.5q-4 -2 0 -6z" />
    <glyph glyph-name="logicalnot" unicode="&#xac;" horiz-adv-x="547" 
d="M85 286q-24 0 -29.5 1t-5.5 4q1 4 3 11.5t4.5 15.5t5 15t4.5 10q8 -2 51.5 -2h138.5h96.5t65 0.5t38 0.5h15.5q2 0 4 -2.5t2 -4.5v-29.5t-0.5 -49t-0.5 -57v-53.5q0 -35 0.5 -58t1.5 -33q-12 -4 -29 -7.5t-23 -3.5q-1 0 -4 3t-3 5q0 24 -0.5 57t-0.5 64.5t-0.5 56
t-0.5 32.5q0 5 -2.5 14.5t-9.5 9.5h-321v0z" />
    <glyph glyph-name="registered" unicode="&#xae;" horiz-adv-x="305" 
d="M152 612q29 0 54 -10.5t43 -28.5t28 -43t10 -54q0 -30 -10.5 -55t-29 -43t-43 -28t-52.5 -10q-29 0 -53.5 10t-42.5 28t-28 43t-10 55q0 28 10.5 52.5t28.5 43t42.5 29.5t52.5 11zM152 590q-23 0 -42.5 -8.5t-34 -24t-23 -36.5t-8.5 -45q0 -23 8.5 -43.5t23.5 -36
t34.5 -24.5t42.5 -9q46 0 77 31t31 82q0 23 -8.5 44t-23 36.5t-34.5 24.5t-43 9zM85 413q-2 7 0 11q15 2 18.5 4.5t3.5 9.5v82q0 7 -3 8.5t-17 3.5q-2 1 -1.5 7.5t2.5 6.5q6 0 14 -0.5t17 -0.5h45q21 0 31.5 -9.5t10.5 -24.5q0 -14 -9 -22t-20 -12q7 -11 14.5 -22t15.5 -19
q6 -6 9.5 -8.5t14.5 -3.5q1 -2 0 -6.5t-3 -6.5q-4 -1 -15.5 0t-19.5 3q-9 1 -15 11q-7 8 -12.5 17.5t-12.5 20.5q-2 4 -7 5.5t-9 1.5v-31q0 -7 4 -9t18 -4q1 -2 1 -6.5t-1 -6.5q-5 0 -16 0.5t-20 0.5q-12 0 -22.5 -0.5t-15.5 -0.5zM137 483q8 0 15 0.5t13 2.5q11 6 11 19
q0 12 -7.5 19.5t-23.5 7.5q-6 0 -7 -2.5t-1 -5.5v-41z" />
    <glyph glyph-name="macron" unicode="&#xaf;" horiz-adv-x="400" 
d="M106 555q5 -1 15 -1.5t30 -0.5h52h50h38.5h17.5q0 -5 -2 -13l-4 -16t-5 -14t-4 -6q-5 -1 -23.5 -1.5t-44 -0.5h-53.5h-52q-28 0 -32 1q0 4 2.5 12.5t5.5 16.5t5.5 15t3.5 8z" />
    <glyph glyph-name="degree" unicode="&#xb0;" horiz-adv-x="294" 
d="M148 601q56 0 84.5 -34t28.5 -84q0 -25 -9.5 -45.5t-25.5 -35.5t-37 -23.5t-44 -8.5q-48 0 -82 30t-34 81q0 30 9.5 52.5t26 37.5t38 22.5t45.5 7.5zM143 557q-29 0 -49.5 -20t-20.5 -49q0 -20 6.5 -34t17 -23t24 -13t26.5 -4q29 0 50.5 15t21.5 53q0 28 -19.5 51.5
t-56.5 23.5z" />
    <glyph glyph-name="plusminus" unicode="&#xb1;" horiz-adv-x="547" 
d="M47 12q-2 0 -2.5 3.5t-0.5 5.5q1 8 5.5 25t6.5 22q8 -2 39 -1.5t75 0.5l331 -1q2 0 2.5 -3.5t-0.5 -5.5q0 -2 -1.5 -9t-3.5 -14.5t-4.5 -14t-5.5 -6.5zM504 353q0 -2 -2 -8.5t-4 -14t-5 -13.5t-5 -6q-5 0 -25 -0.5t-47.5 -0.5h-58h-55.5q-3 0 -4.5 -2.5t-1.5 -4.5v-52
v-55.5t-0.5 -46t-0.5 -22.5q-1 -2 -6.5 -5t-12.5 -6t-14.5 -5.5t-11.5 -3.5q-2 0 -4 1q-4 0 -4 2v25v46.5v60.5v68q-27 0 -50.5 -0.5t-46.5 -0.5h-46.5h-51.5q-2 0 -2.5 3.5t-0.5 5.5q0 3 1.5 10t3.5 14.5t4 14t3 9.5q8 -2 39 -2h76h71v70q0 40 -0.5 69.5t-1.5 40.5
q4 2 11.5 4t16 4t15 3.5t8.5 1.5q3 0 4.5 -5t1.5 -30v-62.5t-1 -86.5q0 -2 1.5 -5.5t4.5 -3.5h199q2 -2 2.5 -5.5t0.5 -5.5z" />
    <glyph glyph-name="twosuperior" unicode="&#xb2;" horiz-adv-x="334" 
d="M125 699q-45 0 -86 -47q-3 -1 -9 8t-5 11q8 14 21 29t30 27t37 20t42 8q46 0 77 -32t31 -82q0 -34 -17 -66t-52 -67q-14 -14 -24.5 -24t-19 -18.5t-16.5 -15.5t-17 -16q-2 -2 -1 -3.5t3 -1.5q9 -1 24 -2t32 -1h35h32q9 0 20.5 11.5t28.5 47.5q3 2 12 -2.5t11 -6.5
q-2 -7 -5.5 -21t-8 -29t-9.5 -27.5t-8 -17.5q-2 -3 -9.5 -7.5t-16.5 -4.5q-17 0 -41 0.5t-50.5 1t-52.5 1t-47 0.5h-19.5t-17.5 -1q-2 2 -2.5 9.5t0.5 10.5q16 14 29.5 25.5t26.5 23t27 26t32 34.5q29 33 41 62.5t12 58.5q0 14 -4 28t-12.5 25t-22 18t-31.5 7z" />
    <glyph glyph-name="threesuperior" unicode="&#xb3;" horiz-adv-x="333" 
d="M164 756q42 0 68 -25t27 -60q0 -31 -17 -50.5t-38 -32.5q-2 -2 0 -3q17 -5 33 -13.5t29 -20.5t20.5 -28t7.5 -37q0 -35 -19 -61.5t-48 -43.5q-23 -15 -51.5 -22.5t-53.5 -7.5q-37 0 -57 10q-12 5 -22 22q-2 4 -4 12t-4 16.5t-3.5 16t-1.5 11.5q1 4 9 8t11 3
q8 -17 17.5 -29.5t21.5 -20.5t26.5 -12t34.5 -4q30 0 53 17t23 57q0 36 -25.5 61.5t-71.5 25.5h-9.5t-13.5 -2q-1 1 0 5.5t2.5 9t3 8.5t2.5 5q48 9 66 28t18 45t-17 44t-46 18q-22 0 -40.5 -9.5t-36.5 -26.5q-4 0 -9 8t-4 11q9 11 22 23t28.5 21.5t33 16t35.5 6.5z" />
    <glyph glyph-name="acute" unicode="&#xb4;" horiz-adv-x="400" 
d="M232 607q4 2 15 4t23.5 3t23 1.5t14.5 -0.5q2 -1 3 -5t1 -6q-6 -10 -22.5 -32.5t-35.5 -48t-37 -48.5t-27 -33q-3 0 -12 5.5t-10 9.5q8 19 17 41.5t18 43.5l16.5 38.5t12.5 26.5z" />
    <glyph glyph-name="mu" unicode="&#xb5;" horiz-adv-x="460" 
d="M68 383q2 3 10.5 7t19.5 8t22 7t19 4q5 0 13 -2q-1 -9 -1.5 -30t-1.5 -48.5t-2 -58.5t-2 -59t-1.5 -50.5t-0.5 -32.5q0 -8 1 -17.5t3 -14.5q5 -15 17.5 -24.5t32.5 -9.5q29 0 59.5 25t50.5 87q2 4 4.5 18t2.5 26v67v99q3 4 12 8t20 8t21.5 6.5t17.5 2.5q2 -2 5.5 -2
t5.5 -2q-2 -15 -4.5 -43.5t-4.5 -59t-3.5 -59t-1.5 -44.5v-48q0 -48 6.5 -66.5t22.5 -18.5q14 0 24.5 3.5t26.5 14.5q2 -1 2.5 -9.5t-0.5 -13.5q-6 -17 -17.5 -30.5t-25 -23.5t-27.5 -15t-26 -5q-11 0 -20.5 5t-16.5 19.5t-11 39t-4 63.5h-3q-18 -35 -38.5 -59t-39.5 -39
t-35 -22t-25 -7q-35 0 -51 29q-1 -12 -1.5 -27.5t-1 -32t-0.5 -31.5t1 -26q2 -25 8.5 -42.5t18.5 -30t30.5 -21.5t44.5 -16q1 -2 -0.5 -10t-5.5 -12q-11 -11 -37 -20.5t-46 -9.5q-8 0 -17.5 4t-17.5 17t-14.5 38.5t-8.5 68.5q-2 46 -3 110.5t-2 136.5q0 32 -0.5 68.5
t-1 72.5t-1 69.5t-1.5 60.5z" />
    <glyph glyph-name="mu" unicode="&#x3bc;" horiz-adv-x="460" 
d="M68 383q2 3 10.5 7t19.5 8t22 7t19 4q5 0 13 -2q-1 -9 -1.5 -30t-1.5 -48.5t-2 -58.5t-2 -59t-1.5 -50.5t-0.5 -32.5q0 -8 1 -17.5t3 -14.5q5 -15 17.5 -24.5t32.5 -9.5q29 0 59.5 25t50.5 87q2 4 4.5 18t2.5 26v67v99q3 4 12 8t20 8t21.5 6.5t17.5 2.5q2 -2 5.5 -2
t5.5 -2q-2 -15 -4.5 -43.5t-4.5 -59t-3.5 -59t-1.5 -44.5v-48q0 -48 6.5 -66.5t22.5 -18.5q14 0 24.5 3.5t26.5 14.5q2 -1 2.5 -9.5t-0.5 -13.5q-6 -17 -17.5 -30.5t-25 -23.5t-27.5 -15t-26 -5q-11 0 -20.5 5t-16.5 19.5t-11 39t-4 63.5h-3q-18 -35 -38.5 -59t-39.5 -39
t-35 -22t-25 -7q-35 0 -51 29q-1 -12 -1.5 -27.5t-1 -32t-0.5 -31.5t1 -26q2 -25 8.5 -42.5t18.5 -30t30.5 -21.5t44.5 -16q1 -2 -0.5 -10t-5.5 -12q-11 -11 -37 -20.5t-46 -9.5q-8 0 -17.5 4t-17.5 17t-14.5 38.5t-8.5 68.5q-2 46 -3 110.5t-2 136.5q0 32 -0.5 68.5
t-1 72.5t-1 69.5t-1.5 60.5z" />
    <glyph glyph-name="paragraph" unicode="&#xb6;" horiz-adv-x="576" 
d="M528 588q-14 -2 -29.5 -3.5t-28.5 -5.5q-11 -3 -19 -8.5t-13 -25t-7 -59t-1 -110.5v-72v-76.5v-76.5v-72q0 -98 -19.5 -157t-47 -91t-57.5 -42.5t-51 -10.5q-24 0 -45.5 9.5t-30.5 27.5q-5 12 -8 30t-3 35l9 14q20 -17 50 -30.5t65 -13.5q29 0 46.5 14t26.5 47t11.5 88
t1.5 136q-17 -8 -41.5 -14.5t-45.5 -7.5q-57 7 -102.5 28.5t-77 55t-48.5 77.5t-17 97q0 56 20.5 96.5t53.5 68t73 43t79 21.5q32 5 69.5 8t72.5 5t65.5 3t48.5 3q3 -4 2.5 -15t-2.5 -16zM267 368q0 -36 6 -69.5t19 -60t34 -44t51 -21.5q-1 20 -2 54t-1.5 71.5t-1 74
t-0.5 63.5q0 42 2 77.5t10 52.5q-57 -5 -87 -50t-30 -148z" />
    <glyph glyph-name="periodcentered" unicode="&#xb7;" horiz-adv-x="214" 
d="M108 248q11 0 20.5 -4.5t17.5 -10.5q11 -10 14.5 -22t3.5 -23q0 -8 -4 -20t-12 -20q-9 -9 -20.5 -13t-22.5 -4q-8 0 -18.5 4t-18.5 12q-17 16 -17 42q0 24 18 42q8 8 18 12.5t21 4.5z" />
    <glyph glyph-name="cedilla" unicode="&#xb8;" horiz-adv-x="397" 
d="M243 5l-31 -44q12 -6 22.5 -13t19.5 -15q12 -11 17.5 -23.5t5.5 -24.5q0 -23 -12.5 -40.5t-30 -29.5t-36 -18.5t-29.5 -6.5q-18 0 -30.5 8t-20.5 19q-2 5 -0.5 13.5t3.5 10.5q16 -8 31 -11t29 -3q17 0 29 9t12 23q0 13 -14.5 28.5t-56.5 30.5v3q0 4 1 5q0 1 8 11.5
t18 23.5l20 26t15 18h30z" />
    <glyph glyph-name="onesuperior" unicode="&#xb9;" horiz-adv-x="331" 
d="M265 395q2 -2 1 -13t-3 -13q-17 0 -43.5 1.5t-58.5 1.5t-56 -1.5t-42 -1.5q0 1 -0.5 5t-0.5 8v7.5t1 4.5l42 7q15 3 20 12t5 23q1 23 1.5 55t0.5 73q1 45 0.5 76t-1.5 40q-1 7 -3.5 13t-13.5 8q-5 2 -17 3t-23 2q-1 1 -1 4.5t1 7.5t1.5 7.5t1.5 4.5q13 1 29 3.5t32.5 6
t30.5 8t23 8.5q2 0 5 -0.5t3 -1.5q-2 -17 -2.5 -57t-0.5 -95v-36t0.5 -49t1 -47t0.5 -31q1 -16 4.5 -24.5t16.5 -11.5q9 -2 20.5 -4t24.5 -4z" />
    <glyph glyph-name="ordmasculine" unicode="&#xba;" horiz-adv-x="355" 
d="M187 513q32 0 57.5 -11t43.5 -30.5t28 -45.5t10 -55q0 -42 -17 -75.5t-49 -54.5q-14 -9 -38.5 -17t-46.5 -8q-39 0 -66.5 13t-45.5 34t-26 48t-8 55q0 42 17 71t44 47q20 13 45.5 21t51.5 8zM163 482q-26 0 -46.5 -22t-20.5 -77q0 -63 26.5 -99t68.5 -36q37 0 52.5 27
t15.5 73q0 62 -25.5 98t-70.5 36z" />
    <glyph glyph-name="guillemotright" unicode="&#xbb;" horiz-adv-x="638" 
d="M471 194q-18 10 -42 26.5t-47 34t-42.5 34t-28.5 25.5q-2 4 -3 17t-1 19q2 3 7 6q10 -11 43 -32.5t72 -45.5t77 -44.5t59 -28.5q0 -4 -2.5 -12.5t-4.5 -10.5q-34 -15 -73 -37t-75 -44t-64.5 -42t-40.5 -30q-4 0 -6 5q1 8 3.5 21t4.5 15q9 9 29 24.5t44.5 33t49 33.5
t41.5 27q4 4 0 6zM258 194q-19 10 -45 27.5t-51.5 36t-46.5 35.5t-30 27q-3 4 -4 18t0 19q2 4 7 6q7 -7 25.5 -20t43 -29t52 -33t54.5 -32t50 -27t37 -17q0 -4 -2.5 -13t-4.5 -11q-35 -16 -76 -38.5t-79 -46t-67.5 -43.5t-42.5 -31q-2 0 -3.5 2t-2.5 4q0 7 3.5 20.5
t5.5 15.5q9 10 31 26t48.5 34t52.5 35.5t44 28.5q6 4 1 6z" />
    <glyph glyph-name="onequarter" unicode="&#xbc;" horiz-adv-x="788" 
d="M728 103q-14 0 -31.5 0.5t-35.5 0.5q-3 0 -3 -4l1 -117q-13 -1 -34.5 -3t-31.5 -4l3 124q0 3 -3 3l-75 1h-90q0 2 1 12.5t2 12.5q15 21 43.5 58t57.5 75t53.5 69t31.5 41q1 0 7 1t13 1.5t13 1t7 0.5v-226q0 -4 3 -4q20 0 41.5 0.5t34.5 0.5q-1 -3 -2.5 -9.5t-2.5 -13
t-2 -12.5t-1 -9zM258 247q2 -2 1 -13t-3 -13q-17 0 -43.5 1.5t-58.5 1.5t-56 -1.5t-42 -1.5q0 1 -0.5 5t-0.5 8v7.5t1 4.5l42 7q15 3 20 12t5 23q1 23 1.5 55t0.5 73q1 45 0.5 76t-1.5 40q-1 7 -3.5 13t-13.5 8q-5 2 -17 3t-23 2q-1 1 -1 4.5t1 7.5t1.5 7.5t1.5 4.5
q13 1 29 3.5t32.5 6t30.5 8t23 8.5q2 0 5 -0.5t3 -1.5q-2 -17 -2.5 -57t-0.5 -95v-36t0.5 -49t1 -47t0.5 -31q1 -16 4.5 -24.5t16.5 -11.5q9 -2 20.5 -4t24.5 -4zM564 635q0 1 5 1t10.5 -0.5l11 -1t7.5 -1.5q1 -1 1 -5q-3 -4 -20 -34t-44 -76.5t-61 -105.5t-69.5 -120.5
t-70 -121t-62.5 -108.5t-47.5 -82t-24.5 -41q-1 -1 -3.5 -2t-3.5 0q-6 5 -12 13t-6 11q1 2 18 32t44 77.5t61.5 107.5t70.5 122.5t71 122.5t62 106.5t44 75.5t18 30zM592 145q4 0 4 3l2 156h-3q-6 -8 -23.5 -30.5t-36 -48t-34.5 -48t-20 -29.5v-1q0 -2 1 -2h110z" />
    <glyph glyph-name="onehalf" unicode="&#xbd;" horiz-adv-x="788" 
d="M561 321q-45 0 -86 -47q-3 -1 -9 8t-5 11q8 14 21 29t30 27t37 20t42 8q46 0 77 -32t31 -82q0 -34 -17 -66t-52 -67q-14 -14 -24.5 -24t-19 -18.5t-16.5 -15.5t-17 -16q-2 -2 -1 -3.5t3 -1.5q9 -1 24 -2t32 -1h35h32q9 0 20.5 11.5t28.5 47.5q3 2 12 -2.5t11 -6.5
q-2 -7 -5.5 -21t-8 -29t-9.5 -27.5t-8 -17.5q-2 -3 -9.5 -7.5t-16.5 -4.5q-17 0 -41 0.5t-50.5 1t-52.5 1t-47 0.5h-19.5t-17.5 -1q-2 2 -2.5 9.5t0.5 10.5q16 14 29.5 25.5t26.5 23t27 26t32 34.5q29 33 41 62.5t12 58.5q0 14 -4 28t-12.5 25t-22 18t-31.5 7zM255 247
q2 -2 1 -13t-3 -13q-17 0 -43.5 1.5t-58.5 1.5t-56 -1.5t-42 -1.5q0 1 -0.5 5t-0.5 8v7.5t1 4.5l42 7q15 3 20 12t5 23q1 23 1.5 55t0.5 73q1 45 0.5 76t-1.5 40q-1 7 -3.5 13t-13.5 8q-5 2 -17 3t-23 2q-1 1 -1 4.5t1 7.5t1.5 7.5t1.5 4.5q13 1 29 3.5t32.5 6t30.5 8
t23 8.5q2 0 5 -0.5t3 -1.5q-2 -17 -2.5 -57t-0.5 -95v-36t0.5 -49t1 -47t0.5 -31q1 -16 4.5 -24.5t16.5 -11.5q9 -2 20.5 -4t24.5 -4zM555 635q0 1 5 1t10.5 -0.5l11 -1t7.5 -1.5q1 -1 1 -5q-3 -4 -20 -34t-44 -76.5t-61 -105.5t-69.5 -120.5t-70 -121t-62.5 -108.5
t-47.5 -82t-24.5 -41q-1 -1 -3.5 -2t-3.5 0q-6 5 -12 13t-6 11q1 2 18 32t44 77.5t61.5 107.5t70.5 122.5t71 122.5t62 106.5t44 75.5t18 30z" />
    <glyph glyph-name="threequarters" unicode="&#xbe;" horiz-adv-x="788" 
d="M737 103q-14 0 -31.5 0.5t-35.5 0.5q-3 0 -3 -4l1 -117q-13 -1 -34.5 -3t-31.5 -4l3 124q0 3 -3 3l-75 1h-90q0 2 1 12.5t2 12.5q15 21 43.5 58t57.5 75t53.5 69t31.5 41q1 0 7 1t13 1.5t13 1t7 0.5v-226q0 -4 3 -4q20 0 41.5 0.5t34.5 0.5q-1 -3 -2.5 -9.5t-2.5 -13
t-2 -12.5t-1 -9zM186 608q42 0 68 -25t27 -60q0 -31 -17 -50.5t-38 -32.5q-2 -2 0 -3q17 -5 33 -13.5t29 -20.5t20.5 -28t7.5 -37q0 -35 -19 -61.5t-48 -43.5q-23 -15 -51.5 -22.5t-53.5 -7.5q-37 0 -57 10q-12 5 -22 22q-2 4 -4 12t-4 16.5t-3.5 16t-1.5 11.5q1 4 9 8t11 3
q8 -17 17.5 -29.5t21.5 -20.5t26.5 -12t34.5 -4q30 0 53 17t23 57q0 36 -25.5 61.5t-71.5 25.5h-9.5t-13.5 -2q-1 1 0 5.5t2.5 9t3 8.5t2.5 5q48 9 66 28t18 45t-17 44t-46 18q-22 0 -40.5 -9.5t-36.5 -26.5q-4 0 -9 8t-4 11q9 11 22 23t28.5 21.5t33 16t35.5 6.5zM582 635
q0 1 5 1t10.5 -0.5l11 -1t7.5 -1.5q1 -1 1 -5q-3 -4 -20 -34t-44 -76.5t-61 -105.5t-69.5 -120.5t-70 -121t-62.5 -108.5t-47.5 -82t-24.5 -41q-1 -1 -3.5 -2t-3.5 0q-6 5 -12 13t-6 11q1 2 18 32t44 77.5t61.5 107.5t70.5 122.5t71 122.5t62 106.5t44 75.5t18 30zM601 145
q4 0 4 3l2 156h-3q-6 -8 -23.5 -30.5t-36 -48t-34.5 -48t-20 -29.5v-1q0 -2 1 -2h110z" />
    <glyph glyph-name="questiondown" unicode="&#xbf;" horiz-adv-x="340" 
d="M188 117q0 8 -10 24t-27 32q-2 2 -1 6.5t3 6.5q3 3 8.5 6.5t12 7t12.5 6t9 3.5q11 3 21 0q22 -9 34.5 -27.5t12.5 -37.5q0 -9 -3 -17.5t-8 -13.5q-6 -6 -22 -18.5t-34.5 -27t-35.5 -27.5t-26 -21q-23 -22 -23 -48q0 -35 34.5 -67t93.5 -42l32 -3q5 -1 8 -6t3 -9
q0 -8 -8.5 -24.5t-16.5 -26.5q-3 -4 -11.5 -7t-20.5 -3q-33 0 -64.5 13t-54.5 31q-29 23 -44 53t-15 59q0 24 7 42.5t15 26.5q8 9 22 20t29 22t29.5 22t24.5 19q14 11 14 26zM182 301q-21 0 -37 13q-10 10 -13.5 21.5t-3.5 21.5q0 7 4 18.5t12 19.5q8 9 19.5 12.5t24.5 3.5
q8 0 18 -3t18 -11q15 -18 15 -40q0 -24 -16 -41q-8 -8 -19.5 -11.5t-21.5 -3.5z" />
    <glyph glyph-name="Ccedilla" unicode="&#xc7;" 
d="M153 77q-4 -7 3 -7h38h55.5t57.5 0.5t43 1.5q21 2 33 5.5t22 12t19.5 24t24.5 42.5q5 1 15 -4t11 -9q-14 -37 -26.5 -77t-21.5 -78q-19 6 -43.5 8.5t-50.5 2.5h-265q-2 2 -3 7.5t-1 8.5q7 14 27.5 47t46.5 71.5t53.5 75.5t47.5 60q2 4 -3 6q-102 11 -143.5 49.5
t-27.5 110.5q5 26 23.5 52t45.5 49.5t60 43.5t66.5 35t65 23.5t56.5 8.5q11 0 20.5 -6t10.5 -11q0 -2 -1 -5t-3 -3q-66 -11 -114 -30.5t-79 -44t-45.5 -52t-14.5 -55.5q0 -21 4 -37.5t15.5 -28.5t32 -18.5t53.5 -6.5q30 0 57 7.5t60 24.5q2 1 2.5 -4t0.5 -11t-1.5 -12
t-2.5 -7q-7 -6 -15.5 -13.5t-19.5 -16.5q-30 -23 -60 -58t-56 -71t-45.5 -67t-27.5 -44z" />
    <glyph glyph-name="Eth" unicode="&#xd0;" 
d="M393 548q-1 -16 -1 -29t-11 -25q-2 -1 -8 -2t-9 1q-8 18 -24 32t-36 23.5t-42.5 14t-43.5 4.5q-41 0 -59.5 -16t-18.5 -43q0 -26 10 -45t27.5 -32.5t40 -20t46.5 -6.5q8 0 18.5 -9t18.5 -8q1 -2 2 -8t-1 -8q-2 -11 -2 -28.5t-5 -21.5q-6 0 -15 -0.5t-18 -0.5h-17t-12 -1
q-18 -3 -38.5 -14.5t-38 -28t-29 -35t-11.5 -35.5q0 -32 13.5 -56.5t33.5 -41t44.5 -25t46.5 -8.5q45 0 86.5 15.5t76.5 55.5q3 -1 7 -7t4 -11q-2 -11 -12 -25t-16 -21q-38 -52 -84 -76t-97 -24q-43 0 -77 14t-57.5 38t-36 56t-12.5 68q0 25 11.5 50t29.5 48t39 42t40 31
q3 3 0 6q-37 22 -62 53t-25 66q0 18 2 32t7 26.5t15 24.5t25 27q26 25 63 39.5t80 14.5q44 0 68.5 -11.5t36.5 -22.5q13 -11 20.5 -18t6.5 -18z" />
    <glyph glyph-name="Ntilde" unicode="&#xd1;" 
d="M278 -1q-2 4 -2.5 14t2.5 15q18 2 21.5 10.5t5.5 25.5q1 10 2 25.5t1 38.5h-10q-17 0 -39 10t-51 26q-30 16 -55 20v-101v-17t2.5 -17t8 -14t17.5 -7q2 -4 1.5 -14t-3.5 -14h-66q-29 0 -42.5 -0.5t-23.5 -0.5q-2 4 -2.5 14t2.5 15q18 2 21.5 10.5t5.5 25.5q2 13 2.5 36.5
t1.5 60.5q-17 -11 -30.5 -23t-20.5 -20q-2 -2 -4 1t-2 5q0 8 4 22.5t6 16.5q7 11 19.5 23t27.5 23v119v60q-17 -11 -30.5 -23t-20.5 -20q-2 -2 -4 1t-2 5q0 8 4 22.5t6 16.5q7 11 19.5 23t27.5 23l-3 74q-2 14 -4 26t-17 14q-3 2 -2.5 12.5t3.5 12.5q18 1 31 5t24 9t21.5 11
t24.5 12q2 -1 4.5 -4t2.5 -5q-5 -14 -7 -32t-2 -55q-1 -11 -1 -22v-22q2 0 4.5 0.5t4.5 0.5q20 0 39.5 -7.5t50.5 -22.5q15 -9 29 -15.5t28 -9.5l-3 92q-2 14 -4 26t-17 14q-3 2 -2.5 12.5t3.5 12.5q18 1 31 5t24 9t21.5 11t24.5 12q2 -1 4.5 -4t2.5 -5q-5 -14 -7 -32
t-2 -55q-1 -18 -1 -38v-40q23 16 44 43q1 1 4.5 0t5.5 -3q0 -5 -2.5 -18t-4.5 -18q-6 -12 -18 -26.5t-29 -27.5v-56v-121q23 16 44 43q1 1 4.5 0t5.5 -3q0 -5 -2.5 -18t-4.5 -18q-6 -12 -18 -26.5t-29 -27.5v-78v-17t2.5 -17t8 -14t17.5 -7q2 -4 1.5 -14t-3.5 -14h-66
q-29 0 -42.5 -0.5t-23.5 -0.5zM162 246q20 0 39.5 -7.5t50.5 -22.5q15 -9 29 -15.5t28 -9.5v137v27h-11q-17 0 -39 10t-51 26q-30 16 -55 20v-79v-87q2 0 4.5 0.5t4.5 0.5z" />
    <glyph glyph-name="multiply" unicode="&#xd7;" horiz-adv-x="547" 
d="M433 446q2 4 22.5 7.5t39.5 4.5q2 -1 3 -5t-1 -6q-21 -29 -45.5 -57.5t-49.5 -56.5t-48.5 -54t-44.5 -49q-1 -1 -1 -5q0 -2 1 -3q14 -16 39.5 -44t53 -57t52.5 -54.5t39 -36.5q0 -2 -1 -6t-3 -5q-3 -1 -14 -0.5t-23.5 2t-24 4t-16.5 6.5q-7 6 -23.5 22.5t-37 38
t-42.5 44.5t-40 43q-1 1 -3 1.5t-4 -2.5q-24 -26 -47 -51.5t-42.5 -46t-33 -34t-17.5 -16.5q-5 -3 -13.5 -5.5t-18.5 -4.5t-19.5 -3t-15.5 -1q-2 1 -3.5 4.5t-0.5 5.5q5 4 18 17.5t30.5 32t37.5 40t38 41t32.5 35.5t20.5 23q3 6 0 9l-52 58.5t-52.5 59.5t-43 49.5
t-23.5 27.5q0 3 4 10t9 14.5t10 14t7 8.5q2 1 5 1.5t5 -1.5q2 -5 23.5 -31t50 -59t57.5 -65.5t46 -49.5q22 25 48.5 55t50 57t40.5 47.5t21 25.5z" />
    <glyph glyph-name="Oslash" unicode="&#xd8;" horiz-adv-x="746" 
d="M141 -34q-1 -1 -6 0t-11 2.5t-11.5 3t-7.5 3.5l-1 4l56 75q-27 24 -47 54t-32.5 64t-19 69.5t-6.5 71.5q0 56 16 103.5t46 89.5q21 28 50.5 51.5t65 40.5t74 26t77.5 9q49 0 89 -10.5t84 -34.5l41 55q2 2 15.5 0t20.5 -4v-5l-49 -68q54 -45 80 -110t26 -135
q0 -66 -15 -115.5t-46 -92.5q-47 -65 -117.5 -98t-145.5 -33q-51 0 -96.5 13.5t-80.5 36.5zM513 531q-24 23 -62 42.5t-100 19.5q-49 0 -90 -22q-54 -32 -81 -95t-27 -140q0 -66 15.5 -118.5t42.5 -94.5zM235 93q33 -35 74.5 -51.5t94.5 -16.5q32 0 60 9t48 26
q47 38 66.5 97.5t19.5 128.5q0 58 -13 114.5t-48 100.5z" />
    <glyph glyph-name="ccedilla" unicode="&#xe7;" 
d="M2 528q13 19 22.5 33.5t21.5 24.5t29.5 15.5t46.5 5.5q19 0 32.5 -11t23 -27.5t16.5 -37.5t13 -40q7 -24 14.5 -54t12.5 -53q2 -5 5 0q16 28 31.5 56t30 53.5t27.5 47t23 36.5q6 10 16 17.5t18 9.5q11 2 26.5 3.5t22.5 -0.5q2 -2 3 -7.5t-1 -7.5q-26 -17 -72 -83
t-106 -178q-2 -5 -3.5 -12.5t0.5 -13.5q19 -81 38.5 -130t36.5 -83q16 -29 30.5 -39t35.5 -10q14 0 26 5.5t30 19.5q2 -2 3 -12.5t-1 -14.5q-8 -12 -20 -24.5t-26 -22.5t-30 -16.5t-33 -6.5q-23 0 -39 12.5t-27.5 32.5t-20 45t-15.5 49q-6 19 -12.5 39.5t-12 39t-10 32
t-5.5 17.5q-2 2 -4 0q-21 -36 -46 -82.5t-45 -98.5q-9 -20 -14 -33.5t-7.5 -23t-4 -17t-2.5 -16.5q0 -2 -7 -3.5t-9 -0.5q-9 9 -15.5 11t-11 2.5t-7 2t-2.5 10.5q0 5 4.5 15.5l10.5 24.5q9 22 27.5 58.5t39.5 74.5t40 72.5t30 53.5q7 15 5 26q-8 36 -18.5 74t-22.5 71
q-14 35 -29 59.5t-38 24.5q-14 0 -33 -13.5t-38 -30.5q-2 3 -4.5 14t0.5 15z" />
    <glyph glyph-name="eth" unicode="&#xf0;" 
d="M263 48q26 0 46 5t36.5 14.5t31 23.5t29.5 32q2 0 5.5 -2.5t7 -6t5.5 -7t2 -4.5q-12 -18 -25.5 -40.5t-35.5 -42t-54 -32.5t-81 -13q-34 0 -64 12.5t-53 36t-36.5 56t-13.5 72.5q0 54 29.5 118t81.5 121q19 23 39 40.5t39 32.5t36 28.5t31 28.5q2 2 0.5 5t-3.5 3
q-14 2 -36.5 3t-48.5 1.5t-53 0.5h-48q-7 0 -15 -3t-17 -12.5t-20 -27t-24 -46.5q-5 -2 -14.5 2t-11.5 9q3 12 9 32t13.5 42t16 41.5t14.5 28.5q2 3 12 5t36 2h57.5t68 -1t71 -1.5t67.5 -0.5q13 0 27 0.5t23 1.5q2 -2 3 -10t1 -12q-24 -22 -51 -41t-54 -39.5t-54.5 -44.5
t-52.5 -57q-20 -26 -36 -55.5t-27 -59.5t-16.5 -58.5t-5.5 -52.5t6.5 -47t20 -41t35 -29t51.5 -11z" />
    <glyph glyph-name="ntilde" unicode="&#xf1;" 
d="M160 359q10 0 15 -1q-7 26 -15 52t-16 49q-14 35 -29 59.5t-38 24.5q-14 0 -33 -13.5t-38 -30.5q-2 3 -4.5 14t0.5 15q13 19 22.5 33.5t21.5 24.5t29.5 15.5t46.5 5.5q19 0 32.5 -11t23 -27.5t16.5 -37.5t13 -40q7 -24 14.5 -54t12.5 -53q2 -5 5 0q16 28 31.5 56t30 53.5
t27.5 47t23 36.5q6 10 16 17.5t18 9.5q11 2 26.5 3.5t22.5 -0.5q2 -2 3 -7.5t-1 -7.5q-26 -17 -72 -83t-106 -178l-3 -8q17 -9 33 -15t31 -6q21 0 48 14t55 51q1 1 4.5 0t5.5 -3q0 -5 -2.5 -18t-4.5 -19q-6 -12 -19 -27.5t-30.5 -29t-38.5 -22.5t-43 -9q-12 0 -23 4
q15 -54 30 -89.5t29 -61.5q16 -29 30.5 -39t35.5 -10q14 0 26 5.5t30 19.5q2 -2 3 -12.5t-1 -14.5q-8 -12 -20 -24.5t-26 -22.5t-30 -16.5t-33 -6.5q-23 0 -39 12.5t-27.5 32.5t-20 45t-15.5 49q-6 19 -12.5 39.5t-12 39t-10 32t-5.5 17.5q-2 2 -4 0q-21 -36 -46 -82.5
t-45 -98.5q-9 -20 -14 -33.5t-7.5 -23t-4 -17t-2.5 -16.5q0 -2 -7 -3.5t-9 -0.5q-9 9 -15.5 11t-11 2.5t-7 2t-2.5 10.5q0 5 4.5 15.5l10.5 24.5q9 22 27.5 58.5t39.5 74.5t40 72.5t30 53.5q-24 9 -47 9q-13 0 -29 -8t-31 -18.5t-28 -22.5t-19 -19q-2 -2 -4 1t-2 5
q0 4 1.5 10.5t3 12.5t3 11t2.5 6q9 13 24.5 28t34.5 27.5t37.5 20.5t33.5 8z" />
    <glyph glyph-name="divide" unicode="&#xf7;" horiz-adv-x="544" 
d="M320 409q0 -18 -7 -30.5t-18 -23.5q-1 -1 -7.5 -3t-15 -2.5t-16 0t-11.5 3.5q-13 9 -16.5 21t-4.5 18q0 2 0.5 6.5t2 10t2.5 10t2 5.5q8 5 23.5 10t26.5 5t20 -2t11 -6q3 -3 5.5 -10t2.5 -12zM46 211q-1 0 -2 4t-1 6q1 3 2.5 10t4 14.5t4.5 14t3 8.5q7 -2 38 -1.5t76 0.5
h331q2 -1 2 -5.5v-6.5t-2 -8t-4 -13.5t-4.5 -13.5t-5.5 -6zM320 104q0 -17 -3.5 -27.5t-14.5 -21.5q-1 -1 -8 -3t-16 -3.5t-17.5 -1t-12.5 3.5q-12 10 -17.5 22t-6.5 19q0 1 0.5 6t2 10t2.5 9t2 5q8 6 23.5 11t26.5 5q25 0 31 -8q3 -3 5.5 -12t2.5 -14z" />
    <glyph glyph-name="oslash" unicode="&#xf8;" horiz-adv-x="492" 
d="M260 409q48 0 88 -19l28 42q1 0 5 -2t8.5 -5.5t8 -7t3.5 -4.5l-27 -40q37 -27 56.5 -70t19.5 -95q0 -58 -23 -106t-70 -77q-20 -14 -52 -25.5t-64 -11.5t-57 6.5t-46 17.5l-29 -46q-3 0 -13.5 8t-11.5 11l28 45q-38 32 -54 78t-16 94q0 60 24.5 100.5t62.5 66.5
q27 17 61.5 28.5t69.5 11.5zM266 28q28 0 47.5 11t31.5 31t17.5 47t5.5 59q0 34 -7 69.5t-27 65.5l-157 -241q11 -14 32.5 -28t56.5 -14zM227 370q-50 0 -76.5 -35.5t-26.5 -108.5q0 -29 6.5 -64t26.5 -64l156 238q-14 14 -34.5 24t-51.5 10z" />
    <glyph glyph-name="florin" unicode="&#x192;" 
d="M186 298q0 6 -3 6q-21 0 -42.5 0.5t-32.5 1.5q0 2 1.5 8t4 12.5t5.5 12t5 6.5q12 -1 28.5 -1h33.5q6 0 6 6q9 65 23 110.5t31.5 77.5t39 53.5t45.5 38.5q16 12 37 19.5t36 7.5q27 0 41 -11q2 -1 3 -5t1 -6q-1 -6 -3.5 -14.5t-6.5 -17t-7.5 -16t-6.5 -11.5
q-2 -2 -5.5 -2.5t-5.5 1.5q-14 11 -31 19t-29 8q-31 0 -45 -40q-8 -20 -17.5 -69.5t-20.5 -142.5q0 -6 4 -6q40 0 63.5 0.5t36.5 2.5q1 -2 -2 -12t-5 -13q-8 -5 -21.5 -9.5t-30.5 -6.5q-10 -1 -22 -1.5t-23 -0.5q-5 0 -5 -5q-4 -28 -8.5 -61t-9 -67t-9.5 -66.5t-9 -59.5
q-11 -66 -34 -108.5t-51 -68t-56 -35.5t-48 -10q-25 0 -39 8t-20 16q-2 2 -3 7t0 7q1 4 4 12t6.5 16t7 15t6.5 11q1 2 4.5 2.5t4.5 -0.5q19 -19 39 -31t39 -12q20 0 32.5 22t21.5 79t18.5 138t23.5 185z" />
    <glyph glyph-name="circumflex" unicode="&#x2c6;" horiz-adv-x="400" 
d="M192 543q-6 -12 -15 -26.5t-17.5 -27t-15.5 -22t-10 -11.5q-5 -4 -17 -7t-17 -1q-3 0 -3 5q6 10 18.5 30.5t26 44t25.5 46t18 36.5q2 2 14 6t15 4q6 -15 18 -38.5t25 -48t25 -45t18 -28.5q-1 -2 -6 -4.5t-11.5 -4.5t-12.5 -3.5t-9 -1.5q-3 1 -10 10t-16 22.5t-19 30.5
t-19 34q-3 2 -5 0z" />
    <glyph glyph-name="tilde" unicode="&#x2dc;" horiz-adv-x="400" 
d="M260 540q9 0 26.5 5.5t39.5 27.5q1 0 3 -1t2 -3q1 -4 -0.5 -14t-3.5 -12q-5 -8 -14.5 -18t-22 -18t-26.5 -13.5t-27 -5.5q-12 0 -26 3.5t-37 11.5q-8 3 -17.5 5.5t-19.5 2.5q-13 0 -29 -8.5t-31 -22.5q-1 -1 -3 0.5t-3 3.5q-1 5 0.5 14t3.5 11q4 6 13.5 15.5t22 18t25 15
t22.5 6.5q13 0 26 -3.5t30 -8.5q13 -5 25.5 -8.5t20.5 -3.5z" />
    <glyph glyph-name="endash" unicode="&#x2013;" horiz-adv-x="500" 
d="M45 223q2 0 33 0.5t77 0.5h99.5h100h78h33.5v-7q0 -4 -1 -10.5l-2 -13t-2.5 -11.5t-2.5 -5q-2 -1 -33 -1t-77 -0.5t-99 -0.5h-99.5t-78.5 0.5t-36 0.5l-1 7q0 4 1.5 10.5l3 13t3.5 11.5t3 5z" />
    <glyph glyph-name="emdash" unicode="&#x2014;" horiz-adv-x="1000" 
d="M52 223q1 0 40.5 0.5t103 0.5h144h165h165.5h144.5h103h41.5v-7q0 -4 -1 -10.5l-2 -13t-2.5 -11.5t-2.5 -5q-2 -1 -41 -1t-102.5 -0.5t-144 -0.5h-164.5h-165h-145t-104 0.5t-43 0.5l-1 7q2 9 5.5 24t5.5 16z" />
    <glyph glyph-name="quoteleft" unicode="&#x2018;" horiz-adv-x="208" 
d="M97 562q0 -16 14.5 -28t34.5 -18q2 -2 4 -6.5t0 -8.5q-2 -5 -8.5 -12.5t-15 -15t-17.5 -13t-16 -5.5q-25 0 -41 23t-16 53q0 28 13 52t32.5 42t41 29.5t39.5 16.5q2 -1 6 -11t3 -12q-43 -20 -58.5 -42.5t-15.5 -43.5z" />
    <glyph glyph-name="quoteright" unicode="&#x2019;" horiz-adv-x="208" 
d="M110 564q0 16 -14 28t-34 18q-2 2 -4 6.5t0 8.5q3 5 10 13t15.5 15.5t17 12.5t14.5 5q25 0 41 -22.5t16 -52.5q0 -29 -13 -53t-32.5 -42t-41 -30t-39.5 -16q-3 1 -7 10.5t-3 11.5q43 20 58.5 43.5t15.5 43.5z" />
    <glyph glyph-name="quotesinglbase" unicode="&#x201a;" horiz-adv-x="204" 
d="M-11 -154q-1 1 -2 2.5t0 2.5q36 31 63.5 70t27.5 81q0 17 -8.5 36t-16.5 36q1 4 9 12.5t18 17.5t19 16.5t13 9.5q2 1 9 1.5t9 -1.5q5 -4 13 -24t8 -50q0 -33 -13 -66t-33 -62t-44.5 -53t-46.5 -37q-5 -1 -12.5 2t-12.5 6z" />
    <glyph glyph-name="quotedblleft" unicode="&#x201c;" horiz-adv-x="356" 
d="M97 562q0 -16 14 -28.5t35 -18.5q2 -2 3 -6.5t0 -8.5q-1 -5 -7.5 -12.5t-15 -15t-18 -12.5t-15.5 -5q-26 0 -41.5 23t-15.5 52q0 28 13 52t32.5 42t41 30t39.5 17q2 -1 6 -11t3 -12q-43 -20 -58.5 -42.5t-15.5 -43.5zM245 562q0 -16 14.5 -28.5t34.5 -18.5q2 -2 3.5 -6.5
t0.5 -8.5q-2 -5 -8.5 -12.5t-15 -14.5t-17.5 -12.5t-15 -5.5q-26 0 -42 22.5t-16 52.5q0 28 13 52t32.5 42t41.5 30t40 17q2 -1 6 -11t3 -12q-44 -20 -59.5 -42.5t-15.5 -43.5z" />
    <glyph glyph-name="quotedblright" unicode="&#x201d;" horiz-adv-x="356" 
d="M259 564q0 16 -14 28.5t-35 17.5q-2 2 -3.5 6.5t0.5 8.5q3 6 9.5 14t15 15t17 12t14.5 5q26 0 42 -23t16 -53q0 -29 -13 -52.5t-32.5 -41.5t-41.5 -30t-40 -16q-1 0 -3 3.5t-3.5 7.5t-2.5 7.5t0 4.5q44 20 59 42.5t15 43.5zM111 564q0 16 -14.5 28.5t-34.5 17.5
q-2 2 -4 6.5t0 8.5q3 6 10 14t15.5 15t17 12t14.5 5q25 0 41 -23t16 -53q0 -29 -13 -52.5t-32.5 -41.5t-41 -30t-39.5 -16q-2 0 -3.5 3.5t-3 7.5t-2.5 7.5t-1 4.5q44 20 59.5 42.5t15.5 43.5z" />
    <glyph glyph-name="quotedblbase" unicode="&#x201e;" horiz-adv-x="354" 
d="M-6 -154q-1 1 -2 2.5t0 2.5q36 31 62 70t26 81q0 17 -8 36t-17 36q2 4 10 12.5t17.5 17.5t18.5 16.5t14 9.5q2 1 9 1.5t9 -1.5q4 -4 12 -24.5t8 -49.5q0 -33 -12.5 -66t-32 -62t-43.5 -53t-46 -37q-5 -1 -12.5 2t-12.5 6zM145 -154q-5 2 -2 5q35 31 61.5 70t26.5 81
q0 17 -8 36t-17 36q1 4 9 12.5t17.5 17.5t19 16.5t14.5 9.5q2 1 9 1.5t9 -1.5q4 -4 12 -24.5t8 -49.5q0 -33 -12.5 -66t-32 -62t-43.5 -53t-46 -37q-5 -1 -13 2t-12 6z" />
    <glyph glyph-name="dagger" unicode="&#x2020;" horiz-adv-x="477" 
d="M185 527q4 1 14 3t22 5t24.5 7t23.5 8q4 0 6 -4q-3 -18 -6 -47t-4.5 -59t-3 -56.5t-1.5 -38.5q0 -2 1 -4.5t3 -2.5h51h33t32.5 1t28 2t18.5 3q2 -2 0.5 -9.5t-3.5 -12.5q-6 -11 -30 -21q-9 -4 -30.5 -7t-49.5 -4q-16 -1 -27.5 -1h-23.5l-3 -3l-2 -2q-1 -23 -2 -57
t-2 -72.5t-2 -79.5t-2 -76.5t-2 -63.5t-1 -42q0 -2 -4 -2q-1 0 -5.5 1t-10 3.5t-9.5 5.5t-4 7q0 6 -1 36t-2 71t-2.5 88t-2.5 87.5t-2 67.5t-1 30h-18h-31h-48.5t-46.5 0.5t-24 2.5q1 4 3.5 12t5.5 16t6.5 15.5t5.5 10.5q11 -3 39 -5t63 -2h44q-2 59 -7 111t-10 78z" />
    <glyph glyph-name="daggerdbl" unicode="&#x2021;" 
d="M207 168q0 9 -0.5 28t-1 41t-1.5 41.5t-2 30.5l-159 -4q-4 2 -4 7q6 15 12.5 28.5t8.5 18.5q8 -2 23.5 -3.5t35 -3t41 -2t40.5 0.5q-1 27 -2.5 55.5t-3 53t-3 43t-2.5 26.5q9 1 20 3.5t22.5 5t21.5 5.5t16 5q1 0 2.5 -0.5t2.5 -0.5q-2 -11 -3.5 -33t-3 -49t-3 -55.5
t-2.5 -51.5q0 -2 1.5 -4.5t4.5 -1.5q136 0 158 5q1 -2 0 -9t-3 -11q-11 -13 -35.5 -20t-59.5 -7q-16 -1 -35 -1t-27 -1q-3 0 -5 -3.5t-2 -5.5q0 -14 -1 -30.5t-1.5 -33t-1 -32t-0.5 -26.5q0 -7 5 -7h65.5t44 1t27 2t15.5 3q1 -2 0 -10t-3 -11q-5 -8 -22.5 -15.5t-43.5 -10.5
q-9 -1 -20.5 -1.5t-23.5 -1t-22.5 -0.5h-16.5q-2 0 -4 -2.5t-2 -4.5q-1 -21 -2 -56.5l-2 -71t-1.5 -62t-0.5 -29.5q-3 -3 -15.5 -7t-17.5 -3q0 22 -1 57t-2.5 71t-2.5 66.5t-1 41.5q-15 0 -39 -0.5t-49.5 -1t-47.5 -1.5t-33 -1q-2 4 -2 8q6 13 14.5 28t12.5 20
q13 -5 45.5 -7.5t97.5 -2.5z" />
    <glyph glyph-name="bullet" unicode="&#x2022;" horiz-adv-x="392" 
d="M196 301q21 0 41.5 -6.5t35.5 -20.5q21 -20 26.5 -43t5.5 -43t-6.5 -42t-23.5 -39t-38 -24t-46 -7q-17 0 -39.5 7t-37.5 22q-17 18 -24 39t-7 46q0 20 7.5 40.5t27.5 39.5q16 15 37 23t41 8z" />
    <glyph glyph-name="ellipsis" unicode="&#x2026;" horiz-adv-x="1000" 
d="M233 105q22 0 37 -15q11 -10 14.5 -22t3.5 -22q0 -8 -4 -20t-12 -20q-17 -17 -43 -17q-8 0 -18 3.5t-18 11.5q-17 17 -17 43q0 22 18 42q18 16 39 16zM499 105q23 0 38 -15q11 -10 14.5 -22t3.5 -23q0 -8 -4 -19.5t-12 -19.5q-17 -17 -43 -17q-9 0 -19 3.5t-18 11.5
q-16 16 -16 43q0 22 18 42q16 16 38 16zM769 105q22 0 37 -15q11 -10 14.5 -22t3.5 -23q0 -8 -4 -19.5t-12 -19.5q-16 -17 -43 -17q-8 0 -18 3.5t-18 11.5q-17 16 -17 43q0 22 18 42q18 16 39 16z" />
    <glyph glyph-name="perthousand" unicode="&#x2030;" horiz-adv-x="1008" 
d="M855 347q27 0 48 -12.5t35.5 -33.5t22 -47.5t7.5 -54.5q0 -33 -5.5 -57.5t-14 -41.5t-18 -29t-18.5 -19q-26 -23 -51 -32.5t-54 -9.5q-26 0 -47 12t-36 32t-23 46.5t-8 55.5q0 51 13.5 84.5t36.5 56.5q20 20 49.5 35t62.5 15zM826 309q-19 0 -32 -11t-20.5 -28.5
t-11 -38.5t-3.5 -40q0 -39 7 -66t18.5 -43.5t25.5 -23.5t28 -7q21 0 35 9.5t22 25.5t11.5 37t3.5 43q0 27 -5 52.5t-15 46t-26 32.5t-38 12zM130 12q103 153 201.5 300.5t201.5 300.5q6 4 20.5 7t19.5 4q6 -2 6 -9q-7 -9 -26 -37t-46.5 -68.5t-61 -90.5t-68.5 -102.5
t-69.5 -105t-65 -97.5t-54.5 -80t-37 -53q-1 -2 -3.5 -2t-4.5 1q-3 3 -8 15t-5 17zM542 347q27 0 48 -12.5t35.5 -33.5t22 -47.5t7.5 -54.5q0 -33 -5.5 -57.5t-14 -42t-18 -29t-17.5 -18.5q-27 -23 -52 -32.5t-53 -9.5q-27 0 -48 12t-35.5 32t-22.5 46.5t-8 55.5
q0 53 13 85.5t36 56.5q20 19 49.5 34t62.5 15zM513 309q-19 0 -32 -11t-20.5 -28.5t-11 -38.5t-3.5 -40q0 -39 7 -66t18.5 -43.5t25.5 -23.5t28 -7q21 0 35 9.5t22.5 25.5t12 37t3.5 43q0 27 -5 52.5t-15 46t-26.5 32.5t-38.5 12zM205 599q28 0 49 -13t35 -33.5t21 -46.5
t7 -52q0 -32 -5.5 -56.5t-14 -43t-18 -31t-18.5 -19.5q-27 -23 -51 -32.5t-53 -9.5q-26 0 -47.5 12t-36.5 32t-23 47.5t-8 57.5q0 51 13.5 83.5t36.5 55.5q20 20 50.5 34.5t62.5 14.5zM174 562q-20 0 -32.5 -11.5t-20 -28.5t-10.5 -38.5t-3 -40.5q0 -38 7 -65t18.5 -43.5
t25.5 -24t29 -7.5q21 0 35 9.5t22 25t11.5 36t3.5 42.5q0 27 -5 53t-15.5 47t-26.5 33.5t-39 12.5z" />
    <glyph glyph-name="guilsinglleft" unicode="&#x2039;" horiz-adv-x="447" 
d="M175 191q20 -11 48.5 -28t56 -35.5t50.5 -35.5t33 -27q3 -4 4.5 -17.5t0.5 -19.5q-1 -2 -3.5 -4t-4.5 -2q-8 7 -28 20t-46.5 28.5t-57 32.5t-60 32t-54.5 26.5t-41 17.5q0 5 2.5 13.5t4.5 10.5q39 16 83.5 39t85 46t73 43.5t46.5 31.5q2 0 3.5 -2t2.5 -4q0 -8 -3.5 -21
t-5.5 -15q-9 -10 -33 -26.5t-52.5 -35t-57 -35.5t-46.5 -27q-4 -4 -1 -6z" />
    <glyph glyph-name="guilsinglright" unicode="&#x203a;" horiz-adv-x="445" 
d="M271 194q-20 10 -48.5 27.5t-56.5 36t-51 35.5t-33 27q-3 4 -4 17.5t-1 19.5q1 2 3.5 4t4.5 2q8 -7 28 -20t46.5 -28.5t57 -32.5t59.5 -32t54.5 -27t41.5 -18q0 -4 -2.5 -12.5t-4.5 -11.5q-39 -16 -83 -39t-84.5 -46t-72.5 -43t-46 -31q-2 0 -4 2t-2 4q1 9 4 21t5 14
q10 10 33.5 26.5t51.5 34.5t56 35.5t48 28.5q4 4 0 6z" />
    <glyph glyph-name="Euro" unicode="&#x20ac;" horiz-adv-x="465" 
d="M17 241q-1 5 2 18t5 15h41q0 13 0.5 26.5t0.5 27.5q-11 0 -21.5 -0.5t-18.5 -0.5q-1 7 2 19.5t5 14.5h35q8 62 33 115t73 88q27 21 63.5 32.5t83.5 11.5q37 0 63.5 -5t52.5 -7q-4 -29 -5.5 -56t-1.5 -61q-1 -2 -5.5 -3l-9 -2t-8.5 -0.5t-5 1.5q-6 41 -14 58t-23 27
q-14 9 -32 13t-35 4q-32 0 -57.5 -16t-44 -44.5t-29.5 -67t-14 -84.5q0 -5 3 -5q24 0 54.5 0.5t57.5 0.5t47 0.5t24 0.5q2 -5 0 -18t-5 -17h-179q-4 0 -4 -4v-46q0 -4 4 -4h50.5t55 0.5t46 0.5h23.5q2 -5 -0.5 -16.5t-4.5 -16.5l-169 1q-3 0 -3 -5q4 -46 15.5 -84.5
t31.5 -66t48.5 -43t66.5 -15.5q14 0 30.5 4.5t30.5 15.5q16 14 29 33.5t23 37.5q4 1 13 -4t10 -10q-8 -28 -25 -57.5t-32 -42.5q-14 -8 -39.5 -13t-56.5 -5q-99 0 -159 62t-71 192h-51z" />
    <glyph glyph-name="onethird" unicode="&#x2153;" horiz-adv-x="788" 
d="M598 378q42 0 68 -25t27 -60q0 -31 -17 -50.5t-38 -32.5q-2 -2 0 -3q17 -5 33 -13.5t29 -20.5t20.5 -28t7.5 -37q0 -35 -19 -61.5t-48 -43.5q-23 -15 -51.5 -22.5t-53.5 -7.5q-37 0 -57 10q-12 5 -22 22q-2 4 -4 12t-4 16.5t-3.5 16t-1.5 11.5q1 4 9 8t11 3
q17 -37 39 -50q12 -8 26.5 -12t34.5 -4q30 0 53 17t23 57q0 36 -25.5 61.5t-71.5 25.5h-9.5t-13.5 -2q-1 1 0 5.5t2.5 9t3 8.5t2.5 5q48 9 66 28t18 45t-17 44t-46 18q-22 0 -40.5 -9.5t-36.5 -26.5q-4 0 -9 8t-4 11q9 11 22 23t28.5 21.5t33 16t35.5 6.5zM263 247
q2 -2 1 -13t-3 -13q-17 0 -43.5 1.5t-58.5 1.5t-56 -1.5t-42 -1.5q0 1 -0.5 5t-0.5 8v7.5t1 4.5l42 7q15 3 20 12t5 23q1 23 1.5 55t0.5 73q1 45 0.5 76t-1.5 40q-1 7 -3.5 13t-13.5 8q-5 2 -17 3t-23 2q-1 1 -1 4.5t1 7.5t1.5 7.5t1.5 4.5q13 1 29 3.5t32.5 6t30.5 8
t23 8.5q2 0 5 -0.5t3 -1.5q-2 -17 -2.5 -57t-0.5 -95v-36t0.5 -49t1 -47t0.5 -31q1 -16 4.5 -24.5t16.5 -11.5q9 -2 20.5 -4t24.5 -4zM565 635q0 1 5 1t10.5 -0.5l11 -1t7.5 -1.5q1 -1 1 -5q-3 -4 -20 -34t-44 -76.5t-61 -105.5t-69.5 -120.5t-70 -121t-62.5 -108.5
t-47.5 -82t-24.5 -41q-1 -1 -3.5 -2t-3.5 0q-6 5 -12 13t-6 11q1 2 18 32t44 77.5t61.5 107.5t70.5 122.5t71 122.5t62 106.5t44 75.5t18 30z" />
    <glyph glyph-name="twothirds" unicode="&#x2154;" horiz-adv-x="788" 
d="M143 551q-45 0 -86 -47q-3 -1 -9 8t-5 11q8 14 21 29t30 27t37 20t42 8q46 0 77 -32t31 -82q0 -34 -17 -66t-52 -67q-14 -14 -24.5 -24t-19 -18.5t-16.5 -15.5t-17 -16q-2 -2 -1 -3.5t3 -1.5q9 -1 24 -2t32 -1h35h32q9 0 20.5 11.5t28.5 47.5q3 2 12 -2.5t11 -6.5
q-2 -7 -5.5 -21t-8 -29t-9.5 -27.5t-8 -17.5q-2 -3 -9.5 -7.5t-16.5 -4.5q-17 0 -41 0.5t-50.5 1t-52.5 1t-47 0.5h-19.5t-17.5 -1q-2 2 -2.5 9.5t0.5 10.5q16 14 29.5 25.5t26.5 23t27 26t32 34.5q29 33 41 62.5t12 58.5q0 14 -4 28t-12.5 25t-22 18t-31.5 7zM593 635
q0 1 5 1t10.5 -0.5l11 -1t7.5 -1.5q1 -1 1 -5q-3 -4 -20 -34t-44 -76.5t-61 -105.5t-69.5 -120.5t-70 -121t-62.5 -108.5t-47.5 -82t-24.5 -41q-1 -1 -3.5 -2t-3.5 0q-6 5 -12 13t-6 11q1 2 18 32t44 77.5t61.5 107.5t70.5 122.5t71 122.5t62 106.5t44 75.5t18 30zM619 378
q42 0 68 -25t27 -60q0 -31 -17 -50.5t-38 -32.5q-2 -2 0 -3q17 -5 33 -13.5t29 -20.5t20.5 -28t7.5 -37q0 -35 -19 -61.5t-48 -43.5q-23 -15 -51.5 -22.5t-53.5 -7.5q-37 0 -57 10q-12 5 -22 22q-2 4 -4 12t-4 16.5t-3.5 16t-1.5 11.5q1 4 9 8t11 3q17 -37 39 -50
q12 -8 26.5 -12t34.5 -4q30 0 53 17t23 57q0 36 -25.5 61.5t-71.5 25.5h-9.5t-13.5 -2q-1 1 0 5.5t2.5 9t3 8.5t2.5 5q48 9 66 28t18 45t-17 44t-46 18q-22 0 -40.5 -9.5t-36.5 -26.5q-4 0 -9 8t-4 11q9 11 22 23t28.5 21.5t33 16t35.5 6.5z" />
    <glyph glyph-name="oneeighth" unicode="&#x215b;" horiz-adv-x="788" 
d="M609 377q45 0 75 -25.5t30 -65.5q0 -22 -13.5 -41t-53.5 -45q-1 -1 -1 -2.5t2 -1.5q44 -27 62 -49t18 -56q0 -21 -11 -40.5t-29.5 -34t-42.5 -23t-50 -8.5q-35 0 -59 9t-39 23.5t-21.5 31t-6.5 31.5q0 10 2 19.5t10 20t24 24t44 31.5q3 1 0 3q-39 26 -51 50.5t-12 47.5
q0 22 10.5 41.5t28.5 33.5q16 11 37 18.5t47 7.5zM265 247q2 -2 1 -13t-3 -13q-17 0 -43.5 1.5t-58.5 1.5t-56 -1.5t-42 -1.5q0 1 -0.5 5t-0.5 8v7.5t1 4.5l42 7q15 3 20 12t5 23q1 23 1.5 55t0.5 73q1 45 0.5 76t-1.5 40q-1 7 -3.5 13t-13.5 8q-5 2 -17 3t-23 2
q-1 1 -1 4.5t1 7.5t1.5 7.5t1.5 4.5q13 1 29 3.5t32.5 6t30.5 8t23 8.5q2 0 5 -0.5t3 -1.5q-2 -17 -2.5 -57t-0.5 -95v-36t0.5 -49t1 -47t0.5 -31q1 -16 4.5 -24.5t16.5 -11.5q9 -2 20.5 -4t24.5 -4zM566 635q0 1 5 1t10.5 -0.5l11 -1t7.5 -1.5q1 -1 1 -5q-3 -4 -20 -34
t-44 -76.5t-61 -105.5t-69.5 -120.5t-70 -121t-62.5 -108.5t-47.5 -82t-24.5 -41q-1 -1 -3.5 -2t-3.5 0q-6 5 -12 13t-6 11q1 2 18 32t44 77.5t61.5 107.5t70.5 122.5t71 122.5t62 106.5t44 75.5t18 30zM607 13q23 0 41.5 13t18.5 39q0 29 -22 50.5t-70 47.5q-3 2 -5 0
q-21 -17 -33 -34.5t-11 -40.5q0 -30 21.5 -52.5t59.5 -22.5zM595 352q-25 0 -39.5 -16t-14.5 -39q0 -26 20 -45.5t59 -40.5q2 -3 5 0q22 17 29.5 35t7.5 35q0 31 -18.5 51t-48.5 20z" />
    <glyph glyph-name="threeeighths" unicode="&#x215c;" horiz-adv-x="788" 
d="M190 608q42 0 68 -25t27 -60q0 -31 -17 -50.5t-38 -32.5q-2 -2 0 -3q17 -5 33 -13.5t29 -20.5t20.5 -28t7.5 -37q0 -35 -19 -61.5t-48 -43.5q-23 -15 -51.5 -22.5t-53.5 -7.5q-37 0 -57 10q-12 5 -22 22q-2 4 -4 12t-4 16.5t-3.5 16t-1.5 11.5q1 4 9 8t11 3
q8 -17 17.5 -29.5t21.5 -20.5t26.5 -12t34.5 -4q30 0 53 17t23 57q0 36 -25.5 61.5t-71.5 25.5h-9.5t-13.5 -2q-1 1 0 5.5t2.5 9t3 8.5t2.5 5q48 9 66 28t18 45t-17 44t-46 18q-22 0 -40.5 -9.5t-36.5 -26.5q-4 0 -9 8t-4 11q9 11 22 23t28.5 21.5t33 16t35.5 6.5zM581 635
q0 1 5 1t10.5 -0.5l11 -1t7.5 -1.5q1 -1 1 -5q-3 -4 -20 -34t-44 -76.5t-61 -105.5t-69.5 -120.5t-70 -121t-62.5 -108.5t-47.5 -82t-24.5 -41q-1 -1 -3.5 -2t-3.5 0q-6 5 -12 13t-6 11q1 2 18 32t44 77.5t61.5 107.5t70.5 122.5t71 122.5t62 106.5t44 75.5t18 30zM619 377
q45 0 75 -25.5t30 -65.5q0 -22 -13.5 -41t-53.5 -45q-1 -1 -1 -2.5t2 -1.5q44 -27 62 -49t18 -56q0 -21 -11 -40.5t-29.5 -34t-42.5 -23t-50 -8.5q-35 0 -59 9t-39 23.5t-21.5 31t-6.5 31.5q0 10 2 19.5t10 20t24 24t44 31.5q3 1 0 3q-39 26 -51 50.5t-12 47.5
q0 22 10.5 41.5t28.5 33.5q16 11 37 18.5t47 7.5zM605 352q-25 0 -39.5 -16t-14.5 -39q0 -26 20 -45.5t59 -40.5q2 -3 5 0q22 17 29.5 35t7.5 35q0 31 -18.5 51t-48.5 20zM617 13q23 0 41.5 13t18.5 39q0 29 -22 50.5t-70 47.5q-3 2 -5 0q-21 -17 -33 -34.5t-11 -40.5
q0 -30 21.5 -52.5t59.5 -22.5z" />
    <glyph glyph-name="fiveeighths" unicode="&#x215d;" horiz-adv-x="788" 
d="M275 613q1 0 5 -3.5t4 -5.5q-1 -8 -6 -18t-12.5 -20t-15 -17t-13.5 -7q-27 0 -46 2t-37 3q-6 0 -8 -6q-5 -8 -10 -20t-8 -20q-2 -7 2 -9q9 -5 24.5 -12t33.5 -15.5t36 -18.5t32 -19q29 -19 41 -41.5t12 -51.5t-15 -53.5t-38.5 -42t-51.5 -27t-54 -9.5q-32 0 -55 11.5
t-34 22.5q-9 9 -9 22q0 3 2 8.5t4 11.5t4.5 11.5t4.5 7.5t5 3t4 0q8 -10 18 -20.5t22.5 -19.5t29 -14.5t37.5 -5.5q29 0 47 16t18 45q0 25 -10 43.5t-43 39.5q-14 9 -30 17.5t-31 16.5t-28 14.5t-19 11.5q-2 1 -2 10t2 12q3 12 10 29t14.5 34t15.5 33t13 25q2 5 8 10.5
t11 5.5q11 1 31.5 0.5t43.5 -0.5q17 0 24.5 2t16.5 8zM576 635q0 1 5 1t10.5 -0.5l11 -1t7.5 -1.5q1 -1 1 -5q-3 -4 -20 -34t-44 -76.5t-61 -105.5t-69.5 -120.5t-70 -121t-62.5 -108.5t-47.5 -82t-24.5 -41q-1 -1 -3.5 -2t-3.5 0q-6 5 -12 13t-6 11q1 2 18 32t44 77.5
t61.5 107.5t70.5 122.5t71 122.5t62 106.5t44 75.5t18 30zM615 377q45 0 75 -25.5t30 -65.5q0 -22 -13.5 -41t-53.5 -45q-1 -1 -1 -2.5t2 -1.5q44 -27 62 -49t18 -56q0 -21 -11 -40.5t-29.5 -34t-42.5 -23t-50 -8.5q-35 0 -59 9t-39 23.5t-21.5 31t-6.5 31.5q0 10 2 19.5
t10 20t24 24t44 31.5q3 1 0 3q-39 26 -51 50.5t-12 47.5q0 22 10.5 41.5t28.5 33.5q16 11 37 18.5t47 7.5zM601 352q-25 0 -39.5 -16t-14.5 -39q0 -26 20 -45.5t59 -40.5q2 -3 5 0q22 17 29.5 35t7.5 35q0 31 -18.5 51t-48.5 20zM613 13q23 0 41.5 13t18.5 39q0 29 -22 50.5
t-70 47.5q-3 2 -5 0q-21 -17 -33 -34.5t-11 -40.5q0 -30 21.5 -52.5t59.5 -22.5z" />
    <glyph glyph-name="seveneighths" unicode="&#x215e;" horiz-adv-x="788" 
d="M336 602q2 0 2.5 -5.5t0.5 -6.5q-5 -17 -19.5 -49t-32.5 -71t-38 -80.5t-38 -78.5t-31.5 -65t-17.5 -39q-1 -2 -5 -2q-5 0 -16 5t-14 8q-2 1 -1.5 4t0.5 5q14 27 37.5 71t47.5 89.5t44 86.5t27 63l-1 2v1q-11 0 -32 0.5t-44 0.5t-44.5 -0.5t-32.5 -1.5q-16 -1 -26 -10
t-26 -41q-3 -2 -12.5 2t-10.5 6q3 10 7 24.5t8 29.5t7 30t5 27q8 -3 22.5 -4.5t31.5 -1.5h126h40.5t35.5 1zM548 635q0 1 5 1t10.5 -0.5l11 -1t7.5 -1.5q1 -1 1 -5q-3 -4 -20 -34t-44 -76.5t-61 -105.5t-69.5 -120.5t-70 -121t-62.5 -108.5t-47.5 -82t-24.5 -41
q-1 -1 -3.5 -2t-3.5 0q-6 5 -12 13t-6 11q1 2 18 32t44 77.5t61.5 107.5t70.5 122.5t71 122.5t62 106.5t44 75.5t18 30zM606 377q45 0 75 -25.5t30 -65.5q0 -22 -13.5 -41t-53.5 -45q-1 -1 -1 -2.5t2 -1.5q44 -27 62 -49t18 -56q0 -21 -11 -40.5t-29.5 -34t-42.5 -23
t-50 -8.5q-35 0 -59 9t-39 23.5t-21.5 31t-6.5 31.5q0 10 2 19.5t10 20t24 24t44 31.5q3 1 0 3q-39 26 -51 50.5t-12 47.5q0 22 10.5 41.5t28.5 33.5q16 11 37 18.5t47 7.5zM592 352q-25 0 -39.5 -16t-14.5 -39q0 -26 20 -45.5t59 -40.5q2 -3 5 0q22 17 29.5 35t7.5 35
q0 31 -18.5 51t-48.5 20zM604 13q23 0 41.5 13t18.5 39q0 29 -22 50.5t-70 47.5q-3 2 -5 0q-21 -17 -33 -34.5t-11 -40.5q0 -30 21.5 -52.5t59.5 -22.5z" />
    <glyph glyph-name="minus" unicode="&#x2212;" horiz-adv-x="286" 
d="M50 234q18 0 47 0.5t59 1.5t55.5 2t36.5 1v-10q0 -4 -2 -11.5l-4 -15t-4.5 -13.5t-4.5 -7t-16 -2t-34 -2t-43 -1.5t-44 -1t-37 -0.5h-21l-1 9q0 5 1.5 13.5t3.5 16.5t4 14t4 6z" />
  </font>
</defs>
</svg>
